<svg width="18" height="19" fill="none" xmlns="http://www.w3.org/2000/svg"><g clip-path="url(#clip0)" fill="#fff"><path d="M17.945 6.125c-.043-.958-.196-1.612-.418-2.184a4.412 4.412 0 00-1.038-1.594 4.413 4.413 0 00-1.594-1.039c-.573-.222-1.227-.374-2.185-.418C11.75.846 11.444.836 9 .836c-2.445 0-2.751.01-3.711.054-.958.044-1.612.196-2.185.418A4.41 4.41 0 001.51 2.347 4.405 4.405 0 00.472 3.94C.249 4.513.097 5.167.054 6.125.01 7.085 0 7.392 0 9.835c0 2.445.01 2.752.054 3.712.044.957.196 1.612.418 2.184.226.6.58 1.145 1.038 1.594.45.458.994.812 1.594 1.038.573.223 1.227.375 2.185.419.96.044 1.266.054 3.71.054 2.445 0 2.752-.01 3.711-.054.958-.044 1.612-.196 2.185-.419a4.602 4.602 0 002.632-2.632c.223-.572.375-1.227.418-2.184.044-.96.055-1.267.055-3.711s-.01-2.75-.055-3.71zm-1.62 7.348c-.04.877-.186 1.354-.31 1.671a2.98 2.98 0 01-1.708 1.708c-.317.123-.793.27-1.67.31-.95.043-1.234.052-3.637.052-2.404 0-2.688-.009-3.637-.052-.878-.04-1.354-.187-1.672-.31a2.79 2.79 0 01-1.034-.673 2.789 2.789 0 01-.674-1.035c-.123-.317-.27-.794-.31-1.671-.043-.95-.052-1.234-.052-3.637s.01-2.688.053-3.637c.04-.877.186-1.354.31-1.671a2.79 2.79 0 01.673-1.035 2.78 2.78 0 011.035-.673c.317-.123.793-.27 1.67-.31.95-.043 1.234-.052 3.638-.052 2.402 0 2.687.009 3.636.052.878.04 1.354.187 1.671.31a2.78 2.78 0 011.035.673c.3.29.53.644.673 1.035.124.317.27.794.31 1.671.044.95.053 1.234.053 3.637s-.01 2.688-.053 3.637z"/><path d="M9 5.214a4.622 4.622 0 100 9.244 4.622 4.622 0 000-9.244zm0 7.622a3 3 0 110-6 3 3 0 010 6zm5.884-7.804a1.08 1.08 0 11-2.16 0 1.08 1.08 0 012.16 0z"/></g><defs><clipPath id="clip0"><path fill="#fff" transform="translate(0 .836)" d="M0 0h18v18H0z"/></clipPath></defs></svg>