<svg width="18" height="19" fill="none" xmlns="http://www.w3.org/2000/svg"><g clip-path="url(#clip0)"><path d="M17.84 13.861c-.049-.08-.348-.731-1.788-2.068-1.508-1.4-1.305-1.172.51-3.592 1.106-1.474 1.549-2.374 1.41-2.759-.132-.367-.945-.27-.945-.27l-2.705.016s-.2-.027-.35.062c-.145.088-.238.29-.238.29s-.429 1.14-1 2.11c-1.205 2.047-1.688 2.155-1.885 2.028-.458-.296-.343-1.19-.343-1.825 0-1.983.3-2.81-.586-3.024-.295-.07-.51-.118-1.264-.126-.965-.01-1.783.003-2.245.23-.308.15-.546.487-.4.506.178.023.583.109.798.401.278.377.268 1.226.268 1.226s.16 2.334-.373 2.625c-.365.199-.866-.207-1.94-2.065-.55-.95-.967-2.003-.967-2.003s-.08-.195-.222-.3c-.174-.127-.417-.168-.417-.168l-2.572.016S.2 5.182.06 5.35c-.126.15-.01.458-.01.458s2.013 4.71 4.293 7.086c2.091 2.177 4.465 2.034 4.465 2.034h1.076s.325-.036.49-.215c.153-.164.148-.473.148-.473s-.022-1.443.649-1.656c.66-.209 1.509 1.395 2.408 2.013.68.467 1.196.364 1.196.364l2.404-.033s1.258-.078.661-1.067z" fill="#fff"/></g><defs><clipPath id="clip0"><path fill="#fff" transform="translate(0 .836)" d="M0 0h18v18H0z"/></clipPath></defs></svg>