<svg width="124" height="69" fill="none" xmlns="http://www.w3.org/2000/svg"><path d="M6.398 63.727l7.504-2.025a271.29 271.29 0 007.423-2.119c.195.024.404.1.628.23.248.085.361.226.338.423.066.248.015.623-.154 1.125-.177.467-.37.804-.58 1.013L.79 68.836a6.42 6.42 0 01-.52-.887 5.014 5.014 0 01-.268-1.011 1.655 1.655 0 01.21-.913c.155-.27.444-.462.866-.576l1.057-.286c.308-.12.566-.286.775-.494.613-4.084 1.196-8.14 1.748-12.17.552-4.03 1.086-8.054 1.603-12.074a51.9 51.9 0 01.89-4.749 21.16 21.16 0 011.671-4.788 14.469 14.469 0 012.787-4.005c1.13-1.142 2.564-1.929 4.3-2.36 1.402-.264 2.52-.033 3.356.693.835.726 1.313 1.814 1.434 3.265a16.11 16.11 0 01-.055 3.838 20.837 20.837 0 01-.852 3.825c-.084.251-.207.57-.369.956-.136.34-.284.704-.446 1.09-.171.35-.36.706-.566 1.066-.18.315-.363.554-.546.718-.34.282-.785.383-1.335.303a15.213 15.213 0 01-1.52-.388c.418-.988.76-1.974 1.026-2.96.302-.994.56-1.939.776-2.834a15.34 15.34 0 00.438-2.4c.118-.831.215-1.675.289-2.532-.012-.187-.033-.41-.064-.668-.04-.293-.076-.569-.107-.827a3.13 3.13 0 00-.212-.799c-.102-.239-.224-.415-.367-.528a1.453 1.453 0 00-.557.036 1.6 1.6 0 00-.384.047c-1.346.477-2.43 1.226-3.254 2.248a12.32 12.32 0 00-1.867 3.414 22.788 22.788 0 00-1.035 3.989 92.576 92.576 0 00-.612 3.874L6.398 63.727zm1.138-15.315l-.212.057-.176-.238-.212.057.17.64.317-.086.113-.43zm.087-.309l-.186-.064-.184.164.283.209.087-.309zm-.085-.32l-.158.043.057.213.158-.042-.057-.213zm.088-.308l-.215-.17.127.479.159-.043-.07-.266zm-1.279-2.68l.212-.057-.029-.106-.183.163zM6.054 47.1l.211-.057-.056-.213-.155.27zm-.1 1.112l.21-.058-.253-.102.042.16zm.077.72l-.21.057.281.21.029.106.077-.135.211-.057-.099-.373-.211.057-.071-.266-.106.029.1.372zm-.59 3.527l.158-.043-.029-.106-.158.042.028.107zm-.225 4.055l-.156-.586.057.213-.218.458.317-.085zM7.534 44.36l-.211.057.085.32.211-.058.102-.255-.187-.064zm-.647.973l.07.267.03.106-.16.043-.182.163.282.21-.071-.267.289-.192-.029-.106.088-.31-.317.086zm-.56.665l.212-.057-.028-.106-.212.057.029.106zm.347 4.072l-.211.057.099.373.426.113-.056-.213-.201-.117.158-.043-.215-.17zm-.444-.393l-.37.1.028.106.159-.043.183-.163zm.184.692l-.212.057.043.16.211-.057-.042-.16zm.929-3.96l-.23-.224-.028-.106-.158.043.028.106.23.224.186.063.159-.043-.128-.479-.158.043.099.373zm.184.692l.043.16.158-.043-.042-.16-.159.043zm-.483 2.87l.057.212.317-.085-.057-.213-.317.085zm-.736-2.77l.056.214.159-.043.102-.256-.317.086zm.892 3.355l-.057-.213-.211.057.268.156zm-.51-1.917l.088-.309-.159.043.071.266zm-.44-.166l.284-.42-.37.1.057.213-.183.164.07.266.141-.323zm.276-1.73l.056.213.212-.057.148.132.268.155-.211.058.042.16-.26.298-.057-.213-.102.256.159-.043.317-.086-.057-.213.268.156-.057-.213.318-.085-.202-.117.102-.256-.042-.16-.159.043-.056-.213-.102.256-.212.057-.056-.213-.317.085zm.777-1.123l.029.107.13-.15-.159.043zm.159-.042l.13-.15-.159.043.029.107zm-.371-3.952l-.106.029.057.213.105-.029-.056-.213zm-.38 9.86l.007-.4-.106.028.1.373-.212.057.24.05-.029-.107zm.422-6.504l.071.266.159-.043-.071-.266-.159.043zm.19-.565l-.07-.266-.16.042.23.224zm-.456-1.075l.159-.043-.029-.107-.13.15zm-.8 9.346l.057.213-.158.042.187.064.229.224-.1-.373-.214-.17zm.098 1.857l-.057-.213-.158.042.056.213.159-.042zm-.225-2.337l-.07-.266-.16.043-.027-.106.099.372.158-.043zm.218-.458L6 51.794l.186.064-.028-.107zm-1.02 8.093l.029.107.211-.057.13-.15-.37.1zm.78-2.607l-.106.029.057.213.106-.029-.057-.213zm.085.32l.042.16.222-.232-.264.072zm.422-.97l-.335-.195-.035.295.398.006-.028-.106zm-.065-.668l.13-.149-.056-.213-.074.362zm-.606-2.917l.029.106.211-.057-.028-.107-.212.058zm.056-.643l-.211.057.056.213-.116.202.159-.042.169-.217-.057-.213zm.442 1.022l-.187-.064.028.107.159-.043zm.124 1.108l.102-.256-.028-.107-.159.043.085.32zm1.738-11.996l-.106.028.205.344-.1-.373zm.086-1.165l.057.213.159-.043-.216-.17zm.448-2.575l-.207.284.264-.071-.057-.213zm.15-1.353l-.134-.078.029.106.105-.028zm-.178 1.247l-.335-.195.07.266.265-.072zm-.519 2.308l.23.223-.1-.372-.158.043.028.106zm-.622-1.487l.212-.057-.1-.373-.154.27.042.16zm.252 1.587l-.134-.078-.236.178.37-.1zm10.376-2.516l-.388-.18.07.266.318-.086zm.903-2.355l-.212.057.043.16.211-.057-.042-.16zm.186-.792l-.282-.21.31.316-.028-.106zM16.9 37.838l.056.213.212-.058-.057-.212-.211.057zm1.514-.695l-.264.072.029.106.264-.071-.029-.107zm-.056-.213l.056.213.05-.241-.106.028zm.221-.23l.155-.27-.211.056.056.213zm-.142-1.389l-.211.057.07.267.212-.057-.071-.267zm.161-.671l-.288.192.176.238.14-.324-.028-.106z" fill="#fff"/><path d="M18.885 51.968c.09.622.34.992.748 1.11.444.108.966.082 1.565-.08.862-.309 1.775-.993 2.74-2.052a40.584 40.584 0 002.885-3.632 105.984 105.984 0 002.575-3.948 177.48 177.48 0 011.99-3.163c.062-.054.23-.061.505-.021.265.004.54.044.825.12.319.065.59.163.814.293.214.094.317.2.31.316-.016.08-.076.21-.179.39a4.76 4.76 0 01-.295.594l-.416.568a2.47 2.47 0 01-.26.299c-.171.35-.352.666-.541.945-.19.28-.389.6-.595.96a26.769 26.769 0 00-1.498 2.458 32.7 32.7 0 01-1.474 2.338c-.467.659-.972 1.385-1.517 2.179a30.115 30.115 0 01-1.611 2.033l-.159.042c-.382.408-.96.792-1.732 1.153a16.83 16.83 0 01-2.019.716c-.361.06-.825.09-1.392.09-.54-.044-1.09-.124-1.65-.239a6.812 6.812 0 01-1.47-.63c-.446-.26-.744-.598-.892-1.015-.222-.548-.334-1.184-.337-1.906.032-.731.134-1.482.307-2.251.173-.77.373-1.509.6-2.217a37.61 37.61 0 01.685-1.897c.734-1.643 1.59-3.035 2.571-4.175.303-.424.711-.876 1.225-1.357.514-.482 1.073-.651 1.677-.51 2.268.719 3.559 1.74 3.873 3.063.34 1.278-.276 2.794-1.848 4.55-.34.283-.64.573-.901.872l-.81.789c-.61.545-1.238 1.095-1.884 1.65a13.24 13.24 0 01-2.126 1.373c-.052.09-.148.154-.29.192zm-2.296-1.606c.038.142.039.218.004.227l.052-.014-.056-.213zm3.123 3.437l-.078.135.106-.029-.028-.106zm11.995-12.825l-.078.135.106-.029-.028-.106zm-2.649 4.31l-.144.096.028.106-.063.189.014.053.197-.11.14-.324-.013-.053-.159.043zm2.571-4.175l-.154.27.028.106.211-.057.078-.135-.163-.184zm-1.034 1.648l-.091.082.028.107.057.213.211-.057-.12-.025-.042-.16.183-.163-.226.003zm-.232.406l-.144.095.028.107-.26.298.187.064-.029-.106.116-.203.317-.085-.215-.17zm-.686 1.04l.043.16-.106.029.162.184.043.16.134.078.105-.029-.134-.078.064-.188.197-.11-.043-.16.021-.348-.134-.078-.13.15.042.16-.264.07zm-.27.473l.042.16.081.092-.07-.266-.054.014zm-.141.323l-.078.135.043.16.158-.043-.014-.053-.11-.199zm.435 1.424l.13-.15-.268-.155-.105.028.028.106.105-.028.11.199zm.31-.54l-.24-.05.028.107-.024.12.052-.014.183-.163zm.274-.246l-.018-.28-.067-.04-.211.058-.212.057.014.053.134.078-.105.029.148.13.106-.028-.071-.266.282.21zm.46-1.037l.183-.163-.306-.089.042.16.081.092zm.247-.352l.091-.082-.105.029-.145.096.159-.043zm.661-.92l.194-.338-.149-.131-.225.004.056.213.124.252zm.827-1.365l.144-.096-.158.043-.043-.16-.053.015-.063.188.159-.043.014.053zm.323-.486l.13-.15-.2-.117-.014-.053-.106.029.014.053.176.238zm.141-.324l.091-.081-.105.028.014.053zm-.374-.127c-.035.01-.057-.004-.067-.04l-.028-.106.056.213.04-.067zm-.44-.167l-.078.136.043.16.158-.044-.07-.266-.053.014zm-.095.71l.208-.284-.134-.077-.13.149.056.213zm.293.036l-.106.028.014.054.106-.029-.014-.053zm-.137.55l-.159.043.043.16.12.025-.004-.228zm-.272-.383l-.077.135-.17.217-.038.067.081.093.275-.245-.07-.267zm-.12-.024l.106-.029-.028-.107-.106.03.028.106zm.276.61l-.317.086.014.053.106-.029.197-.11zm-.433.288l.158-.043-.085-.32-.158.044.085.32zm-.357-.703l.144-.096.106-.028-.134-.078-.13.15.014.053zm-1.539 4.011l-.187-.064-.053.015.029.106.211-.057zm1.062-2.398l.042.16.106-.029.063-.188-.211.057zm-.031.522l-.212.057-.134-.078-.158.043.229.223-.159.043.015.053.158-.042-.014-.054.12.025.155-.27zm-.694.587l.028.106.159-.043.088-.309-.159.043-.116.203zm.35.248l.066.039.145-.096.049-.242-.134-.078-.13.15-.053.014.056.213zm-1.258 1.024l.043.16.211-.057-.042-.16-.212.057zm.064.667l.043.16.159-.043-.096-.145-.105.028zm1.652-4.44l.095.145.211-.056-.042-.16-.264.071zm.349.248l-.24-.05-.024.121.095.146.226-.004.09-.082-.042-.16-.105.03zm-.127.377l.043.16.211-.058-.042-.16-.212.058zm.487.553l-.317.086.014.053.212-.057.091-.082zm-.497-.38l-.106.03.043.159.063-.188zm-2.755 3.484c-.052.09-.095.14-.13.149-.036.01-.08.06-.13.15l.028.106-.106.028-.092.082.057.213-.183.163.148.132-.091.081.028.107.183-.164.317-.085-.162-.185-.148-.13.105-.03.063-.188-.12-.024.318-.086-.029-.106-.215-.17.159-.043zm-.83 1.137l-.17.217.057.213.13-.15.159-.042-.134-.078-.043-.16zm-.377.501l-.077.135.028.106.236-.177-.187-.064zm-.26.298l.028.107.268.156.12.025.063-.189-.374-.127-.106.029zm-.715.935l-.116.203.067.039.092-.082-.043-.16zm-.207.285l-.078.135.134.078.078-.136-.106.029-.028-.106zm-2.766-1.88l.13-.148-.014-.053-.158.042.042.16zm.574-.61l.145-.096-.159.042.014.054zm.64-.573c.017-.08.043-.125.078-.135.07-.019.132-.073.183-.163l-.187-.064-.077.135-.053.014.057.213zm.314-.313c-.019-.07-.01-.11.025-.12l.053-.015-.201-.117.042.16.081.092zm.194-.337l.052-.015c.026-.044.057-.072.092-.081l-.106.028-.197.11.159-.042zm.714-.935c.051-.09.072-.153.063-.188.016-.08.06-.13.13-.15l-.2-.116-.174-.01.057.212.124.252zm.422-.97l-.015-.053c-.019-.071.007-.116.078-.135l-.106.029.043.16zm.023-.976l-.042-.16-.078.135.057.213.063-.188zm.102-.256l-.07-.266-.16.043.071.266.159-.043zm-.328-.596l-.106.028.014.054.134.078-.043-.16zm-.177-.238a.425.425 0 00-.095-.145l.042.16.053-.015zm-1.799-1.226l-.134-.078.029.106.105-.028zm3.553 9.313l.063-.189-.12-.025-.158.043-.215-.17.056.213.173.01.043.16.158-.042zm.75-1.23l.182-.163-.12-.025-.158.043-.201-.117-.106.028-.126.377-.106.028-.028-.106-.025.12.043.16.067.04.091-.082.116-.203.37-.1zm1.1-1.61l.092-.081-.043-.16-.105.028-.063.189.014.053.105-.029zm-3.797-4.91l-.092.083.028.106.106-.029-.042-.16zm.042.16l-.169.217.014.054.106-.029.028.107-.158.042-.116.203.211-.057.043.16.21-.058-.084-.319.063-.188-.042-.16-.106.029zm.27 1.012l.027.107-.169.216-.038.068.08.092.276-.245-.177-.238zm.155.586l-.212.057.015.053.105-.029.092-.081zm2.957 3.025l-.212.057-.063.188.12.025.187.064.024-.121-.056-.213zm-.44.69l-.028-.107-.078.135.106-.029zm-1.073 1.716l.05-.242-.015-.053-.106.028-.091.082.028.107.134.078zm-.24-.05l-.024.12.081.093-.056-.213zm-1.585-5.107l.212-.057-.085-.32-.211.057.084.32zm-.303-.717l.091-.082.159-.043-.187-.063-.078.135.015.053zm-.322-.998l.095.146.106-.029-.071-.266-.106.029-.024.12zm3.983 4.118l.085.32.183-.164-.014-.053-.148-.132-.106.029zm-.042-.16l.134.078.049-.241-.211.057.028.106zm.02-.348l.106-.028-.028-.107-.211.057.056.213.106-.028-.028-.107zm-.19-.29l.148.13.106-.028-.043-.16-.24-.05.03.107zm-3.529-3.899l-.166-.411-.278.018-.053.014.014.053.053-.014.377.355.053-.015zm.733 8.933l.13-.15-.12-.024-.042-.16-.01.174.042.16zm-1.26.797l-.053.014.056.213.081.092.106-.028-.19-.291zm-.21-7.819l-.37.1.042.16.067.04-.053.013.07.267.011-.174.212-.057-.029-.107.106-.029-.057-.212zm-.48 2.242l.144-.096-.043-.16.074-.362-.187-.064-.078.135.043.16-.36-.075.043.16-.053.014.043.16.109.199.042.16.187.063.106-.028-.134-.078.063-.188zm-.564.437l.159-.043-.23-.223.07.266zm-.054-.841l-.158.042.056.213.159-.042-.057-.213zm.348-.608l.053-.014-.038.067-.064.189.029.106.13-.15.345.021-.028-.106.063-.188.317-.086-.162-.184-.053.014-.116.203-.159.042-.028-.106-.159.043-.014-.054a.362.362 0 00-.116.203zm.243-.579l.042.16.078-.135-.12-.025zm.839.173l-.12-.025-.043-.16.13-.149-.278.018.043.16.056.213.212-.057zm.007.454l.043.16.105-.028.01-.175-.158.043zm-.084.537l-.158.042-.187-.063-.106.028.177.238-.106.028.014.054.106-.029-.014-.053.172.01.04-.067.062-.188zm-.64.572l.028.107.106-.029.14-.323-.211.057-.063.188zm.521-2.937l-.085-.32-.063.189-.039.067.081.093.015.053.091-.082zm-.495-1.863l-.078.135.063-.189.015.054zm-.205-.345l-.039.068.043.16.052-.015-.056-.213zm-.158.899l-.105.028.014.054.148.13.028.107-.085-.32zm-.19-.291l-.081-.092.028.106.053-.014zm-1.18.033l.062-.188-.042-.16-.159.043-.13.15.159-.043.11.198zm.464.046l.029.107c.044.025.071.056.08.092l.015.053.063-.188-.134-.078-.053.014zm-.099-.373l-.134-.078-.13.15.173.01.105-.029-.014-.053zm-.283-1.065l-.264.072.042.16.187.063.078-.135-.043-.16zm-.232.405l.085.32-.134-.078-.025.12.159-.042.028.106.183-.163-.187-.064.13-.15-.186-.063-.053.014zm.008 1.31l-.105.03.042.159c-.028-.107-.025-.165.01-.174l.053-.014zm-.2-.116l-.16.042.043.16.159-.042-.043-.16zm.896 4.437l.018.28.159-.042.07.266.212-.057-.014-.053-.268-.156-.177-.238zm2.43 4.879l-.105.029.028.106.134.078-.056-.213zm-.392-7.655l.105-.028-.085-.32-.105.029.084.32zm-.025.121l.095.146.106-.029-.042-.16-.159.043zm.244.277l-.134-.078-.025.12.095.146.12.025.144-.096-.042-.16-.159.043zm-.021.348l.042.16.106-.029-.043-.16-.105.029zm.434.567l-.264.072.014.053.106-.029.144-.096zm-.51-1.916l-.144.096.028.106.159-.043-.043-.16zm-.604-1.207l-.053.014.173.01-.014-.052-.134-.078.028.106zm.216 1.026l.081.092.265-.071.024-.12-.067-.04-.158.043-.145.096zm.453 1.704l-.211.057.042.16.17-.217zm-1.48-3.652l.2.117.064-.188-.173-.01-.134-.079.043.16zm.177 1.093l.12.025.091-.082-.211.057zm.1.373l.042.16.134.078-.029-.107-.148-.13zm-.563-1.047l.043.16.053-.014.176.237.078-.135-.085-.32-.264.072zm-.33.033l.109.198.106-.028.116-.203-.015-.053-.317.086zm-1.038-.919l.004.228.028.106.159-.043-.071-.266-.12-.025zm-.1 1.112l.027.106-.158.043-.144.096.042.16.081.092.035-.295.043.16.158-.043.01-.174-.014-.053-.08-.092zm-.33-.596l-.172-.01-.106.028.014.053.106-.029.244.277.158-.043-.243-.276zm1.272 5.42l.173.01-.057-.213c-.042.126-.08.193-.116.203zm-.023.976l.25-.124.088-.31-.014-.052-.265.07.043.16-.116.203.014.053zm2.113 4.965l.014.053-.06.416-.158.043.029.106.158-.043.13-.149-.113-.426zm.006-1.257l-.12-.025.042.16-.024.121.028.106.159-.042-.085-.32zm.37-.1l-.053.015.028.106.025-.12zm.937-.31l.014.054.049-.242-.014-.053-.092.082-.105.028.148.131zm-7.96 1.806l-.042-.16-.253-.102-.106.029.028.106.12.025.254.102zm.105-.884l.04-.067c.05-.09.094-.14.13-.15l-.24-.049.07.266zm1.969-1.33l.077-.135-.105.029.028.106zm.13-.15l.236-.177-.134-.078-.159.043-.024.12.053-.014.028.107zm.838-.682c.052-.09.113-.145.183-.163a.485.485 0 00.197-.11l-.042-.16-.148-.132.105-.028-.056-.213.317-.086-.085-.32-.134-.077-.212.057-.028-.107-.105.029.162.184.085.32-.106.028-.197.11.042.16.067.04-.13.148.148.132-.091.081.028.107zm-1.752-6.375c-.07.02-.119.051-.144.096.01.036-.017.08-.078.135l.264-.071-.042-.16zm-.31.54l-.144.096.159-.043-.014-.053zm-.39.448c.01.035-.004.058-.039.068l.029.106.052-.014-.042-.16zm-.344.835l-.13.15.158-.044-.028-.106zm-.275.245l-.01.174.042.16.053-.014.144-.096-.187-.064.159-.043-.043-.16-.158.043zm-.573 1.467a.871.871 0 01-.102.256c-.026.045-.037.143-.035.295l.025-.12.116-.204.159-.042-.057-.213-.106.028zm-.228.633c-.033.16-.083.326-.151.497a3.59 3.59 0 01-.112.43l.187.063.105-.028-.134-.078.063-.188.198-.11-.043-.16.021-.348-.134-.078zm-.576 2.095l.029.107.211-.057-.24-.05zm.004.227l-.13.15.211-.057.163.184.12.025-.043-.16-.268-.156-.053.014zm-.112.43l-.063.188.106-.028-.043-.16zm1.51 4.614l.029.107.183-.164-.114-.426.014.053-.112.43zm.524-6.76l-.21.056.056.213.024-.12.13-.15zm1.922-4.914l-.014-.053-.187-.064-.105.029-.01.174.052-.014.07.266.194-.338zm-.464.81l-.317.086.07.266.015.053-.159.043-.087.31.172.01.04-.068.245-.352-.014-.053-.211.057.169-.217.105-.028-.028-.107zm-.813.562l.07.267.106-.029-.07-.266-.106.028zm-.533-.084l-.116.202.015.054.105-.029.029.106-.212.058-.063.188.106-.029.148.132.158-.043-.085-.32.116-.202-.042-.16-.159.043zm1.178.595l.063-.188-.014-.054-.105.029.056.213zm-.634.171l.102-.256-.028-.106-.13.15.056.212zm.156.586l-.159.042.043.16.12.025-.004-.227zm-.43-.34l.028.106-.116.202-.106.029.043.16.105-.029.275-.245-.23-.224zm.155.585l-.158.043.014.053.105-.028.04-.068zm1.27 3.709l-.106.028.028.107.078-.135zm-.156-.586l.053-.014-.028-.106-.025.12zm-.165.444l.13-.149-.173-.01.043.16zm.739-1.055l-.025.12.053-.014-.028-.106zm-.025.12a.758.758 0 00-.303.14c-.026.044-.1.122-.221.23l.186.064.102-.256-.024.121.028.107.159-.043-.057-.213-.106.028.236-.177zm-.34 1.063l.158-.043.085.32.077-.136.16-.042-.135-.078-.028-.107-.067-.039-.106.029-.144.096zm.527-.999l-.028-.106-.106.028.028.107.106-.029zm.07.267l-.013-.054-.106.029.014.053.106-.029zm.394-1.077l-.077.135.106-.028.042.16.014.053.159-.043-.173-.01-.042-.16-.029-.107zm.23 5.76l-.089.308.173.01.106-.028-.12-.025-.07-.266zm-2.616-6.428c.084-.251.138-.475.16-.671l-.21.057.085.32-.078.134.043.16zm-.06.415a33.09 33.09 0 01-.028-.106.493.493 0 00-.004-.227l-.211.057.085.32.158-.044zm-.195-1.373l.105-.029-.085-.32-.105.03.085.319zm-.304-.717l.091-.082.106-.029-.134-.078-.077.136.014.053zm.64-1.428l-.159.042.014.054.187.063-.042-.16zm.498 1.235l-.159.042.043.16.105-.028.067.039-.056-.213zm.57-.839l.01-.174-.081-.092.07.266zm.19-.565l-.05.242c.061-.055.095-.14.102-.256l-.053.014zm.39-1.303l.042.16.158-.043-.095-.146-.106.029zm1.331 5.86l.187.064-.057-.213-.158.043.028.106zm.074-.362l.052-.014-.028-.107-.211.057.056.213.159-.043-.028-.106zm-.244-.277l.201.117-.042-.16-.187-.063.028.106zm0 0l-.19-.29-.01.173.2.117zm.836 6.337l.081.093.13-.15-.211.057zm-.55.49l.117-.202-.173-.01.057.213zm-.247-.503l.106-.029-.028-.106-.148-.131.07.266zm-.705-.095l.265-.071-.043-.16-.236.178.014.053zm-.542.09l.067.038.197-.11-.264.071zm-1.133-4.26l.074-.362-.014-.054-.092.082-.053.015-.13.149-.102.255.317-.085zm-1.079-3.418l.014.053.201.117.124.252.043.16.063-.188.105-.029-.028-.106-.19-.291-.332.032zm1.565-3.276l-.015-.053-.158.043.014.053.159-.043zm.19.291l-.317.086.043.16.095.145.264-.071-.085-.32zm-.184-.692l.043.16.01-.174-.053.014zm-1.46 7.927l-.134-.078-.24-.05.212-.056-.029-.107-.398-.007-.042-.16-.116.203.186.064.106-.029.028.107.053-.014.004.227.028.106.212-.057.13-.149zm-1.036-.063l.158-.042-.028-.107-.211.057.08.092zm.118 1.51l.028.106.212-.057-.029-.107-.134-.078-.211.057.028.107.106-.029zm-.375-.984l-.028-.106-.212.057.029.106.134.078.077-.135zm.44 2.506l.085.32.211-.057-.296-.263zm-.468-2.612l-.114-.426-.105.028.063-.188-.148-.131-.106.028.004.227-.159.043-.024.121.264-.071.057.213.268.156zm1.248-2.335l-.106.029.043.16.106-.029-.043-.16zm-.55-.365l.225-.003.092-.082-.085-.32-.211.057-.254-.102.042.16.134.077-.246.352.07.266-.038.068.081.092.183-.163.106-.029.134.078.063-.188-.042-.16-.106.029-.134-.078-.014-.054zm.319 1.626l.063-.188-.148-.131-.264.071.042.16-.091.081.028.107.106-.028-.029-.107.25-.125.043.16zm0 0l.043.16.105-.029-.042-.16-.106.03zm-.94.083l.084.32.01-.175-.095-.145zm-.17-.639l-.24-.05-.078.136.028.106.078-.135.028.107.183-.164zm.683-2.752l-.056-.214.077-.135-.226.004.043.16-.063.188.105-.028.015.053.105-.029zm.113.425l.043.16.063-.188-.105.028zm-.133.778l.317-.085.092-.082-.106.028-.302.14zm-.056-.213l-.106.029-.081-.093-.159.043.23.224-.159.042.014.054.159-.043-.014-.053.067.039.091-.082-.042-.16zm-.535.544l.028.106.159-.042.035-.295-.106.029-.116.202zm.349.248l.067.04.144-.097-.003-.227-.082-.092-.13.149-.053.014.057.213zm1.112 1.412l.105-.029-.028-.106-.105.029.028.106zm-2.021 1.345l.105-.029-.056-.213-.106.029.056.213zm1.04.29l-.043-.16-.211.057.042.16.211-.057zm-.17-.64l-.078.136.057.212.105-.028-.084-.32zm1.245 3.83l.148.131-.043-.16-.264.072.159-.043zm-1.198-4.927l-.028-.106.025-.12.158-.044.134.078.081.092-.028-.106.159-.043-.057-.213-.187-.063.116-.203-.211.057-.177-.238-.13.15-.095-.146-.264.072-.159.042.014.054.134.078-.105.028.148.131.053-.014-.071-.266.335.195.014.053.345.02.029.107-.106.029-.028-.107-.212.057-.049.242-.158.043-.025.12.081.093.264-.072zm.977.478l-.105.029.028.106.077-.135zm.191.291l.211-.057-.028-.106-.106.028-.24-.049.163.184zm.5-.249l-.028-.106-.134-.078.028.106.134.078zm-1.218-4.579l.043.16.211-.057-.2-.117-.054.014zm.34.422l-.202-.116-.081-.093.07.267.054-.015.014.054.158-.043.145-.096-.043-.16-.158.043.042.16zm-.17.217l.043.16.211-.057-.042-.16-.212.057zm.54.54l-.37.1.014.053.053-.015.303-.139zm-.497-.38l-.106.029.042.16.064-.189zm-1.122 5.153l-.158.043-.074.362.043.16.116-.202.073-.363zm.71 1.178l-.014-.053-.106.029.057.213.063-.189zm.268.156l-.12-.024.043.16-.078.134.029.107.21-.057-.084-.32zm1.186 1.906l-.042-.16-.078.135.12.025zm-.424-3.938l-.056-.213-.212.057.057.213-.092.082.106-.028.197-.11zm-2.548.003c-.035.01-.043.05-.024.121l.317-.085-.187-.064-.106.028zm.024 2.22l.057.213.01-.174.197-.11-.134-.079-.13.15zm.184.692c.054.061.086.11.096.145.009.036.058.08.148.131l-.114-.426-.105.029-.025.12zm.464-.81l.159-.043-.201-.117.042.16zm-.554-.593l-.105.029.24.05-.135-.079zm-.006.401l-.014-.053-.106.029.12.025zm.161-.67l.092-.082-.043-.16-.105.028.056.213zm.22 1.252l.106-.028-.134-.078-.226.004.014.053.24.05zm2.458-4.6c.533-.41 1.064-.897 1.595-1.458a14.826 14.826 0 001.51-1.777c.164-.235.319-.505.464-.81.18-.316.268-.625.263-.928.042-.125.052-.3.031-.522-.03-.258-.144-.398-.339-.422-.277-.191-.581-.128-.912.19-.305.272-.522.521-.651.746-.458.694-.847 1.503-1.168 2.426-.32.924-.585 1.775-.793 2.554z" fill="#fff"/><path d="M35.03 35.74c.319.066.59.164.814.294.724.451 1.025 1.017.904 1.696a9.064 9.064 0 00-.612.679 4.86 4.86 0 00-.56.665 11.326 11.326 0 00-1.386 2.029 15.97 15.97 0 00-.945 2.195 41.56 41.56 0 00-.787 2.153 10.551 10.551 0 00-.547 2.202c-.024.196-.054.509-.09.937-.003.42.12.671.37.756l.053-.014c.15-.003.378-.14.683-.413.305-.272.623-.567.954-.885.322-.353.63-.684.926-.992.295-.308.487-.512.573-.611.19-.28.398-.564.623-.853.225-.29.438-.556.637-.8l1.014-1.3c.293-.46.559-.95.798-1.471.23-.557.433-1.069.611-1.535.371-.024.77.058 1.199.247.453.144.767.401.941.773.067.248.094.564.083.948a9.265 9.265 0 01-.126 1.232 6.72 6.72 0 01-.23 1.26 21.76 21.76 0 00-.211.913c-.11.297-.038.353.215.17l6.744-10.208c.06-.055.229-.062.504-.022.3-.005.593.03.877.105.32.066.591.164.815.294.214.094.317.2.31.316-.016.08-.076.21-.18.39l-.347.608a6.03 6.03 0 01-.363.554c-.112.145-.181.24-.207.285-.242.37-.457.694-.648.973-.19.28-.37.595-.541.945-.12.26-.365.688-.735 1.283-.38.56-.807 1.226-1.28 2-.448.73-.94 1.51-1.474 2.339a76.384 76.384 0 01-1.502 2.231 64.506 64.506 0 01-1.246 1.706c-.338.434-.577.67-.718.708-.211.057-.384.046-.518-.032-.646-.016-1.187-.345-1.622-.989a8.913 8.913 0 01-.473-.5 1.197 1.197 0 01-.184-.692 1.23 1.23 0 00.059-.415c-.002-.152.017-.29.06-.416.06-.054.094-.14.101-.256-.002-.151-.048-.253-.138-.305-.035.01-.109.087-.221.231-.087.1-.204.227-.352.38l-.338.434c-.113.145-.164.235-.155.27-.302.424-.627.836-.974 1.234-.357.362-.696.72-1.018 1.073-.051.09-.212.267-.482.53-.234.253-.504.516-.81.789a7.979 7.979 0 01-.89.697c-.254.183-.443.253-.567.21a5.355 5.355 0 01-.829-.347c-.322-.217-.662-.43-1.02-.638a16.87 16.87 0 01-.941-.773c-.261-.271-.438-.51-.53-.713-.221-.548-.316-1.189-.284-1.92.058-.777.174-1.55.346-2.32.173-.769.391-1.512.653-2.23.253-.753.504-1.372.752-1.858.434-1.068 1.034-2.219 1.8-3.453.767-1.234 1.654-2.158 2.661-2.773zm-.602 1.36l.015.054.176.238.053-.015-.085-.319-.159.043zm-1.235 1.533l.297.262.052-.014-.028-.107-.095-.145-.12-.025-.106.029zm2.782 10.034l.078-.135-.106.028.028.107zm.362-.554l.13-.15-.014-.053-.158.043.042.16zm1.63-1.753l.212-.057-.086-.32-.183.164.057.213zm.585.07c.035-.009.062.022.081.093l.159-.043-.028-.106.052-.015-.028-.106-.211.057-.025.12zm.268.156l.081.093-.028-.107-.053.014zm.18.465l.029.107-.039.067.053-.014-.042-.16zm-.098.483l.029.107.158-.043-.028-.106-.159.042zm-.128-4.53l-.145.096.159-.043-.014-.053zm-.338.434l.042.16.212-.058-.043-.16-.211.057zm-2.544 3.425l-.053.015-.144.096.215.17.024-.121-.042-.16zm-.834.91l-.116.203.158-.043-.042-.16zm-1.418-7.035l.063-.189-.028-.106-.106.029.07.266zm.373-.729l.038-.067-.053.014.015.053zm.517-.824a.483.483 0 01.197-.11l-.029-.107-.183.164.015.053zm.65-.746l.04-.068.052-.014c.026-.045.056-.072.092-.082l-.043-.16-.264.072.124.252zm.141-.324l.159-.043c.026-.044.074-.077.144-.096l-.317.086.014.053zm.747-.6l.105-.03c-.028-.106-.065-.172-.11-.198a.49.49 0 01-.109-.199l-.13.15.187.063-.13.15.187.063zm-.156-.586c-.106.028-.163.025-.173-.01l-.028-.107-.053.014.042.16.082.092.13-.15zm-3.273 3.451l.028.107.105-.029.202.117-.159.043.014.053.388.18.173.011.038-.067-.123-.252-.264.071-.015-.053-.053.014-.017-.28-.318.085zm.893-1.325l-.028-.107-.212.057.029.107.105-.029.043.16.158-.043-.042-.16-.053.015zm-1.085 3.374l.043.16.317-.086-.043-.16-.187-.063-.13.15zm-.113-.426l.158-.042-.056-.213-.116.202.014.053zm.608-.906l-.105.029.099.372.106-.028.197-.11.035-.295-.014-.053-.106.028.014.053-.169.217-.056-.213zm-.105.029l-.029-.107-.024.12.053-.013zm-.095.71l-.148-.131-.063.188.212-.057zm-.275-.61l-.106.028.014.053.106-.028-.014-.053zm3.21 6.323l.057.213.159-.043-.095-.145-.12-.025zm-.408.167l.254.103.106-.029-.162-.184-.212.057.014.053zm.39 1.037l.21-.057-.133-.078-.078.135zm.231-.405l-.056-.213.028.106.077-.135-.014-.053-.106.028-.042-.16-.106.03-.063.187.148.132-.105.028.162.184.077-.134zm.207-1.14l.158-.043-.056-.213-.159.043.057.213zM33.49 39.75l.014.053.211-.057-.014-.053-.134-.078-.077.135zm.127.479l.077-.135-.014-.053-.105.028.042.16zm-1.025.619l.148.131.053-.014-.07-.266-.13.149zm-.19-.29l-.212.056.043.16.211-.057.12.024-.162-.184zm-.486.301l.014.054.134.078.158-.043-.187-.064-.12-.025zm2.582 8.434l.127-.377-.134-.078-.106.029.113.426zm.768-.094l.015.054.038-.068-.053.014zm1.102-1.61l-.043-.16.039-.067-.057-.213.004.228-.264.071-.039.068.042.16.318-.086zm.03-1.377l.254.103.052-.015-.042-.16-.264.072zM34.23 39.55l.046-.469.105-.028-.014-.053-.105.028-.145.096.114.426zm-1.223-.126l.043.16.158-.043-.148-.132-.056-.213.003.228zm-.718.707l.085.32.212-.057.01-.175-.042-.16-.265.072zm1.823-2.09l-.105.029.162.184-.057-.213zm2.678 8.579l.173.01.144-.096-.085-.32-.158.044-.145.096.071.266zm.408-1.023l.24.05.105-.03-.085-.319-.028-.106.211-.057.078-.135-.148-.132.042.16-.394.22.028.107.211-.057-.183.164-.077.135zm.866-.576l.078-.136-.265.072.029.106.158-.042zm.483.326l.134.078.078-.136-.029-.106-.211.057.028.107zm.863 2.392l-.126.376.211-.057-.085-.32zm-.891-2.499l.155-.27-.057-.213.37-.1-.134-.078-.106.029-.215-.17-.105.028-.064.188.148.132-.105.028.113.426zm-.505-.834l-.063.189.148.13-.085-.319zm.222-.23l.091-.083.05-.241.264-.071-.134-.078-.159.042-.155.27.043.16zm-3.57-5.542l.187.063-.2-.117.013.053zm.06-.416l.014.053.148.131.053-.014-.043-.16-.172-.01zm4.144 5.786l-.053.014.043.16.053-.014-.043-.16zm.283 1.065l-.056-.213-.053.014.056.213.053-.014zm-.756.775l.21-.057-.042-.16-.211.057.043.16zm-.086-.32l.053-.014-.056-.213-.081-.092.084.32zm-3.914-7.902l-.053.014.11.199.158-.043-.215-.17zm.416.287l-.014-.053-.303.139.201.116.106-.028.01-.174zm4.218 7.764l.19.29.201.117-.042-.16-.244-.276-.105.029zm.338 2.762l.113.426.24.049.158-.043-.028-.106-.159.042-.31-.315-.014-.053zm-2.093-2.118l.043.16.105-.028-.042-.16-.106.028zm-.152-.358l.173.01.106-.028-.12-.025-.057-.213-.158.043.056.213zm.184.692l-.187-.063.057.212.13-.149zm-6.116-4.683l.028.107.148.13-.042-.159-.134-.078zm-.127.377l.018.28-.042-.16.053-.014-.029-.106zm-.214.685c-.157.119-.22.307-.19.565l.13-.15.24.05-.028-.106-.095-.146-.014-.053.053-.014-.043-.16-.053.014zm-.485 1.158l.043.16.12.025.038-.068.015.053.158-.042-.014-.054-.159.043.088-.309-.158.043-.025.12-.106.03zm-.112.43c.02.071.01.111-.024.12-.036.01-.044.05-.025.122l.028.106.12.025.197-.11-.038.067-.13.15.085.319.183-.164.105-.029.24.05-.113-.426-.332.032-.056-.212.077-.136-.042-.16-.275.246zm-.312 1.169l-.116.202a.424.424 0 01-.01.174l.024-.12.159-.043-.057-.213zm-.277.873l.014.054.349.248.053-.014-.11-.2-.042-.159-.264.071zm-.101 1.112c.019.07.015.129-.01.174-.026.045-.035.085-.025.12l.091-.081.13-.15.025-.12-.028-.107-.053.014-.13.15zm.03 1.818l.113.426.159-.043-.057-.213.028.106.078-.135-.014-.053-.106.029-.043-.16-.158.043zm.328.596c.02.07.069.114.149.131l-.015-.053-.028-.107-.106.029zm3.517-.835c.009.035-.022.063-.092.082l-.053.014-.035.294.106-.028.13-.15-.056-.212zm-2.285-.924c-.019-.071-.003-.152.049-.242l-.106.029.028.106-.052.015.08.092zm.119-.831l-.014-.053-.11-.2-.159.044.057.213.173.01.053-.014zm.035-.295l-.043-.16c-.01-.035.003-.058.039-.067l-.053.014-.078.135.135.078zm-.033-.334c.106-.028.14-.113.102-.256l-.183.164.029.107.052-.015zm.176-.618l-.028-.106-.173-.01-.043-.16-.211.057-.063.188.148.131-.043-.16.226-.003.028.106.159-.043zm.165-.444l-.004-.227-.11-.199-.264.072.029.106-.053.014-.028-.106.288-.192-.014-.053.088-.31.07.267.16-.043.01-.174-.053.014.024-.12-.014-.054-.211.057-.159.043-.116.203-.134-.078.018.28-.264.072.2.116-.13.15.057.213.159-.043.028.106.078-.135.024-.12.106-.029.187.064.028.106zm.375-1.356a.362.362 0 00.117-.203.867.867 0 01.102-.256l-.233.405-.091.082.105-.029zm.334-.661l-.003-.228-.029-.106-.052.014.038-.067.106-.029-.043-.16-.105.029-.01.174-.303.139.028.106.053-.014.042.16-.038.067.095.146.105-.029-.042-.16.158-.042zm-2.672 5.286l.057.213.159-.043-.096-.145-.12-.025zm.18-.39l.13-.15-.029-.106-.172-.01-.106.028.014.053.163.184zm.24.049l.077-.135-.134-.078.056.213zm.218.397l-.042-.16.039-.067-.057-.213.004.227-.159.043-.144.096.042.16.317-.086zm.079.72l.187.065.13-.15-.159.043-.257-.33.099.373zm-.049-2.097l.307.088.053-.014-.043-.16-.317.086zm.445.393l.12.025.144-.096.01-.174-.08-.092-.015-.054-.158.043-.092.082.071.266zm.846-5.764l.067.04.106-.03.028.107.211-.057-.028-.106-.211.057-.057-.213.13-.15-.373-.127.042.16-.116.203.159-.043.095.145-.053.014zm.3.49l.201.117.159-.043-.148-.131.105-.029.043.16.116-.202.158-.043-.12-.025-.053.014-.144.096-.105.029-.212.057zm-.001-.856l.177.238.158-.043-.07-.266-.16.043-.013-.053-.092.081zm-1.825 3.575l.265-.072-.043-.16-.264.072.042.16zm.995.758l-.159.043.096.145.105-.028-.042-.16zm.082-2.248l.095.146-.024.12.052-.014.078-.135-.043-.16.102-.255-.042-.16-.159.043-.042-.16-.275.246-.042-.16-.134-.078-.025.12.138.306.043.16.278-.018zm-.012-1.537l.028.107.211-.057-.042-.16-.264.071.014.053.053-.014zm.444.394l-.148-.131.042.16.106-.03zm.15.987l-.036.294.106-.028-.07-.266zm-.192-.291l.106-.029-.056-.213-.106.029.056.213zm-.506.65l-.148-.131-.159.043.23.223.105-.029-.028-.106zm-.074.362l-.056-.213-.106.029-.187-.064-.024.121.109.199.173.01.091-.082zm-.442 1.318l-.081-.092-.13.15.186.063.025-.12zm.074.494l-.028-.107-.158.043.028.106.158-.042zm1.357-2.992l-.053.014-.144.097.159-.043.038-.068zm1.01 7.203l.105-.028-.158.043.042.16.01-.175zm-2.123-3.935l.24.05-.029-.107-.211.057zm.085.32l-.057-.213-.077.135-.212.057.029.106.317-.085zm-.504.022l.024-.121-.028-.107-.024.121.028.107zm.815 3.489l-.13.15.028.106.236-.178-.029-.107-.105.029zm.545-9.449l-.091.082-.01.174.042.16.08.092-.027-.107.049-.241-.029-.107.159-.043-.173-.01zm1.554 8.825l.114.426.292.035.053-.014-.028-.107-.053.015-.364-.302-.014-.053zm-.763 1.176l.144-.096-.08-.092-.064.188zm-.61-.805l.095.145.105-.028-.148-.131-.053.014zm9.917-2.107c.052-.09.095-.14.13-.15a.362.362 0 00.117-.202l-.071-.266-.039.068-.165.444-.053.014.029.106.052-.014zm2.266-3.408l.13-.149-.158.043-.078.135.106-.029zm.102-.255l.144-.096-.106.028-.038.068zm1.787-2.651l-.029-.107.078-.135-.159.043.029.106.08.093zm-1.076-.851l-.05.241.106-.028-.056-.213zm-.232.405l.056.213.106-.029-.162-.184zm-.208.284l-.362.554.028.107.26-.299-.13.15.029.106.158-.043-.056-.213.13-.149.183-.163-.028-.107-.212.057zm-.7.988l.043.16.105-.029-.028-.106-.12-.025zm-2.072 3.07l-.039.068.096.145.158-.043-.042-.16-.173-.01zm-1.257-2.171l-.043-.16-.158.043.042.16.159-.043zm.045-.469l.078-.135-.159.043.028.106.053-.014zm.05-.242l-.03-.106-.105.029.029.106.105-.029zm4.921-.872l-.085-.32-.158.043.053-.014-.081-.092-.106.029-.134-.078.056.213.106-.029-.077.135.056.213-.197.11.043.16.12.025-.13.15.095.145-.039.067-.211.057.24.05.13-.15.21-.057-.162-.184-.042-.16.063-.188-.12-.025.37-.1zm-1.369 1.454l.028.107.184-.164-.24-.05-.106.03-.024.12.158-.043zm-.06-.44l-.053.014.028.107.025-.121zm.349.248l.053-.014.077-.135.159-.043-.057-.213-.173-.01-.158.042.099.373zm.443-1.318l-.029-.106-.053.014.029.106.053-.014zm.07.266l-.014-.053-.053.014.014.054.053-.015zm.327-1.115l-.106.029.014.053-.053.014.081.092.043.16.014.053.264-.071-.172-.01-.106.028.063-.188-.042-.16zm-1.202 2.721l.186.064.015.053.01-.174-.268-.156.057.213zm1.963-2.413l.159-.043-.029-.106-.158.043-.159.042.057.213.053-.014.077-.135zm-.243-.277l.095.146.106-.029-.043-.16-.187-.063.029.106zm.161-.67l-.293-.036-.052.014.056.213.159-.043.13-.149zm-.161.67l-.244-.276.057.213.187.063zm-2.63 3.107l.043.16.212-.057.063-.189-.317.086zm.057.213l-.12-.025-.158.043.014.053-.024.12.095.146.173.01.091-.08-.07-.267zm-.329 1.744l.106-.029.13-.15-.172-.01-.043-.16-.063.189.042.16zm-1.208.782l-.105.029.056.213.134.078.159-.043-.244-.277zm-1.229-5.26l.081.092.106-.029-.176-.237-.053.014.042.16zm-.458-.447l.067.039.105-.029-.12-.024-.052.014zm-.007.401l.07.266.106-.028.071.266.317-.086-.014-.053-.373-.127-.177-.238zm.297 1.118l.043.16.106-.029-.043-.16-.106.03zm2.028 3.79l-.053.014.028.107.081.092-.056-.213zm-2.41-5.227l-.13.149-.029-.107-.158.043.085.32.159-.043-.015-.053.279-.019-.085-.319-.12-.025-.201-.117-.159.043.043.16.158-.043.173.01zm-.005 1.257l.302-.14.035-.294-.014-.053-.264.071-.01.174-.064.188.015.053zm1.903 3.537l-.014-.053-.106.029.057.212.063-.188zm.297.263l-.159.042-.024.121.028.107.053-.015.102-.255zm.288-.193l-.13.15.159-.043-.029-.107zm.439-1.545l-.053.015.043.16.053-.015-.043-.16zm.219.398l.025-.12-.082-.093.057.213zm.24.905l-.003-.227-.014-.053-.039.067.057.213zm3.068-4.651l.183-.164-.014-.053-.211.057.042.16zm1.136-1.905l.025-.12-.053.014.028.106zm1.087-1.663l.17-.217-.16.043-.01.174zm.17-.217a.638.638 0 01.063-.188l.115-.203-.028-.106-.077.135-.063.188-.053.015.042.16zm.421-.97l-.081-.092.085.32-.004-.228zm-.56-.19l-.135-.079.106-.028-.077.135-.053.014-.116.203.158-.043.096.145.105-.028.078-.135-.163-.185zm-.519-.032l-.169.217.212-.057.077-.135-.12-.025zm-.323.487l-.183.163.12.025.091-.082-.028-.106zm-.532.77l.043.16.067.04-.053.014-.088.309.159-.043.01-.174.264-.071-.186-.064.158-.043-.056-.213-.318.086zm-.337.434l-.127.377.043.16-.159.043.043.16.053-.015.077-.135.042.16-.116.202.029.107.13-.15.345.021.078-.135-.043-.16.264-.07-.056-.214-.212.057-.01.174-.212.057-.028-.106-.12-.025-.07-.266.091-.082-.042-.16zm-.982 1.635l-.091.082-.025.12-.158.043.2.117.015.053.053-.014-.014-.053.12.025.07.266.106-.029.176.238.159-.043-.014-.053-.215-.17-.134-.078.063-.188-.057-.213.106-.029-.134-.078-.226.004zm2.862-2.656l.106-.028-.028-.107-.106.029.028.106zm-.461.182l.091-.082.212-.057-.187-.064-.13.15.014.053zm-1.192 2.547l.197-.11-.155-.586-.106.029-.077.135.042.16-.36-.075.086.32-.106.028.162.185.043.16.186.063.053-.014-.08-.092.115-.203zm-.697.36l.134.078.158-.043-.229-.224-.106.029.043.16zm.08-.764l-.159.043-.063.188.014.053.265-.071-.057-.213zm.538-1.172l.085.32.063-.19-.043-.159-.105.029zm.786.187l-.067-.039-.043-.16.13-.149-.172-.01.042.16-.116.202.159-.043.014.053.053-.014zm-1.704 1.259l.014.053.106-.028-.12-.025zm1.872-2.332l.105-.028.04-.068-.082-.092.053-.014-.043-.16-.158.043.085.32zm.028.107l.043.16.158-.043-.095-.146-.106.029zm.233.45l-.042-.16-.134-.077.07.266.12.025.053-.014-.056-.213-.01.174zm-.063.189l.042.16.159-.043-.043-.16-.158.043zm-.009-1.31l-.172-.01-.039.067.081.092.159-.043-.029-.106zm.051 1.47l-.105.028-.092.082.134.078.063-.188zm-2.157 2.75l.145-.096.035-.294-.014-.054-.106.029-.19-.291.056.213.134.078-.106.028-.01.174.056.213z" fill="#fff"/><path d="M55.829 40.339l5.357-8.18c.061-.054.23-.062.504-.022.266.005.54.044.825.12.32.066.608.159.867.28.25.084.37.185.363.3l-.232.406-.348.607a6.03 6.03 0 01-.362.555 3.259 3.259 0 00-.208.284c-.206.36-.422.684-.647.974-.19.279-.388.599-.595.959-.119.26-.364.688-.735 1.282-.38.56-.806 1.227-1.28 2.001-.448.73-.94 1.51-1.474 2.338a76.787 76.787 0 01-1.502 2.232 64.32 64.32 0 01-1.245 1.706c-.338.433-.578.669-.718.707a.589.589 0 01-.504.022 5.985 5.985 0 01-.55-.365l-.488-.553a2.834 2.834 0 01-.353-.476c-.235-.317-.379-.715-.431-1.196-.129.225-.353.59-.672 1.095a13.63 13.63 0 01-.97 1.46c-.364.479-.742.904-1.134 1.276-.366.327-.678.43-.937.31a5.358 5.358 0 01-.829-.347c-.322-.217-.661-.43-1.019-.638a16.6 16.6 0 01-.942-.773c-.26-.271-.42-.514-.476-.727-.222-.549-.317-1.189-.285-1.92.058-.777.174-1.55.347-2.32.172-.769.39-1.512.652-2.23.288-.763.557-1.387.805-1.872.204-.512.451-1.073.742-1.684.29-.611.626-1.196 1.006-1.755a15.02 15.02 0 011.288-1.546 8.005 8.005 0 011.425-1.241c.32.066.592.164.815.293.653.47.955 1.036.904 1.697a6.101 6.101 0 00-.665.693 9.08 9.08 0 00-.613.679c-.476.623-.92 1.294-1.333 2.014-.422.685-.79 1.431-1.104 2.239-.201.663-.41 1.366-.628 2.11a12.845 12.845 0 00-.494 2.187c-.024.197-.054.51-.09.938-.003.419.12.67.37.756l.053-.015c.265.005.546-.147.842-.455.33-.318.56-.589.69-.814.311-.389.592-.826.84-1.311l.823-1.592c.284-.495.527-.998.731-1.51.239-.52.486-1.082.742-1.684.687-4.94 1.344-9.854 1.97-14.74.661-4.897 1.321-9.868 1.98-14.916.059-.206.175-.408.348-.607.21-.209.42-.266.634-.172.26.12.573.378.942.773.36.36.578.681.653.965L55.83 40.34zm-1.57-7.394l-.04.068.054-.015-.014-.053zm-.165 1.3l-.034.294.077-.135-.043-.16zm-.045.468l.043.16.053-.014.168-.217-.24-.05.029.107-.053.014zm2.15 8.722l.116-.203-.173-.01.057.213zm2.304-3.476l.025-.12-.053.014.028.106zm.155-.27l.077-.135-.106.029-.13.15.159-.044zm.337-.433l.01-.174-.052.014-.092.082.106-.029.029.107zm.605-1.134l.208-.284-.106.029-.187-.064-.053.014.11.199.158-.043-.13.15zm.232-.405l.145-.096-.159.043-.042-.16.116-.202-.159.043.015.053-.053.014.08.092.043.16.014.053zm.338-.433l-.056-.213-.064.188.12.025zm-.864-.908l-.26.298.09-.081.212-.057-.042-.16zm-.43.515l-.077.135.106-.028-.029-.107zm-.84 1.311l-.155.27.268.156-.028-.106.024-.12-.081-.093-.028-.107zm-.845 1.084l-.024.121.052-.014-.028-.107zm-.204.512l-.105.028.028.107.077-.135zm-.183.163l-.077.136.106-.029-.029-.106zm-1.659.79l-.056-.212-.053.014.056.213.053-.014zm.118-1.686l-.24-.05.029.107.211-.057zm.945-8.586l.106-.03-.191-.29-.24-.05-.105.03.028.106.106-.029.296.262zm.15-1.354l-.028-.106-.053.014.028.107.053-.015zm.102-.255l.077-.135-.028-.107-.106.029.057.213zm2.243 10.35l-.053.015.028.106.025-.12zm-.156-.585l.159-.043-.029-.106-.158.042.028.107zm.895-.47l-.029-.106-.21.057.027.106.212-.057zm-.035.295l-.014-.053-.106.028.014.053.106-.028zm.607-1.762l-.028-.106-.077.135.028.106.077-.135zm.401-.622l.318-.085-.029-.107-.331.032-.039.068.081.092zm.258.33l.116-.202-.172-.01-.16.042.12.025-.105.028.042.16.16-.043zM55.238 29.6l-.264.071.042.16.159-.043.063-.188zm1.238-2.16l-.014-.053-.106.028.014.053.106-.028zm-.4 14.26l.03.106.21-.057-.028-.106-.134-.078-.211.057.028.106.106-.028zm-1.62-6.525l-.12-.024-.149-.131.043.16.12.024.105-.029zm-.17.217l-.053.015.043.16.01-.175zm-.056.643l.159-.043.01-.174-.028-.106-.025.12-.115.203zm.386.81l.053-.015-.043-.16-.01.174zm.883-1.152l-.159.042.014.054.159-.043-.014-.053zm.285-2.76l-.077.135.063-.188.014.053zm-.204-.344l-.197.11.042.16.053-.014.116-.203-.014-.053zm-.454.636l-.134-.078.028.107.106-.029zm-.619 4.276l.12.025-.014-.053-.106.028zm.302 2.201l.043.16.053-.014-.043-.16-.053.014zm2.87.139l-.03-.107-.08-.092.028.107.081.092zM55.24 28.97l-.015-.053-.105.029.014.053.106-.028zm.274 2.95l-.049.242.106-.028-.004-.227-.053.014zm-.218-.397l-.173-.01-.053.014.085.32.053-.015.087-.309zm0 .856l.096.146.158-.043.064-.188-.332.032.014.053zm.125 1.108l.173.01-.014-.053-.159.043zm.1.372l.042.16.187.064-.029-.107-.2-.117zm.908 8.315l.063-.188-.36-.075-.105.03.028.106.12.024.254.103zm.855-1.258l-.106.029.042.16.106-.03-.042-.159zm-9.647-3.901l-.13.15.215.17.028.106.025-.121-.043-.16-.095-.145zm5.229 4.751l-.015-.053.025-.12-.374-.128-.053.014.029.107.08.092.135.078.172.01zm.401-2.961l-.13.149.215.17.053-.014.049-.242-.028-.106-.159.043zm-.267.7c-.173.198-.254.392-.242.578l.028.107.102-.256-.078.135.029.107.106-.029-.057-.213.183-.163.077-.135-.028-.107-.106.029-.014-.053zm-.619 1.08l.029.106.13-.15-.159.044zm-1.87-5.544l.063-.188-.043-.16-.225.004-.106.028.014.053.106-.028.19.29zm.429-.516c-.029-.106.01-.174.116-.202l.13-.15-.264.072.028.106-.053.015.043.16zm1.64 6.805l.028.107.183-.164-.081-.092-.159.043-.077.135.105-.029zm.098-.483l-.053.014.028.107.025-.121zm.633-1.027l-.029-.106-.105.028.028.107.106-.029zm.07.266l-.014-.053-.105.029.014.053.105-.029zm-2.376-7.233l-.106.029.028.106.106-.029-.028-.106zm.082.948l-.159.043-.091.081-.01.174.028.107.052-.014.18-.391zm.123-.604l-.135-.078.029.107.106-.029zm-3.645 5.892l-.067-.04-.105.029.12.025.052-.014zm.865-2.288l-.12-.025-.201-.117.042.16.173.01.106-.028zm.021.508l.029.106.105-.029-.134-.078zm-.243-.277l-.053.014.043.16.01-.174zm-.003.628l.106-.028.01-.174-.028-.107-.025.121-.063.188zm1.554-3.101l-.13.149.116-.202.014.053zm-.258-.33l-.144.096.043.16.052-.015.064-.188-.015-.053zm-.4.622l-.135-.078.029.106.105-.028zm.824.12l.12.024.159-.043-.014-.053-.293-.035.028.106zm-.475.128l.12.025-.015-.054-.105.029zm.099.373l.042.16.134.077-.028-.106-.148-.132zm1.324 8.601l-.105.029-.025.12.053-.014.077-.135zm-4.385-4.351a372 372 0 00-.155.27 2.16 2.16 0 00-.035.295l.275-.246.042.16.081.092.13-.15-.215-.17-.07-.265-.053.014zm-.38 1.13l-.063.188.106-.029-.042-.16zm-.094.71c-.07.019-.122.109-.154.27l.24.049-.03-.106.078-.135-.134-.078zm-.305.767l.014.053-.025.12.057.214.053-.014.073-.363-.014-.053-.158.043zm1.624 2.7l-.014-.053-.106.028.014.053.106-.028zm-.1-.373l-.056-.213-.091.082.042.16.106-.029zm0-.855a.616.616 0 01-.018-.28l-.025.12-.105.028-.134-.078-.078.136.043.16.225-.005.092-.081zm-.877-2.446l-.014-.053-.106.029.014.053.212-.057-.106.028zm-.18.391l.057.213.053-.014-.028-.107-.081-.092zm1.11-.3l-.028-.106-.106.028.029.107.105-.029zm.071.267l-.014-.054-.106.029.014.053.106-.028zm-.154-2.07l-.081-.092-.264.071.032.334.053-.015.091-.081.212-.057-.043-.16zm-.75 3.57l.134.077.081.092.12.025-.042-.16-.215-.17-.106.029.028.106zm2.637 3.738l.081.093.078-.136-.159.043zm-.549.49l.01-.173-.067-.04-.105.03.014.053.105-.029.043.16zm-.247-.503l.105-.029-.028-.106-.148-.131.07.266zm-.51-1.061l.212-.057-.014-.053-.144.096-.053.014zm-.295-.262l.091-.082-.028-.107-.212.057.029.107.12.025zm-.6-.124l.06-.415-.159.042-.06.416-.158.043.187.063.13-.149zm6.01-2.535l.042.16.106-.029-.043-.16-.105.029zm-.032.522l-.083.536.105-.029.078-.135.006-.4-.105.028zm.362 1.785l.014.053.092-.081-.106.028zm1.336.553l.106-.029-.042-.16-.12-.024-.106.028.014.053.106-.028.042.16zm.888-3.265l.12.025.053-.014-.096-.145-.077.134zm-1.64-3.609l-.105.029.014.053-.053.014.081.093.064-.189zm-.02.349l.014.053.211-.057-.225.004zm.196-.967l-.028-.106-.078.135.029.106.077-.135zm.481 1.81l-.21.058-.064.188.12.025.134.078.077-.135-.056-.213zm.39 1.893l-.105.028.24.05-.135-.078zm-.006.4l-.014-.052-.106.028.12.025zm-.876-1.589l-.028-.106-.106.028.028.107.106-.029zm.248 1.36l-.028-.107-.053.015.028.106.053-.014zm-.588.558l-.014-.053-.105.028.003.227.053-.014.063-.188zm.283 1.065l-.133-.078-.025.12.158-.042zm-.252.753l-.039.067.053-.014-.014-.053zm.78-4.947l.134.078-.057-.213-.106.029.029.106zm-.17-.639l.148.131-.042-.16-.135-.077.029.106zm0 0l-.19-.29-.064.187.12.025.134.078zm.956 4.022l.106-.029-.134-.078-.226.004.014.053.24.05zm-.805-1.324l.043.16.105-.028-.148-.132zm-.326 1.116l.221-.231-.067-.04-.158.043-.081-.092-.064.188.043.16.106-.028zm.214 2.51l.106-.029-.028-.106-.149-.132.071.267zm-.456-1.076l.159-.042-.014-.054-.092.082-.053.014z" fill="#fff"/><path d="M91.263 31.058a3.168 3.168 0 00-.017.576l.156.585c-.551.34-1.096.563-1.634.67-.547.072-1.077.138-1.59.2-.105.03-.167.008-.186-.063l-.043-.16.004-2.968c.036-1 .113-1.99.229-2.972a79.19 79.19 0 01.527-4.194c.198-1.385.454-2.767.767-4.145l.189-1.42c.053-.51.146-1.01.28-1.503-.057-.213.005-.477.186-.792a.492.492 0 01-.004-.227c.042-.125.054-.224.035-.295a.493.493 0 00-.004-.227.77.77 0 00-.138-.305c-.115-.007-.263.147-.443.462-.19.28-.384.617-.58 1.013-.172.35-.325.696-.461 1.037-.145.306-.23.48-.257.526a50.01 50.01 0 00-1.532 3.61 634.127 634.127 0 00-1.388 3.512 106.404 106.404 0 00-1.81 4.483 68.248 68.248 0 00-1.45 4.558l-.856 5.937a3.806 3.806 0 01-1.22.101 2.704 2.704 0 01-1.268-.513c-.224-.13-.373-.337-.449-.62a1.666 1.666 0 01.038-.924 468 468 0 011.513-11.137c.566-3.69 1.083-7.425 1.551-11.204l-19.58 6.028-.159.043a97.85 97.85 0 01-.374-.983 3.318 3.318 0 01-.217-1.026 1.93 1.93 0 01.158-.899c.12-.26.373-.443.76-.547 3.47-1.013 6.873-1.989 10.21-2.928 3.337-.939 6.74-1.915 10.21-2.927l.042.16.317-.086c.224.13.52.392.89.787.369.395.591.734.667 1.018l-1.2 9.968c.233-.824.507-1.64.82-2.447.35-.817.694-1.652 1.034-2.504.7-1.483 1.441-2.957 2.222-4.424a46.02 46.02 0 012.596-4.295c.051-.09.21-.343.478-.757.267-.415.548-.852.84-1.312.294-.46.579-.878.856-1.257.302-.425.497-.686.584-.786a1.893 1.893 0 011.272-.115c.48.099.965.291 1.456.577.124.042.19.215.194.518a5.82 5.82 0 01-.076.99 7.612 7.612 0 01-.235 1.034c-.065.322-.124.528-.175.618a26.33 26.33 0 01-.701 3.328l-.85 3.197-.877 3.09c-.257 1.02-.522 2.081-.796 3.182a.697.697 0 00-.088.31c-.016.08-.045.183-.087.308.473-1.345.955-2.654 1.447-3.928a781.14 781.14 0 011.592-4.025 68.33 68.33 0 011.434-3.127 64.441 64.441 0 012.043-4.032 41.487 41.487 0 012.272-3.809c.821-1.173 1.563-2 2.227-2.485.306-.272.72-.346 1.244-.221a7.54 7.54 0 011.414.417c.179.104.254.388.226.852-.037.428-.099.902-.188 1.42a23.77 23.77 0 01-.347 1.464c-.108.447-.16.747-.158.898a69.429 69.429 0 01-1.094 4.404 1678.29 1678.29 0 01-1.32 4.408 27.97 27.97 0 01-.572 2.323 21.255 21.255 0 00-.585 2.27 12.805 12.805 0 00-.449 2.574 50.13 50.13 0 00-.155 2.61 33.228 33.228 0 00.009 4.506c.14 1.522.355 2.967.643 4.335.118.728.214 1.444.288 2.147.109.694.258 1.395.446 2.105-.032.161-.185.298-.457.41a9.956 9.956 0 01-.966.203l-1.007.044c-.301.005-.51.004-.624-.003-.125-.043-.247-.219-.367-.529-.13-.345-.271-.593-.424-.741a6.514 6.514 0 01-.192-1.147 6.82 6.82 0 00-.206-1.2c-.073-.703-.13-1.41-.168-2.123a22.969 22.969 0 00-.25-2.215 36.409 36.409 0 01.095-3.906c.137-1.33.256-2.656.358-3.977.163-1.376.379-2.765.647-4.17l.806-4.212a9.42 9.42 0 01.27-1.328c.142-.457.245-.922.308-1.396.023-.196.056-.357.098-.482a2.35 2.35 0 00.204-.512l-.028-.107c-.01-.035.024-.12.101-.255l-.042-.16c-.134-.078-.365.118-.694.587a18.31 18.31 0 00-.956 1.513 44.98 44.98 0 00-.943 1.567l-.464.81c-.3.576-.56 1.16-.78 1.752-.23.556-.464 1.095-.703 1.616-.263.718-.52 1.453-.773 2.206a64.423 64.423 0 00-.797 2.327 70.179 70.179 0 00-1.44 4.383 235.294 235.294 0 01-1.359 4.475zm11.058-18.906l-.211.057.253.103-.042-.16zm-.355 1.009l.169-.217-.211.057.042.16zM99.84 27.316l-.116.203-.158.043.042.16-.211.056.254.103.158-.043-.042-.16.158-.042-.085-.32zm-.025-.735c.106-.028.125-.167.06-.415l-.16.043.1.372zm.118-1.686l-.159.043.043.16.116-.203zm.156-1.755l-.211.058-.1-.373-.158.043.057.213.2.117.043.16.169-.218zm-.042-.16a.6.6 0 01-.018-.28.55.55 0 00.035-.294l-.116.202-.17.217.057.213.212-.057zm.107-1.512c-.028-.107-.004-.227.074-.362l-.116.202.042.16zm.395-2.56l-.158.042.201.117-.043-.16zm.243-.58l-.159.043-.169.217.212-.057.042.16.074-.362zm.245-1.207l-.211.057.056.213.212-.057-.057-.213zm-5.438-2.983l.159-.043-.043-.16-.116.203zm3.457 5.972l.271-.473-.056-.213-.37.1.156.585zm-.228.632l.212-.057-.043-.16-.169.217zm.085.32l.212-.058-.17.217.269.156.102-.256.169-.217-.37.1-.043-.16-.254-.102.085.32zm-.319 1.569l-.116.203.159-.043.2.117.16-.043.21-.057-.042-.16-.254-.103.043.16-.201-.117-.159.043zm-.048 1.097l-.042-.16.158-.042-.042-.16-.159.043.085.32zm-.112.43l.211-.057-.268-.156.212-.057-.043-.16-.211.057.042.16.057.213zm-.192 1.193l.042.16.159-.043-.043-.16-.042-.16-.116.203zm-.076 1.847l.116-.203-.158.043.042.16zm-2.858-12.24l.158-.042-.042-.16-.116.203zm-.288 1.048l-.159.043.043.16.158-.043-.042-.16zm3.367 13.3l.159-.042-.043-.16-.116.202zm.514-3.391l-.116.202.159-.042.042.16-.06.415.16-.043.412.06-.043-.16-.215-.17.116-.203-.37.1.17-.216-.255-.103-.056-.213-.201-.117.158-.043-.042-.16-.116.203-.318.086.1.372.475-.128zm-.154-2.07l.142.533.116-.203-.042-.16.359.074-.142-.532-.2-.117.042.16-.159.043-.116.202zm.122-1.46l.254.103.116-.202-.057-.213-.102.255-.056-.212-.155.27zm.27-.472l.255.103.158-.043-.042-.16-.159.043-.254-.103.043.16zm.354.475l-.043-.16-.211.058.254.102zm.015.91l-.159.042.201.117-.042-.16zm.025.734l.159-.042-.043-.16-.158.043.042.16zm-.086 1.165l-.043-.16-.158.043.116-.202-.071-.267-.088.31-.07-.267.115-.202-.475.128-.17.217-.158.043.071.266.159-.043-.071-.266.37-.1.198.745.36.075-.159.042.057.213.158-.042-.056-.213.215.17.112-.43-.211.057-.201-.117zm-.232.405l-.043-.16-.158.043.042.16.159-.043zm-.287-.436l-.168.216.211-.057-.043-.16zm.386.809l-.043-.16-.158.043.042.16.159-.043zm-.493-2.492l-.159.043-.116.202.317-.085-.042-.16zm-.581 3.352l.254.103-.043-.16.102-.255-.158.042-.043-.16-.169.217.057.213zm.908 1.924l-.043-.16-.158.043.042.16.159-.043zm-.136-1.79l.116-.202-.159.043.043.16zm.526 1.342l-.056-.213-.159.043.216.17zm.282-6.182l-.211.057.042.16.212-.057-.043-.16zm-.025-.735l-.159.043.043.16.158-.043-.042-.16zm-.386-.81l.043.16.159-.042-.043-.16-.159.043zm.357 12.63l-.102.256.159-.043-.057-.213zm-1.215-5.207l-.158.042.042.16.159-.043-.043-.16zm.58 1.327l-.212.057.043.16.169-.217zm.198.745l.159-.043-.114-.425-.158.042.113.426zm1.034 3.887l.215.17-.057-.213-.158.043zm-1.331-5.005l.2.117-.042-.16-.158.043zm-.11-1.054l.042.16.116-.203-.159.043zm.016-.575l-.158.042.215.17-.057-.212zm.643 1.139l-.159.042-.099-.372-.102.255.085.32.317-.086-.042-.16zm.412.06l-.2-.117-.212.057.042.16.37-.1zm.934-12.464l-.201-.117-.212.057.254.102.042.16.117-.202zm-1.016 5.124l.158-.042-.056-.213-.159.042.057.213zm-.165-1.895l-.102.255.057.213.102-.255-.057-.213zm.023 1.363l.042.16.318-.086-.043-.16-.317.086zm-.334-2.535l.254.103-.043-.16-.211.057zm.285-.42l.158-.042-.215-.17-.042-.16-.116.203.215.17zm.286.437l-.159.043-.116.203.057.212.158-.042.102-.256-.042-.16zm.167 1.268l.215.17-.057-.213-.158.043zm-.026-.735l.201.117.159-.043-.043-.16-.317.086zm.319-1.57l-.201-.117.043.16.158-.043zm-.252-1.587l.159-.043-.201-.117.042.16zm.099.373l.043.16.158-.043-.042-.16-.159.043zm.656.336l.042.16.159-.043-.042-.16-.159.043zm.116-.202l.159-.043-.201-.117.042.16zm-.351-1.96l-.159.043.057.213.158-.043-.056-.213zm-9.896 9.006l-.2-.117-.16.043.043.16.159-.043.2.117-.042-.16zm.511-2.763l.17-.217-.255-.102.085.319zm.345-.835l-.159.043.043.16.116-.203zm.694-2.926l-.158.042.042.16.159-.043-.043-.16zm-2.735 5.474l-.043-.16-.158.043.042.16.159-.043zm.642.284l.2.117-.099-.373-.215-.17-.154.27.056.213.212-.057zm.05-1.726l-.116.203.159-.043-.043-.16zm.803-.388l-.042-.16-.159.043.201.117zm-.954 3.225l.158-.043-.2-.117.042.16zm.966-8.079l-.042-.16-.212.058.043.16.211-.058zm.234 3.647l.073-.363-.158.043-.017.575.102-.255zm-.32 1.57l-.042-.16-.116.202.159-.043zm-.812-1.779l.116-.202-.215-.17.1.372zm-.186.792l-.056-.212-.102.255.158-.043zm.519 3.227l.158-.043.102-.255-.042-.16-.159.043-.116.202.057.213zm1.191-5.742l-.043-.16-.158.043.043.16.158-.044zm.22-1.943l-.159.043.043.16.158-.043-.042-.16zm.385.81l.158-.044-.085-.32-.158.044.085.32zm-.27-1.012l.202.116-.043-.16-.158.043zm1.114 5.463l.102-.256-.043-.16-.116.203.057.213zm-1.023 2.33l.201.117.1.373.158-.043.102-.256-.043-.16-.158.043-.043-.16-.2-.116-.117.202zm-.228.632l.2.117-.042-.16-.158.043zm-.09.938l.158-.043.06-.415-.16.042-.115.203.056.213zm-.328.26l.211-.058.402.234.159-.043.158-.042-.085-.32-.158.043.042.16-.2-.117-.36-.074-.17.216zm.085.319c-.106.028-.15.078-.13.15l.07.265-.158.043.028.107c.01.035-.024.12-.102.255l.159-.042.158-.043-.042-.16-.043-.16.314-.313-.085-.319-.212.057.043.16zm-.408 1.023l.159-.043.116-.202-.159.042-.116.203zm.197 2.23l-.159.042.043.16.116-.203zm.418-1.197l-.159.042.043.16.116-.203zm.304-1.624l-.116.203.159-.043-.043-.16zm.52-1.453l.116-.202-.158.043-.043-.16-.116.203.201.117zm.577-1.24l-.043-.16-.158.044.2.117zm.42-1.825l.117-.202.168-.217-.211.057-.159.043.085.32zm.243-.579l-.169.217.211-.057-.042-.16zm.562-1.293l-.158.043.056.213.102-.256zm3.698 12.412l.2.117.16-.043-.043-.16-.159.043-.215-.17.057.213zm-5.56-7.059l-.042-.16.102-.255-.158.042-.155.27.254.103zm-1.079 2.117l-.042-.16-.116.203.158-.043zm.074-.362l.528-.142-.268-.156.212-.057-.043-.16-.211.057.042.16-.2-.117.042.16-.159.042.057.213zm.288-1.047l-.271.472.2.117.17-.217-.1-.372zm.74-2.54l.201.117-.042-.16-.159.043zm-1.248 5.53l-.056-.213-.159.043.215.17zm-.099-.373l-.042-.16-.159.043.043.16.158-.043zm-.127-.48l-.116.203.158-.042-.042-.16zm.158-.042l-.07-.266-.046.469.116-.203zm3.341-8.948l-.159.043.057.213.102-.256zm-.37.1l.212-.057-.043-.16-.169.217zm.084-.536l.043.16.317-.086-.201-.117-.159.043zm5.028 14.22l-.042-.159-.159.043.043.16.158-.043zm.204 2.685l.159-.043-.1-.373-.101.256.042.16zm-9.332-6.554l-.159.043.215.17-.056-.213zm-.009-1.31l-.042-.16.211-.057-.142-.532-.211.057-.116.202.057.213.158-.042-.116.202-.074.362.202.117.073-.362zm.097-1.339c.106-.028.145-.096.116-.202l-.116.202-.211.057-.212.057.268.156.212-.057-.268-.156.211-.057zm-4.653-6.847l.212-.057-.043-.16-.211.057.042.16zm-.752 1.858c-.07.019-.114.069-.13.15a.864.864 0 01-.102.255l.232-.405zM83.53 24.13l.201.117-.042-.16.211-.057-.268-.156-.102.256zm.597.752l-.043-.16-.211.057.042.16.212-.057zm.717-1.563l-.043-.16-.158.043.156.585.045-.468zm.147-.725l-.159.043.043.16.159-.043-.043-.16zm1.483-3.368l-.158.043.042.16.116-.203zm2.646 5.05l.158-.043-.042-.16-.116.203zm-.118 1.686l.159-.043-.216-.17.057.213zm.026.735l.158-.042.201.116-.042-.16.102-.255-.043-.16-.476.129-.042-.16.142.532zm-.117.203l.201.117-.084-.32-.159.043.042.16zm-.126.376l.211-.057-.085-.32-.126.377zm0 0c.01.036-.002.134-.035.295a.426.426 0 00-.01.174l.2.117.17-.217-.212.057-.113-.426zm1.732 4.383l-.158.043.2.117-.042-.16zM85.293 21.6l-.1-.372-.316.085.257.33.159-.042zm-1.652 3.585l.158-.043-.2-.116.042.16zm1.208-3.122l.17-.217-.255-.103-.073.362.158-.042zm-.274.245l-.043-.16-.116.203.159-.043zm-.516 1.68l-.057-.213-.158.043.056.213.159-.043zm-.017.575l.158-.043-.056-.212.116-.203-.159.043-.116.202.057.213zm4.934 6.2l.211-.056-.085-.32-.211.057-.116.203.201.117zm.672-1.094l-.254-.102.211-.057-.042-.16.158-.043-.042-.16-.486.303.042.16.043.16.37-.1zm.182 2.177l-.158.043.2.116-.042-.16zm.367-2.667l-.043-.16-.158.043.042.16.159-.043zm-.534-4.136l.159-.043.043.16.21-.057-.042-.16-.211.057-.043-.16.155-.27-.412-.06.042.16.1.373zm.54-.317l.158-.043-.057-.212-.37.1.268.155zm-1.194 4.032l.412.06.043.16.158-.044-.042-.16-.201-.116-.413-.06.043.16zm.337-3.63l-.042-.16-.211.058.042.16.211-.057zm.593 3.72l.159-.042-.085-.32-.074.363zm.074-.361l-.043-.16-.158.043.042.16.159-.043zm.07-.59l-.043-.16-.169.217.212-.057zm-.72-3.344l.043.16.158-.043-.2-.117zm.227.852l-.159.043.043.16.158-.043-.042-.16zm.283 1.065l-.159.043.043.16.158-.043-.042-.16zm-.22 1.942l.159-.042.102-.256-.159.043-.402-.234.043.16-.159.043-.042-.16.317-.086-.043-.16.116-.202.043.16.2.117-.084-.32-.159.043-.158.043-.116.202-.043-.16-.116.203-.211.057.184.692.155-.27.317-.085.056.212zm-.46 1.038l-.043-.16-.158.043.042.16.159-.043zm-2.846-10.702l-.159.043.043.16.116-.203zm.017-.575l.154-.27.159-.043-.37.1.057.213zm.214-.686l-.159.043.043.16.158-.043-.042-.16zm.291-.82l-.101.256.158-.043-.057-.213zm2.839 7.052l.099.372.169-.217-.057-.213-.211.058zm.367 6.92l.159-.044-.085-.319-.159.043.085.32zm-1.015-.411l.317-.086-.057-.213-.2-.117-.16.043.1.373zm1.507-1.149l-.116.203.042.16.159-.044.116-.202-.043-.16.159-.043-.043-.16-.158.043-.057-.213-.158.043.099.373zm.127.48l.116-.203-.158.042.042.16zm-.06.415l-.041-.16-.212.057.043.16.21-.057zm-8.432-11.476l.169-.217-.211.057.042.16zm.218 2.737l.043.16.158-.043-.2-.117zm.126-3.572l.159-.043-.36-.074.201.117zm.089 9.277l.159-.042-.043-.16-.116.202zm-.376 1.357l.057.213.37-.1.042.16.16-.043-.043-.16.102-.255-.16.043-.041-.16-.318.085-.042-.16-.126.377zm-.175.618l.201.117.159-.043-.043-.16-.2-.116-.117.202zm-.161.671l.042.16.116-.202.159-.043.2.117-.112-.426-.36-.074-.045.468zm1.726-3.09l-.056-.214-.212.057.268.156zm-.486.302l.159-.043.043.16.158-.043-.042-.16-.159.043-.1-.373-.2-.117.042.16-.158.043.215.17.042.16zm-.284.42l.042.159.211-.057-.254-.103zm-.563 1.292l-.158.043.454.22-.042-.16-.254-.103zm-.435 1.772l.057.213.155-.27-.212.057zm1.274-4.794l-.06.415.159-.043.169-.217-.057-.212-.211.056zm-2.402-1.578l.159-.042.042.16.116-.203-.042-.16-.159.043-.116.202zm.127.48l-.042-.16-.158.043.2.117zm-.437 2.4l.158-.043-.085-.319-.073.362zm-.213 1.542l.102-.256-.085-.32-.017.576zm.085.32l-.043-.16-.158.042.2.117zm-.495 2.187l.216.17.059-.415-.159.042-.116.203zm-.102.256l.159-.043-.057-.213-.102.256zm-.45 3.203l.042.16.159-.043-.043-.16-.158.043zm1.713.907l-.158.042.2.117-.041-.16zm.322-2.199l-.159.043.057.213.102-.256zm.45-3.203l-.158.043.043.16.116-.203zm.13-1.005l-.37.1.296.263.074-.363zm.034-1.15l-.043-.16-.2-.117-.16.043.086.32.317-.086zm.143-.952l-.211.057.099.373.112-.43zm.006-1.257l-.116.203.042.16.159-.043-.085-.32zm.22-1.942l-.043-.16-.158.043.042.16.159-.043zM80.58 30.29l-.116.203.042.16.057.212.218-.458-.043-.16.159-.043-.201-.117.042.16-.158.043zm.003-.628l.158-.043.159-.043-.201-.117-.159.043.043.16zm.356.702l.159-.043-.043-.16-.158.043.042.16zm-.888.069l.159-.043-.043-.16-.158.043.042.16zm.57 1.501l-.159.043.201.117-.042-.16zm-.244-.277l.201.117-.042-.16-.159.043zm-.082-.948l.057.213.154-.27-.211.057zm-.133.778l-.159.043-.102.256.043.16.317-.086-.1-.373zm-.336 2.145l-.056-.213-.159.043.215.17zm-.141-.532l-.159.042.043.16.158-.043-.042-.16zm.2.117l.159-.043-.042-.16.37-.1.2.117.16-.042-.043-.16-.159.042-.402-.233-.169.216-.158.043.042.16-.158.043.2.117zm.872.506l.042.16.159-.043.116-.202-.159.043-.042-.16-.116.202zm-.501-.606l-.17.217.269.155-.1-.372zm.385.809l.116-.203-.317.086.2.117zm.385.809l-.201-.117-.116.203.317-.086zm-.128-.48l.201.118-.042-.16-.159.043-.056-.213-.102.255.2.117-.158.043.201.117-.042-.16-.043-.16zm.245-1.207l-.042-.16-.211.058.042.16.211-.058zm-.269-1.011l-.327.26.215.17.155-.27-.043-.16zm-1.31 3.378l.159-.043-.114-.426-.158.043.113.426zm.305-1.623l-.159.043-.099-.373-.102.256.085.32.159-.044.116-.202zm.36.074l-.202-.117-.158.043.042.16-.158.042.475-.128zm.994-2.437l-.142-.532-.158.042.042.16.258.33zm-.75-2.822l-.16.043-.158.043.1.372.158-.042.042.16.159-.043-.043-.16.159-.043-.057-.213-.158.043-.043-.16zm.797-1.47l.317-.086-.056-.213-.043-.16-.042-.16.158-.043-.042-.16.116-.202-.215-.17.158-.043-.042-.16-.116.203-.317.086.215.17.042.16-.116.202.159-.043.042.16-.317.086.1.372zm.128.479l-.043-.16-.042-.16-.043-.16-.169.217.212-.057.042.16-.168.217.21-.057zm-.028.749l.17-.217-.043-.16-.211.057.084.32zm-.538-2.023l-.056-.213-.201-.117.099.372.158-.043zm.271-.473l.116-.203-.158.043.042.16zm.09-.938l.53-.142.115-.203.102-.255.057.213.158-.043-.056-.213-.215-.17-.102.255-.159.043.057.213-.159.043-.268-.156-.158.043.099.372zm.722-1.335l-.043-.16-.158.043.042.16.159-.043zm-.55.49l.043.16.158-.043-.042-.16-.159.043zm.19-.564l-.158.042.042.16.116-.203zm-.385-.81l.158-.042-.056-.213-.159.042.057.213zm.201.117l-.116.203.158-.043-.116.203.317-.086.159-.043-.201-.117.042.16-.084-.32-.159.043zm.728 1.459l.211-.057-.099-.373-.211.057.099.373zm-1.615 2.661l.043.16.158-.043-.042-.16-.159.043zm-.165.444l.307.088-.043-.16.159-.042-.057-.213-.158.043.056.213-.264.071zm.307.088l.042.16.159-.043-.201-.116zm.226.852l.159-.042-.043-.16-.422.114.306.088zm-.306-.088l-.159.043.201.117-.042-.16zm.482-.53l-.042-.16-.16.043.202.117zm.459-5.088l.159-.043-.216-.17.057.213zm-.283-1.065l.042.16.159-.043-.043-.16-.158.043zm.116-.203l.211-.057-.254-.102.043.16zm.823 1.604l.073-.362.159-.043-.043-.16-.158.043-.116.203.085.32zm-.179-1.949l-.274.246.317-.086-.043-.16zM79.7 37.204l-.042-.16-.212.058-.116.202.37-.1zm29.342-9.575c.09.622.34.992.749 1.11.444.108.965.082 1.565-.08.861-.309 1.775-.993 2.739-2.052a40.689 40.689 0 002.885-3.632 107.857 107.857 0 002.576-3.948 175.781 175.781 0 011.99-3.162c.061-.055.23-.062.504-.022.266.004.54.044.824.12.32.065.592.163.815.293.214.095.317.2.311.316-.017.08-.077.21-.18.39a4.625 4.625 0 01-.295.594l-.415.569a2.44 2.44 0 01-.26.298 7.64 7.64 0 01-.542.945c-.189.28-.388.6-.595.96a27.055 27.055 0 00-1.498 2.458 32.35 32.35 0 01-1.474 2.338c-.466.66-.972 1.385-1.516 2.179a30.209 30.209 0 01-1.612 2.033l-.158.043c-.383.407-.96.791-1.733 1.152-.781.325-1.455.564-2.019.716-.36.06-.825.09-1.391.09a13.76 13.76 0 01-1.65-.239 6.825 6.825 0 01-1.47-.63c-.447-.26-.744-.598-.893-1.015-.221-.548-.334-1.184-.337-1.906.032-.731.135-1.482.308-2.251.173-.77.373-1.508.6-2.216.252-.754.481-1.386.685-1.897.733-1.644 1.59-3.036 2.571-4.175.302-.424.711-.877 1.224-1.358.514-.482 1.074-.651 1.677-.51 2.269.72 3.56 1.74 3.874 3.063.34 1.278-.276 2.795-1.849 4.55-.34.283-.641.573-.901.872l-.809.789a132 132 0 01-1.884 1.65c-.655.519-1.364.977-2.127 1.373-.051.09-.148.154-.289.192zm-2.296-1.606c.038.142.039.218.004.227l.053-.014-.057-.213zm3.123 3.437l-.077.135.106-.029-.029-.106zm11.995-12.825l-.077.135.105-.029-.028-.106zm-2.648 4.31l-.145.096.029.106-.064.189.015.053.196-.11.141-.324-.014-.053-.158.043zm2.571-4.175l-.155.27.028.106.212-.057.077-.135-.162-.184zm-1.035 1.649l-.091.081.028.107.058.213.211-.057-.12-.025-.042-.16.183-.163-.227.004zm-.232.404l-.144.097.029.106-.261.299.186.063-.027-.106.115-.203.318-.085-.216-.17zm-.686 1.042l.044.16-.107.028.163.184.042.16.135.078.105-.029-.134-.077.063-.189.198-.11-.044-.16.022-.348-.135-.078-.13.15.043.16-.265.07zm-.27.472l.043.16.081.092-.071-.266-.053.014zm-.14.323l-.078.136.042.16.159-.043-.015-.054-.108-.199zm.435 1.424l.13-.15-.268-.155-.106.028.028.107.106-.029.11.199zm.309-.54l-.239-.05.027.107-.024.12.053-.014.183-.163zm.275-.246l-.018-.28-.068-.04-.211.058-.212.057.015.053.134.078-.105.029.147.131.106-.029-.07-.266.282.21zm.46-1.037l.183-.163-.307-.089.043.16.081.092zm.247-.352l.091-.081-.106.028-.144.096.159-.043zm.661-.92l.193-.338-.149-.13-.225.003.057.213.124.252zm.826-1.364l.144-.097-.157.043-.044-.16-.052.015-.063.188.159-.043.013.053zm.324-.487l.13-.15-.201-.117-.015-.053-.105.029.014.053.177.238zm.141-.324l.091-.081-.106.028.015.053zm-.374-.127c-.036.01-.058-.004-.067-.039l-.029-.107.057.213.039-.067zm-.441-.166l-.077.135.042.16.158-.043-.071-.267-.052.015zm-.094.71l.207-.285-.134-.078-.13.15.057.213zm.292.035l-.106.029.015.053.105-.029-.014-.053zm-.137.55l-.158.043.043.16.12.025-.005-.227zm-.272-.383l-.076.135-.17.217-.038.068.081.092.274-.245-.071-.267zm-.12-.024l.107-.029-.029-.106-.105.028.027.107zm.277.61l-.318.086.015.053.105-.029.198-.11zm-.434.288l.159-.043-.085-.32-.158.044.084.32zm-.356-.702l.144-.096.105-.029-.134-.078-.13.15.015.053zm-1.54 4.01l-.186-.064-.054.015.029.106.211-.057zm1.062-2.398l.043.16.105-.029.063-.188-.211.057zm-.031.522l-.212.057-.133-.078-.159.043.229.223-.158.043.014.053.158-.042-.014-.054.12.025.155-.27zm-.693.587l.027.106.159-.043.088-.308-.159.042-.115.203zm.349.248l.067.039.144-.096.049-.242-.134-.078-.13.15-.054.014.058.213zm-1.257 1.024l.042.16.212-.057-.043-.16-.211.057zm.064.667l.042.16.159-.043-.095-.145-.106.028zm1.652-4.44l.094.146.212-.058-.042-.16-.264.072zm.348.248l-.24-.05-.024.122.095.145.226-.004.092-.082-.043-.16-.106.03zm-.126.377l.042.16.212-.058-.042-.16-.212.058zm.487.553l-.318.086.015.053.212-.057.091-.082zm-.497-.38l-.106.03.042.16.064-.19zm-2.756 3.484c-.051.09-.095.14-.13.149-.036.01-.079.06-.13.15l.028.106-.106.028-.091.082.057.213-.183.164.147.13-.091.083.028.106.183-.164.318-.085-.162-.184-.149-.132.105-.028.064-.189-.12-.024.317-.086-.029-.106-.214-.17.158-.043zm-.83 1.137l-.169.217.056.213.13-.15.159-.042-.133-.078-.043-.16zm-.377.501l-.077.135.028.107.236-.178-.187-.064zm-.261.299l.029.106.268.156.12.025.063-.189-.373-.127-.107.029zm-.713.934l-.117.203.068.039.091-.082-.042-.16zm-.208.285l-.077.135.134.078.078-.135-.107.028-.028-.106zm-2.766-1.879l.131-.15-.014-.053-.159.043.042.16zm.574-.611l.144-.096-.157.042.013.054zm.642-.573c.015-.08.042-.125.076-.135.071-.019.132-.073.183-.163l-.186-.064-.078.135-.052.014.057.213zm.313-.313c-.019-.07-.011-.11.024-.12l.053-.015-.202-.116.044.16.081.091zm.193-.337l.053-.014c.026-.045.056-.073.091-.082l-.105.028-.198.11.159-.042zm.715-.935c.051-.09.072-.153.063-.188.015-.08.06-.13.13-.15l-.201-.116-.173-.01.056.212.125.252zm.421-.97l-.014-.053c-.019-.07.007-.116.078-.135l-.107.029.043.16zm.024-.976l-.043-.16-.077.135.056.213.064-.188zm.102-.256l-.071-.266-.159.043.071.266.159-.043zm-.329-.596l-.105.029.013.053.134.078-.042-.16zm-.176-.238a.422.422 0 00-.096-.145l.042.16.054-.015zm-1.799-1.226l-.135-.078.029.107.106-.029zm3.552 9.313l.064-.189-.12-.024-.159.042-.215-.17.056.213.174.01.042.16.158-.042zm.75-1.23l.183-.163-.12-.025-.159.043-.201-.117-.105.028-.127.377-.105.028-.029-.106-.024.12.042.16.067.04.091-.082.117-.203.37-.1zm1.101-1.61l.092-.081-.044-.16-.105.028-.063.189.014.053.106-.029zm-3.798-4.91l-.091.083.028.106.106-.028-.043-.16zm.043.16l-.169.217.013.054.107-.029.028.107-.159.043-.115.202.21-.057.043.16.212-.057-.086-.32.063-.188-.042-.16-.105.029zm.268 1.012l.029.107-.17.216-.037.068.081.092.274-.245-.177-.238zm.156.586l-.211.057.014.053.106-.028.091-.082zm2.958 3.025l-.212.057-.064.188.12.025.187.064.025-.121-.056-.213zm-.441.69l-.028-.107-.077.135.105-.029zm-1.072 1.716l.049-.242-.015-.053-.105.028-.091.082.028.107.134.078zm-.24-.05l-.024.121.081.092-.057-.213zm-1.585-5.107l.211-.057-.084-.32-.212.057.085.32zm-.304-.717l.091-.082.159-.043-.187-.063-.077.135.014.053zm-.322-.997l.096.145.105-.029-.071-.266-.105.029-.025.12zm3.984 4.117l.085.32.183-.164-.014-.053-.149-.131-.105.028zm-.043-.16l.135.078.049-.241-.212.057.028.106zm.022-.348l.105-.028-.029-.107-.211.057.057.213.105-.028-.027-.107zm-.191-.29l.147.13.107-.028-.043-.16-.24-.05.029.107zm-3.53-3.898l-.165-.412-.279.018-.053.014.014.053.054-.014.377.355.052-.014zm.734 8.932l.13-.15-.12-.024-.042-.16-.01.174.042.16zm-1.261.797l-.053.014.056.213.082.092.106-.028-.191-.291zm-.21-7.818l-.37.1.043.16.066.038-.053.014.071.267.011-.174.211-.057-.028-.107.106-.028-.057-.213zm-.48 2.24l.144-.095-.042-.16.073-.362-.186-.064-.078.135.042.16-.36-.074.044.16-.054.014.043.16.109.198.043.16.187.063.106-.028-.135-.078.064-.188zm-.563.438l.158-.043-.229-.223.071.266zm-.054-.841l-.159.042.056.213.159-.042-.056-.213zm.348-.608l.052-.014-.039.067-.062.189.028.106.13-.15.346.022-.029-.107.064-.188.317-.086-.163-.184-.052.014-.117.203-.159.042-.027-.106-.159.043-.015-.053a.358.358 0 00-.115.202zm.242-.579l.042.16.078-.135-.12-.025zm.839.173l-.12-.025-.042-.16.13-.149-.279.018.044.16.056.213.211-.057zm.008.454l.042.16.105-.028.012-.174-.159.042zm-.084.537l-.159.043-.187-.064-.105.028.176.238-.105.029.013.053.107-.029-.015-.053.172.01.039-.067.064-.188zm-.641.572l.029.107.105-.029.14-.323-.211.057-.063.188zm.522-2.937l-.086-.32-.063.189-.038.067.081.093.014.053.092-.082zm-.496-1.863l-.077.135.063-.189.014.054zm-.205-.345l-.038.068.042.16.053-.015-.057-.212zm-.157.899l-.106.029.015.053.147.131.029.107-.085-.32zm-.191-.291l-.081-.092.029.106.052-.014zm-1.18.033l.062-.188-.042-.16-.159.043-.13.15.159-.043.11.198zm.465.046l.028.107c.044.026.072.056.081.092l.014.053.064-.188-.135-.078-.052.014zm-.1-.373l-.133-.078-.131.15.173.01.106-.028-.015-.054zm-.283-1.064l-.264.07.042.16.188.064.078-.135-.044-.16zm-.232.405l.086.319-.135-.078-.024.12.159-.042.027.107.184-.164-.187-.064.13-.15-.186-.063-.054.015zm.009 1.31l-.105.028.042.16c-.029-.107-.025-.165.01-.174l.053-.014zm-.201-.117l-.158.043.042.16.158-.044-.042-.16zm.897 4.437l.018.28.159-.042.071.266.21-.057-.014-.053-.267-.156-.177-.238zm2.431 4.88l-.107.028.029.106.134.078-.056-.213zm-.394-7.655l.106-.029-.085-.32-.106.03.085.319zm-.025.12l.096.146.105-.029-.042-.16-.159.043zm.244.277l-.134-.078-.024.12.095.146.12.025.144-.096-.043-.16-.158.043zm-.021.348l.043.16.105-.029-.042-.16-.106.029zm.434.567l-.264.072.015.053.105-.029.144-.096zm-.509-1.916l-.144.096.027.106.159-.043-.042-.16zm-.604-1.207l-.053.014.173.011-.014-.053-.135-.078.029.106zm.215 1.026l.081.092.266-.071.024-.12-.068-.04-.158.043-.145.096zm.454 1.704l-.212.057.043.16.169-.217zm-1.481-3.652l.201.117.063-.188-.172-.01-.135-.079.043.16zm.177 1.093l.12.025.092-.082-.212.057zm.1.373l.042.16.135.078-.029-.107-.148-.13zm-.561-1.047l.042.16.052-.014.176.238.078-.135-.084-.32-.264.071zm-.332.033l.11.198.105-.028.117-.203-.015-.053-.317.086zm-1.037-.919l.003.228.029.106.158-.043-.07-.266-.12-.025zm-.101 1.112l.028.106-.159.043-.144.096.043.16.081.092.034-.295.043.16.158-.043.011-.174-.014-.053-.081-.092zm-.328-.596l-.174-.01-.105.028.014.053.106-.029.243.277.159-.043-.243-.276zm1.27 5.42l.173.01-.056-.213c-.042.126-.081.194-.117.203zm-.023.976l.251-.124.088-.31-.015-.052-.264.07.042.16-.115.203.013.053zm2.113 4.965l.015.053-.059.416-.159.043.028.106.159-.043.129-.149-.113-.426zm.006-1.257l-.12-.024.043.16-.024.12.028.107.158-.043-.085-.32zm.371-.1l-.054.015.029.106.025-.12zm.936-.31l.015.054.049-.242-.015-.053-.091.082-.106.028.148.131zm-7.959 1.807l-.042-.16-.254-.103-.106.029.029.106.119.025.254.103zm.105-.884l.039-.068c.051-.09.095-.14.13-.15l-.24-.049.071.267zm1.968-1.33l.078-.136-.106.029.028.106zm.131-.15l.236-.178-.135-.078-.158.043-.025.12.053-.014.029.107zm.837-.683c.052-.09.114-.144.183-.163a.485.485 0 00.198-.11l-.042-.16-.149-.132.106-.028-.057-.213.317-.086-.085-.32-.133-.077-.212.057-.028-.107-.107.029.164.184.084.32-.105.028-.198.11.043.16.067.04-.13.149.148.13-.091.083.027.106zm-1.752-6.375c-.07.02-.118.051-.144.096.01.036-.016.08-.077.135l.264-.071-.043-.16zm-.309.54l-.144.096.158-.042-.014-.054zm-.391.448c.01.036-.003.058-.038.068l.028.106.053-.014-.043-.16zm-.344.835l-.13.15.158-.043-.028-.107zm-.275.245l-.01.174.043.16.052-.014.145-.096-.187-.064.158-.043-.042-.16-.159.043zm-.572 1.467a.904.904 0 01-.102.256c-.026.045-.038.143-.035.295l.024-.12.117-.203.158-.043-.057-.213-.105.028zm-.229.633a2.845 2.845 0 01-.151.497c-.032.161-.07.304-.112.43l.187.064.106-.03-.134-.077.063-.188.197-.11-.042-.16.02-.348-.134-.078zm-.575 2.095l.028.107.212-.057-.24-.05zm.004.228l-.13.149.211-.057.162.184.12.025-.042-.16-.268-.156-.053.015zm-.113.43l-.063.188.106-.029-.043-.16zm1.511 4.613l.028.107.183-.164-.113-.426.014.054-.112.43zm.524-6.76l-.211.056.056.213.025-.12.13-.15zm1.922-4.914l-.014-.053-.187-.063-.106.028-.01.174.052-.014.071.266.194-.338zm-.465.81l-.316.086.07.266.014.053-.158.043-.088.31.173.01.039-.068.246-.352-.014-.053-.212.057.169-.216.106-.029-.029-.107zm-.813.563l.071.266.106-.029-.071-.266-.106.029zm-.532-.085l-.116.202.014.054.106-.029.028.107-.211.057-.064.188.106-.029.148.132.159-.043-.085-.32.116-.202-.043-.16-.158.043zm1.178.595l.063-.188-.014-.053-.106.028.057.213zm-.635.171l.102-.256-.028-.106-.13.15.056.212zm.156.586l-.158.043.042.16.12.024-.004-.227zm-.43-.34l.028.106-.116.203-.106.028.043.16.106-.029.274-.245-.229-.223zm.156.585l-.159.043.014.053.106-.028.039-.068zm1.269 3.709l-.105.029.028.106.077-.135zm-.155-.586l.052-.014-.028-.106-.024.12zm-.166.444l.131-.149-.173-.01.042.16zm.739-1.055l-.025.12.054-.013-.029-.107zm-.025.12a.755.755 0 00-.302.14c-.026.045-.1.122-.222.23l.187.064.102-.255-.025.12.029.107.158-.043-.056-.213-.106.029.235-.178zm-.34 1.063l.159-.043.085.32.076-.136.159-.042-.133-.078-.029-.107-.066-.039-.107.029-.144.096zm.528-.999l-.029-.106-.105.029.027.106.107-.029zm.07.267l-.013-.054-.107.029.015.053.105-.028zm.394-1.077l-.078.135.106-.028.043.16.013.053.159-.043-.172-.01-.043-.16-.028-.107zm.229 5.76l-.088.308.173.01.105-.028-.119-.025-.071-.266zm-2.616-6.428c.084-.25.138-.475.161-.671l-.211.057.085.32-.077.134.042.16zm-.059.416l-.029-.107a.496.496 0 00-.003-.227l-.212.057.085.32.159-.043zm-.196-1.374l.106-.029-.085-.32-.106.03.085.319zm-.304-.717l.092-.082.106-.028-.135-.078-.077.135.014.053zm.64-1.428l-.159.043.015.053.186.064-.042-.16zm.498 1.235l-.158.043.042.16.106-.03.067.04-.057-.213zm.57-.839l.011-.174-.081-.092.07.266zm.19-.565l-.049.242c.061-.055.095-.14.102-.256l-.053.014zm.39-1.303l.042.16.159-.043-.096-.146-.105.029zm1.332 5.86l.186.064-.056-.213-.159.043.029.106zm.073-.362l.053-.014-.029-.107-.211.057.057.213.159-.042-.029-.107zm-.243-.277l.201.117-.042-.16-.188-.063.029.106zm0 0l-.191-.29-.01.174.201.116zm.836 6.337l.081.092.129-.149-.21.057zm-.55.49l.117-.202-.173-.01.056.213zm-.247-.503l.105-.028-.028-.107-.148-.131.071.266zm-.705-.095l.264-.071-.042-.16-.237.178.015.053zm-.543.09l.068.038.196-.11-.264.071zm-1.132-4.26l.073-.362-.014-.053-.092.081-.052.015-.131.149-.101.256.317-.086zm-1.079-3.418l.014.053.201.117.123.252.043.16.063-.188.106-.029-.029-.106-.19-.291-.331.032zm1.564-3.275l-.014-.054-.159.043.015.053.158-.042zm.191.29l-.317.086.042.16.095.145.265-.071-.085-.32zm-.184-.692l.042.16.01-.174-.052.014zm-1.461 7.927l-.134-.078-.239-.05.211-.056-.028-.107-.399-.006-.042-.16-.116.202.187.064.106-.029.028.107.053-.014.003.227.029.107.211-.058.13-.149zm-1.036-.063l.159-.042-.029-.107-.211.057.081.092zm.118 1.51l.029.106.211-.057-.028-.107-.134-.078-.212.057.029.107.105-.029zm-.374-.984l-.029-.106-.211.057.028.106.134.078.078-.135zm.44 2.506l.085.32.211-.057-.296-.262zm-.469-2.612l-.113-.426-.106.028.064-.188-.149-.131-.105.028.003.228-.158.042-.025.121.265-.071.056.213.268.156zm1.249-2.334l-.106.028.042.16.106-.029-.042-.16zm-.551-.366l.226-.003.091-.082-.085-.32-.211.058-.254-.103.043.16.134.078-.247.351.071.267-.038.067.081.092.183-.163.106-.029.133.078.064-.188-.043-.16-.105.029-.135-.078-.014-.054zm.319 1.626l.064-.188-.149-.131-.264.071.043.16-.092.082.029.106.105-.028-.028-.107.25-.125.042.16zm0 0l.043.16.106-.029-.043-.16-.106.03zm-.94.083l.085.32.01-.174-.095-.146zm-.17-.639l-.24-.05-.077.136.028.106.077-.135.029.107.183-.164zm.684-2.752l-.057-.213.077-.135-.225.003.042.16-.063.188.106-.028.014.053.106-.028zm.113.425l.042.16.064-.188-.106.029zm-.133.778l.317-.085.092-.082-.106.028-.303.14zm-.057-.213l-.105.029-.082-.092-.158.042.229.224-.158.043.014.053.158-.043-.014-.053.067.039.092-.082-.043-.16zm-.535.544l.029.107.158-.043.035-.295-.106.029-.116.202zm.349.248l.067.04.145-.097-.004-.227-.081-.092-.13.149-.053.014.056.213zm1.112 1.412l.106-.028-.028-.107-.106.029.028.106zm-2.021 1.345l.106-.029-.057-.213-.106.029.057.213zm1.04.29l-.043-.16-.211.057.043.16.211-.057zm-.17-.64l-.077.136.056.213.106-.029-.085-.32zm1.245 3.83l.148.131-.042-.16-.264.072.158-.043zm-1.197-4.927l-.028-.106.024-.12.159-.044.134.078.081.093-.028-.107.158-.043-.056-.213-.187-.063.116-.203-.212.057-.176-.237-.13.149-.096-.146-.264.072-.158.042.014.054.134.078-.106.028.148.131.053-.014-.071-.266.335.195.014.053.346.02.028.107-.106.029-.028-.107-.211.058-.049.241-.159.043-.024.12.081.093.264-.072zm.977.479l-.106.028.028.107.078-.135zm.191.29l.211-.056-.028-.107-.106.028-.24-.049.163.185zm.5-.249l-.029-.106-.134-.078.029.106.134.078zm-1.218-4.578l.042.16.212-.058-.201-.117-.053.015zm.339.422l-.201-.117-.082-.092.071.266.053-.015.014.054.159-.043.144-.096-.042-.16-.159.043.043.16zm-.169.216l.042.16.212-.057-.043-.16-.211.057zm.54.54l-.37.1.014.053.053-.015.303-.139zm-.498-.38l-.105.029.042.16.063-.189zm-1.121 5.154l-.159.042-.073.363.042.16.116-.203.074-.363zm.709 1.177l-.014-.053-.105.029.056.213.063-.189zm.268.156l-.119-.024.042.16-.077.134.028.107.211-.057-.085-.32zm1.187 1.906l-.043-.16-.077.135.12.025zm-.424-3.938l-.057-.212-.211.056.056.213-.091.082.105-.028.198-.11zm-2.548.004c-.035.01-.044.05-.025.12l.317-.085-.186-.064-.106.029zm.024 2.219l.056.213.011-.174.197-.11-.134-.079-.13.15zm.184.692c.054.061.086.11.095.145.009.036.059.08.148.131l-.113-.425-.106.028-.024.12zm.464-.81l.158-.043-.201-.117.043.16zm-.554-.593l-.106.029.24.05-.134-.079zm-.007.402l-.014-.054-.106.029.12.025zm.162-.672l.091-.081-.042-.16-.106.028.057.213zm.22 1.253l.105-.028-.134-.078-.225.004.014.053.24.05zm2.457-4.6c.533-.41 1.065-.897 1.595-1.458a14.877 14.877 0 001.51-1.777 5.61 5.61 0 00.464-.81c.181-.316.268-.625.264-.928.042-.125.052-.299.031-.521-.031-.258-.144-.4-.34-.423-.277-.191-.581-.128-.912.19-.305.272-.522.521-.65.746-.458.694-.847 1.503-1.168 2.427a37.166 37.166 0 00-.794 2.553z" fill="#fff"/></svg>