<svg width="140" height="36" fill="none" xmlns="http://www.w3.org/2000/svg"><path d="M17.22 29.69v3.44H0l10.81-14.9H1.26v-3.44H18.1L7.26 29.69h9.96zM21 33.14V14.76h4v18.38h-4zm27.26-8.75c0 .33 0 .68-.05 1.06-.4 4.7-4.65 8-9.6 8A9.74 9.74 0 0128.7 24a9.75 9.75 0 019.9-9.53 10 10 0 018.32 4.42l-3.42 2a6.3 6.3 0 00-4.9-2.79 5.92 5.92 0 000 11.84c2.36 0 4.78-1.53 5.35-3.49H37.1v-3.54h11.11c.03.5.05 1.09.05 1.48zm22.62 8.75h-4v-8.78l-5.62 6.54-5.63-6.54v8.77h-4v-19L61.26 25l9.63-10.86-.01 19zm4.48-7.44V14.79h4V25.7a4.25 4.25 0 008.5 0V14.79h4V25.7c0 4.7-3.22 7.77-8.19 7.77-4.97 0-8.31-3.07-8.31-7.77zm27.44 4.22c2.19 0 3.39-1 3.39-2 0-1.46-2-1.84-4.1-2.21-2.31-.38-7.29-1.23-7.29-5.63s4-5.56 7.29-5.56a11.24 11.24 0 017.26 2.46l-2.21 3a9.22 9.22 0 00-5.2-1.89c-1.16 0-3.17.35-3.17 1.81 0 1.31 2 1.61 3.64 2 3 .63 7.74 1 7.74 5.93 0 3.82-3 5.71-7.31 5.71a12.3 12.3 0 01-8.3-2.87l2.11-3a11.188 11.188 0 006.15 2.25zm33.79-9.35a20.316 20.316 0 003-8.27s-1.62 1.55-1.43.94c.982-3.02 1.189-6.24.6-9.36-.37 10.3-8.93 19-20.3 20.9-.94.16-1.46 1.07-1.85 2a17.347 17.347 0 01-1.4 2.67 7.29 7.29 0 00-.1-1.9 7.203 7.203 0 00-2.54-4.28 9.74 9.74 0 011 2.75 9.525 9.525 0 01-2.29 8.2c-.57.55-1.05 1-1.36 1.21-.31.21-.46.32-.7.46l.41-.06a18.84 18.84 0 005.57-2.06c4.51-2.64 7.65-3.72 11.61-4.16 6.3-.71 11.2-3.67 11.47-9.71-.09.05-2.18 1.44-1.69.67z" fill="#fff"/><path d="M116 25.42c.45-1 .87-1.92 1.85-2a23.891 23.891 0 0010.19-4 7.384 7.384 0 00.88-6.61s-1.24 1.7-1.08 1a16.998 16.998 0 00-.07-7.37s-.83 1.69-.85 1.15A15.873 15.873 0 00124.65 0c2.45 7.47-.8 15.84-7.73 20.92-1.56 1.15-.92 4.51-.92 4.5z" fill="#FF600E"/></svg>