<svg width="28" height="29" fill="none" xmlns="http://www.w3.org/2000/svg"><g clip-path="url(#clip0)" fill="#236EFF"><path d="M19.884 17.206a.609.609 0 00-.86.048A6.743 6.743 0 0114 19.486a6.744 6.744 0 01-5.025-2.232.609.609 0 10-.907.812A7.963 7.963 0 0014 20.703c2.27 0 4.432-.961 5.932-2.637a.61.61 0 00-.048-.86z"/><path d="M14 .008c-7.72 0-14 6.28-14 14s6.28 14 14 14 14-6.28 14-14-6.28-14-14-14zm0 26.782c-7.049 0-12.783-5.733-12.783-12.782S6.951 1.225 14 1.225c7.049 0 12.783 5.734 12.783 12.783 0 7.049-5.734 12.782-12.783 12.782z"/><path d="M18.87 9.747a3.047 3.047 0 00-3.044 3.043.609.609 0 001.218 0c0-1.006.819-1.826 1.826-1.826a1.83 1.83 0 011.826 1.826.609.609 0 001.217 0 3.047 3.047 0 00-3.043-3.043zm-7.913 3.043a.609.609 0 001.217 0 3.047 3.047 0 00-3.043-3.043 3.047 3.047 0 00-3.044 3.043.609.609 0 001.217 0 1.83 1.83 0 011.827-1.826 1.83 1.83 0 011.826 1.826z"/></g><defs><clipPath id="clip0"><path fill="#fff" transform="translate(0 .008)" d="M0 0h28v28H0z"/></clipPath></defs></svg>