<svg width="28" height="29" fill="none" xmlns="http://www.w3.org/2000/svg"><g clip-path="url(#clip0)" fill="#236EFF"><path d="M8.896 10.924a.466.466 0 00-.384-.254l-3.926-.261a.458.458 0 00-.466.295l-2.83 7.233a.466.466 0 00.715.543l2.349-1.762 1.367.274a.466.466 0 00.528-.291 30.322 30.322 0 012.627-5.317.467.467 0 00.02-.46zM5.52 16l-1.188-.238a.47.47 0 00-.372.085l-1.203.902 2.107-5.387 2.818.188A31.515 31.515 0 005.52 16zm12.08 7.422l-.262-3.926a.467.467 0 00-.714-.364 30.337 30.337 0 01-5.317 2.627.466.466 0 00-.29.527l.273 1.368-1.762 2.348a.467.467 0 00.544.716l7.232-2.83a.467.467 0 00.296-.466zm-6.341 1.828l.902-1.203a.466.466 0 00.084-.372l-.237-1.187a31.488 31.488 0 004.45-2.163l.188 2.817-5.387 2.108zm2.274-11.242h-3.145a.467.467 0 00-.407.24l-3.947 7.09a.467.467 0 00.65.627l7.09-4.291a.466.466 0 00.225-.4v-2.8a.467.467 0 00-.466-.466zm-.467 3.004l-5.361 3.244 2.957-5.314h2.404v2.07z"/><path d="M27.976.457a.467.467 0 00-.426-.426C27.395.019 12.028-1.054 5.377 16.367a.466.466 0 00.106.497l2.219 2.219a.469.469 0 00.738-.105l2.224-4.037h2.402v2.076l-4.06 2.564a.468.468 0 00-.082.725l2.22 2.218a.466.466 0 00.496.106C29.062 15.98 27.99.612 27.976.457zm-2.448 8.28c-1.637 4.05-5.384 9.558-13.94 12.913l-1.59-1.591 3.784-2.39a.468.468 0 00.217-.394v-2.8a.467.467 0 00-.467-.467h-3.145a.467.467 0 00-.409.242l-2.056 3.734-1.565-1.565C12.197 1.523 24.642.914 27.062.948c.017 1.088-.083 4.199-1.534 7.788zM7.993 20.618a.466.466 0 00-.42-.183.467.467 0 00-.184-.421 2.919 2.919 0 00-2.492-.486 3.139 3.139 0 00-2.096 1.75l-2.76 6.07a.466.466 0 00.619.617l6.07-2.759a3.138 3.138 0 001.749-2.096 2.918 2.918 0 00-.486-2.492zm-.419 2.263a2.21 2.21 0 01-1.23 1.476L1.405 26.6l2.244-4.937a2.209 2.209 0 011.996-1.297c.29 0 .575.062.834.183l-.445.787a.466.466 0 00.636.636l.787-.445c.19.411.234.887.116 1.353z"/><path d="M27.976.458a.467.467 0 00-.426-.426c-.182-.015-4.508-.343-9.595 2a.466.466 0 00-.135.755l7.4 7.4a.467.467 0 00.755-.134C28.319 4.966 27.991.64 27.976.458zM25.4 9.045l-6.438-6.437c3.724-1.572 6.985-1.68 8.1-1.662.019 1.116-.086 4.367-1.662 8.1zM20.608 7.4a4.029 4.029 0 00-5.691 0 4.029 4.029 0 000 5.69 4.01 4.01 0 002.845 1.178 4.015 4.015 0 002.846-1.177 4.029 4.029 0 000-5.692zm-.66 5.03a3.095 3.095 0 01-4.371 0 3.095 3.095 0 010-4.371 3.082 3.082 0 012.185-.904c.792 0 1.584.302 2.186.904a3.095 3.095 0 010 4.372z"/></g><defs><clipPath id="clip0"><path fill="#fff" transform="translate(0 .008)" d="M0 0h28v28H0z"/></clipPath></defs></svg>