<svg width="28" height="29" fill="none" xmlns="http://www.w3.org/2000/svg"><g clip-path="url(#clip0)" fill="#236EFF"><path d="M26.665 16.408h-.419v-3.774a1.77 1.77 0 00-.751-1.448v-.514c0-.745-.607-1.352-1.352-1.352h-.313l1.197-1.756a1.294 1.294 0 00-.34-1.796L16.564.233a1.283 1.283 0 00-.968-.202c-.34.064-.633.257-.828.542L7.758 10.86H5.805l.471-4.765a.14.14 0 01.09-.119 3.033 3.033 0 001.479-1.202.14.14 0 01.132-.062l3.06.302a.4.4 0 00.079-.794l-3.06-.302a.934.934 0 00-.884.428 2.23 2.23 0 01-1.088.884.933.933 0 00-.602.786l-.478 4.844h-.51l.745-7.536a.494.494 0 01.54-.444l6.184.611a.4.4 0 00.079-.794l-6.184-.61a1.294 1.294 0 00-1.413 1.158l-.6 6.074H2.824c-.745 0-1.352.607-1.352 1.352v.35a1.776 1.776 0 00-1.034 1.612v13.6c0 .978.796 1.774 1.773 1.774h22.262c.978 0 1.773-.796 1.773-1.773V22.46h.42a.898.898 0 00.896-.897v-4.258a.898.898 0 00-.897-.897zm-2.522-6.29c.305 0 .554.249.554.554v.203a1.778 1.778 0 00-.224-.014H22.78l.506-.743h.857zm-8.715-9.096a.491.491 0 01.687-.13l8.122 5.535a.495.495 0 01.13.687l-2.553 3.747h-.612l1.251-1.837a.933.933 0 00.044-.99 2.23 2.23 0 01-.267-1.376.933.933 0 00-.404-.895l-4.21-2.87a.933.933 0 00-.982-.048 2.23 2.23 0 01-1.378.255.945.945 0 00-.905.402l-5.015 7.359h-.613l6.705-9.839zm.175 6.775a3.292 3.292 0 00-3.28 3.064h-2.022l4.709-6.91a.143.143 0 01.135-.061 3.033 3.033 0 001.875-.346.14.14 0 01.146.009l4.21 2.87a.14.14 0 01.063.132 3.032 3.032 0 00.363 1.872.141.141 0 01-.008.148l-1.558 2.286h-1.352a3.292 3.292 0 00-3.28-3.064zm2.48 3.064h-4.96a2.494 2.494 0 012.48-2.266c1.298 0 2.366.998 2.48 2.266zM2.27 10.672c0-.305.249-.554.554-.554h.943l-.073.743H2.27v-.189zm-1.034 1.962c0-.538.438-.975.975-.975h22.262c.538 0 .975.437.975.975v1.107H1.236v-1.107zm24.212 13.6a.976.976 0 01-.975.976H2.21a.977.977 0 01-.975-.976v-1.107h2.152a.399.399 0 100-.797H1.236v-9.791h24.212v1.87h-3.793a3.03 3.03 0 00-2.722 1.704l-.005.01-.012.027a3 3 0 00-.151.385v.002a3.03 3.03 0 002.89 3.924h3.793v1.869H5.942a.399.399 0 100 .797h19.506v1.108zm1.316-4.67a.1.1 0 01-.099.098h-5.01a2.23 2.23 0 01-1.959-3.289 2.23 2.23 0 011.959-1.167h5.01a.1.1 0 01.1.1v4.257z"/><path d="M21.748 17.816a1.62 1.62 0 00-1.619 1.618 1.62 1.62 0 001.619 1.62 1.62 1.62 0 001.619-1.62 1.62 1.62 0 00-1.619-1.618zm0 2.44a.822.822 0 010-1.642.822.822 0 010 1.641z"/></g><defs><clipPath id="clip0"><path fill="#fff" transform="translate(0 .008)" d="M0 0h28v28H0z"/></clipPath></defs></svg>