<svg width="27" height="27" fill="none" xmlns="http://www.w3.org/2000/svg"><g clip-path="url(#clip0)" fill="#fff"><path d="M21.018 11.236h-13v-3.9a5.2 5.2 0 1110.4 0h1.3c0-3.584-2.916-6.5-6.5-6.5a6.507 6.507 0 00-6.5 6.5v3.9h-1.3a1.3 1.3 0 00-1.3 1.3v13a1.3 1.3 0 001.3 1.3h15.6a1.3 1.3 0 001.3-1.3v-13a1.3 1.3 0 00-1.3-1.3zm0 14.3h-15.6v-13h15.6v13z"/><path d="M13.218 16.436c-1.075 0-1.95.875-1.95 1.95 0 .846.545 1.56 1.3 1.83v2.07h1.3v-2.07a1.947 1.947 0 001.3-1.83c0-1.075-.875-1.95-1.95-1.95zm0 2.6a.65.65 0 110-1.3.65.65 0 010 1.3z"/></g><defs><clipPath id="clip0"><path fill="#fff" transform="translate(.218 .836)" d="M0 0h26v26H0z"/></clipPath></defs></svg>