<svg width="27" height="27" fill="none" xmlns="http://www.w3.org/2000/svg"><g clip-path="url(#clip0)" fill="#fff"><path d="M6.284 18.602a1.3 1.3 0 100 2.6 1.3 1.3 0 000-2.6zm0 1.734a.433.433 0 110-.867.433.433 0 010 .867zm13.867-1.734a1.3 1.3 0 100 2.6 1.3 1.3 0 000-2.6zm0 1.734a.433.433 0 110-.867.433.433 0 010 .867z"/><path d="M25.887 12.434l-2.985-3.361a1.3 1.3 0 00-.974-.437h-3.944v-2.6a1.3 1.3 0 00-1.3-1.3H1.518a1.3 1.3 0 00-1.3 1.3v11.266a.433.433 0 00.433.434h.433v1.3c.001.717.583 1.3 1.3 1.3h.902a3.03 3.03 0 005.997 0h7.87a3.03 3.03 0 005.997 0h1.768c.717 0 1.299-.582 1.3-1.3v-5.738a1.3 1.3 0 00-.33-.864zM1.084 16.87V6.036c0-.24.195-.433.434-.433h15.166c.24 0 .434.194.434.433v10.833H1.084zm2.202 2.6h-.902a.434.434 0 01-.433-.433v-1.3h2.215a3.026 3.026 0 00-.88 1.733zm2.998 2.6a2.167 2.167 0 110-4.333 2.167 2.167 0 010 4.333zm4.334-2.6H9.283a3.025 3.025 0 00-.88-1.733h2.215v1.733zm3.9 0h-3.034v-1.733h3.034v1.733zm2.634 0h-1.768v-1.733h2.648a3.026 3.026 0 00-.88 1.733zm3 2.6a2.167 2.167 0 110-4.333 2.167 2.167 0 010 4.333zm5.2-3.033a.434.434 0 01-.434.433H23.15a3.035 3.035 0 00-2.999-2.6h-2.167V9.503h1.734v4.333a1.3 1.3 0 001.3 1.3h4.333v3.9zm0-4.767h-4.334a.434.434 0 01-.434-.433V9.503h1.344a.436.436 0 01.326.144l2.986 3.363a.44.44 0 01.111.288v.971z"/></g><defs><clipPath id="clip0"><path fill="#fff" transform="translate(.218 .836)" d="M0 0h26v26H0z"/></clipPath></defs></svg>