<svg width="27" height="27" fill="none" xmlns="http://www.w3.org/2000/svg"><g clip-path="url(#clip0)" fill="#fff"><path d="M16.251 16.003h-.477a.426.426 0 01-.4-.28 7.092 7.092 0 00-.172-.409.427.427 0 01.087-.483l.34-.34a1.303 1.303 0 00-.002-1.838l-1.225-1.224a1.303 1.303 0 00-1.837 0l-.34.34a.43.43 0 01-.484.086 9.363 9.363 0 00-.409-.174.426.426 0 01-.28-.402v-.476a1.3 1.3 0 00-1.3-1.3H8.017a1.3 1.3 0 00-1.3 1.3v.476c0 .18-.112.34-.28.402-.139.053-.274.11-.409.17a.429.429 0 01-.483-.086l-.34-.34a1.303 1.303 0 00-1.837 0l-1.225 1.228a1.303 1.303 0 000 1.838l.34.34c.127.126.162.32.086.483-.061.134-.118.27-.171.41a.426.426 0 01-.405.279h-.476a1.3 1.3 0 00-1.3 1.3v1.733a1.3 1.3 0 001.3 1.3h.476c.18 0 .34.112.402.28.053.139.11.274.17.409a.427.427 0 01-.086.483l-.34.34a1.303 1.303 0 000 1.837l1.225 1.225a1.303 1.303 0 001.837 0l.34-.34a.429.429 0 01.483-.086c.135.061.27.118.41.173.17.06.283.222.283.402v.477a1.3 1.3 0 001.3 1.3H9.75a1.3 1.3 0 001.3-1.3v-.477c0-.179.112-.34.28-.4.139-.054.274-.11.409-.172a.428.428 0 01.483.087l.34.34c.51.504 1.33.503 1.837-.002l1.225-1.225a1.303 1.303 0 000-1.837l-.34-.34a.427.427 0 01-.086-.484c.061-.134.118-.27.173-.409a.426.426 0 01.402-.281h.477a1.3 1.3 0 001.3-1.3v-1.733a1.3 1.3 0 00-1.3-1.3zm.433 3.033c0 .24-.194.433-.433.433h-.477a1.304 1.304 0 00-1.213.838 5.646 5.646 0 01-.149.359c-.223.492-.12 1.07.26 1.454l.339.34a.43.43 0 010 .612l-1.225 1.225a.433.433 0 01-.612 0l-.34-.34a1.303 1.303 0 00-1.454-.26 6.295 6.295 0 01-.358.15 1.304 1.304 0 00-.838 1.212v.477c0 .24-.194.433-.433.433H8.018a.433.433 0 01-.434-.433v-.477a1.304 1.304 0 00-.838-1.213 6.006 6.006 0 01-.358-.149 1.304 1.304 0 00-1.454.26l-.34.339a.433.433 0 01-.612 0l-1.225-1.223a.433.433 0 010-.613l.339-.34c.38-.384.483-.962.26-1.454a6.256 6.256 0 01-.15-.358 1.304 1.304 0 00-1.212-.839h-.476a.433.433 0 01-.434-.433v-1.733c0-.24.194-.434.434-.434h.476a1.305 1.305 0 001.214-.838c.046-.121.095-.24.149-.358.223-.492.12-1.07-.26-1.454l-.34-.34a.433.433 0 010-.613l1.224-1.224c.17-.17.443-.17.613 0l.34.339c.383.38.962.483 1.454.26.117-.053.237-.103.357-.15.503-.191.837-.673.84-1.212v-.476c0-.24.193-.434.433-.434H9.75c.24 0 .433.194.433.434v.476c.002.539.335 1.021.839 1.214.12.046.24.095.358.149.492.223 1.07.12 1.454-.26l.34-.34a.436.436 0 01.613 0l1.224 1.226a.43.43 0 010 .612l-.34.34a1.305 1.305 0 00-.26 1.454c.054.118.104.237.15.358.193.502.674.835 1.212.837h.477c.24 0 .433.194.433.434v1.733z"/><path d="M12.776 17.996a3.928 3.928 0 00-.078-.64c-.015-.07-.035-.14-.054-.21a3.788 3.788 0 00-.148-.444 3.855 3.855 0 00-.19-.405l-.016-.03a3.84 3.84 0 00-.39-.569c-.012-.016-.026-.03-.04-.046a3.58 3.58 0 00-.185-.204c-.034-.035-.07-.068-.105-.102a4.219 4.219 0 00-.29-.25l-.072-.054a3.873 3.873 0 00-2.324-.773c-.043 0-.086.007-.13.008a3.737 3.737 0 00-.425.036 3.963 3.963 0 00-.42.078 3.902 3.902 0 00.003 7.557c.007 0 .014.002.022.004.15.037.301.066.454.086.1.013.202.016.303.02.068.004.13.014.2.014.124 0 .253-.008.383-.021.014 0 .028-.004.044-.006.105-.012.212-.027.32-.049.044-.008.084-.019.126-.028.076-.018.152-.037.23-.06.06-.018.12-.04.179-.06.06-.02.12-.043.182-.067.062-.023.113-.05.17-.076.072-.033.144-.066.216-.105h.002a5.131 5.131 0 001.111-.803c.09-.083.168-.179.232-.284a4.626 4.626 0 00.682-2.033 4.68 4.68 0 00.012-.235c0-.025.004-.048.004-.073 0-.06-.006-.117-.008-.176zm-.864.284c0 .036-.003.072-.005.107a3.04 3.04 0 01-1.562 2.438 3.36 3.36 0 01-.16.08l-.035.017a3.127 3.127 0 01-.79.239l-.059.01a3.078 3.078 0 01-.372.029h-.09a3.054 3.054 0 01-.307-.019l-.052-.006a3.033 3.033 0 01-.357-5.943 3 3 0 011.132-.07c.033.003.065.01.098.014.093.015.186.033.278.057.03.007.06.014.089.023.23.066.452.16.66.278l.1.06c.068.043.134.087.2.136.035.026.07.05.104.078.085.068.167.14.244.217.03.03.06.065.089.098a3.011 3.011 0 01.363.485l.066.108c.056.103.106.209.149.317l.048.13c.028.08.052.16.073.242.011.044.023.082.032.124.026.117.044.236.055.355.003.032.003.064.005.096.006.1.008.2.004.3zm13.006-8.344h-1.363a.423.423 0 01-.404-.284 9.033 9.033 0 00-.486-1.175.424.424 0 01.083-.49l.966-.967a1.3 1.3 0 000-1.838l-1.842-1.84a1.3 1.3 0 00-1.838 0l-.966.966a.424.424 0 01-.489.084 9 9 0 00-1.175-.49.423.423 0 01-.286-.403V2.136a1.3 1.3 0 00-1.3-1.3h-2.6a1.3 1.3 0 00-1.3 1.3v1.363a.423.423 0 01-.284.404 9.034 9.034 0 00-1.175.488.423.423 0 01-.49-.083l-.967-.966a1.303 1.303 0 00-1.838 0L5.325 5.18a1.3 1.3 0 000 1.838l1.421 1.424a.433.433 0 00.614-.612L5.938 6.408a.433.433 0 010-.613l1.839-1.84a.436.436 0 01.613 0l.968.967c.391.394.992.493 1.489.245.343-.172.698-.32 1.062-.442a1.29 1.29 0 00.875-1.226V2.136c0-.24.194-.433.434-.433h2.6c.24 0 .433.194.433.433v1.363a1.29 1.29 0 00.876 1.226c.364.122.72.27 1.062.442a1.291 1.291 0 001.489-.245l.968-.966c.17-.17.444-.17.613 0l1.839 1.84a.433.433 0 010 .612l-.966.968a1.29 1.29 0 00-.245 1.489c.172.343.32.698.442 1.062.177.525.671.878 1.226.876h1.363c.24 0 .433.194.433.433v2.6c0 .24-.194.433-.433.433h-1.363a1.289 1.289 0 00-1.226.876c-.122.364-.27.72-.442 1.063a1.29 1.29 0 00.245 1.488l.966.968c.17.17.17.444 0 .613l-1.84 1.839a.433.433 0 01-.612 0l-1.424-1.421a.433.433 0 00-.622.603l.01.01 1.424 1.422a1.3 1.3 0 001.838 0l1.838-1.84a1.3 1.3 0 000-1.837l-.965-.967a.425.425 0 01-.083-.489c.19-.38.354-.772.49-1.175a.423.423 0 01.403-.286h1.363a1.3 1.3 0 001.3-1.3v-2.6a1.3 1.3 0 00-1.3-1.3z"/><path d="M18.5 8.553a5.639 5.639 0 00-7.966 0 .433.433 0 00.613.612 4.767 4.767 0 116.741 6.741.433.433 0 10.602.624l.01-.01a5.639 5.639 0 000-7.967z"/></g><defs><clipPath id="clip0"><path fill="#fff" transform="translate(.218 .836)" d="M0 0h26v26H0z"/></clipPath></defs></svg>