<svg width="26" height="26" fill="none" xmlns="http://www.w3.org/2000/svg"><g clip-path="url(#clip0)"><path d="M24.602 0H1.422c-.41 0-.784.228-.97.592-.19.368-.157.812.085 1.149l8.492 11.963.009.012c.309.417.475.921.476 1.44v9.753a1.084 1.084 0 001.513 1.006l4.772-1.82c.427-.13.711-.534.711-1.02v-7.92c0-.518.168-1.022.476-1.439l.009-.012 8.492-11.963c.242-.337.275-.78.086-1.15a1.089 1.089 0 00-.971-.59zm-8.68 12.934a3.758 3.758 0 00-.732 2.222v7.759l-4.356 1.66v-9.42a3.756 3.756 0 00-.732-2.22L1.857 1.32h22.31l-8.245 11.614z" fill="#fff"/></g><defs><clipPath id="clip0"><path fill="#fff" d="M0 0h26v26H0z"/></clipPath></defs></svg>