<svg width="26" height="26" fill="none" xmlns="http://www.w3.org/2000/svg"><g clip-path="url(#clip0)"><path d="M26 15.44c0-.652-.259-1.259-.704-1.707a2.69 2.69 0 00.692-2.068c-.126-1.377-1.367-2.456-2.824-2.456h-6.69c.328-1.007.86-2.851.86-4.333 0-2.35-1.997-4.334-3.25-4.334a3.4 3.4 0 00-1.965.66.543.543 0 00-.202.424v3.672l-3.12 6.761-.13.065v-.207a.542.542 0 00-.542-.541H2.708A2.712 2.712 0 000 14.084v8.667a2.712 2.712 0 002.708 2.708h3.25a2.716 2.716 0 002.55-1.79c.902.464 2.115.708 2.868.708h9.944c1.18 0 2.211-.797 2.454-1.893a2.444 2.444 0 00-.195-1.627 2.428 2.428 0 001.083-3.251A2.427 2.427 0 0026 15.439zM7.583 22.75c0 .896-.73 1.626-1.625 1.626h-3.25c-.897 0-1.625-.73-1.625-1.625v-8.667c0-.896.73-1.625 1.625-1.625v.005h4.873v.542l.002.009v9.736zm16.131-5.973a.539.539 0 00-.31.93 1.341 1.341 0 01-.772 2.319.539.539 0 00-.31.93c.358.338.5.81.393 1.294-.133.604-.72 1.042-1.396 1.042h-9.944c-.805 0-2.1-.348-2.708-.8V13.34l.78-.39a.548.548 0 00.25-.258l3.25-7.042a.543.543 0 00.05-.226V1.926a2.283 2.283 0 011.083-.295c.594 0 2.167 1.476 2.167 3.25 0 1.905-1.037 4.655-1.048 4.682a.54.54 0 00.507.734h7.455c.903 0 1.67.645 1.746 1.47a1.615 1.615 0 01-.77 1.534.54.54 0 00.037.942c.457.234.74.694.74 1.198a1.35 1.35 0 01-1.2 1.336z" fill="#fff"/></g><defs><clipPath id="clip0"><path fill="#fff" d="M0 0h26v26H0z"/></clipPath></defs></svg>