<svg width="26" height="26" fill="none" xmlns="http://www.w3.org/2000/svg"><path d="M20.9 24.118a.526.526 0 01-.34-.125l-5.27-4.468H3.613C1.621 19.525 0 17.895 0 15.891V5.518c0-2.004 1.621-3.635 3.614-3.635h18.772c1.993 0 3.614 1.63 3.614 3.635V15.89c0 2.004-1.621 3.634-3.614 3.634h-.96v4.062a.53.53 0 01-.527.53zM3.613 2.944a2.569 2.569 0 00-2.559 2.574V15.89a2.569 2.569 0 002.56 2.573h11.867c.125 0 .245.044.34.125l4.55 3.857v-3.451a.53.53 0 01.527-.531h1.487a2.569 2.569 0 002.559-2.573V5.518a2.569 2.569 0 00-2.56-2.574H3.616z" fill="#fff"/><path d="M21.499 7.825H4.5a.53.53 0 01-.527-.53.53.53 0 01.527-.53h17a.53.53 0 01.527.53.53.53 0 01-.527.53zm0 3.398H4.5a.53.53 0 01-.527-.53.53.53 0 01.527-.531h17a.53.53 0 01.527.53.53.53 0 01-.527.531zm0 3.397H4.5a.53.53 0 01-.527-.53.53.53 0 01.527-.53h17a.53.53 0 01.527.53.53.53 0 01-.527.53z" fill="#fff"/></svg>