<svg width="26" height="26" fill="none" xmlns="http://www.w3.org/2000/svg"><g clip-path="url(#clip0)"><path d="M25.436 11.835a1.852 1.852 0 00.471-1.911 1.853 1.853 0 00-1.505-1.27l-6.296-.914a.822.822 0 01-.62-.45l-2.814-5.705A1.853 1.853 0 0013 .545c-.714 0-1.356.399-1.672 1.04L8.513 7.289a.823.823 0 01-.62.45l-6.295.916A1.852 1.852 0 00.093 9.924c-.221.68-.04 1.412.471 1.91l4.555 4.44c.195.19.284.463.238.73l-1.075 6.27a1.853 1.853 0 00.741 1.823 1.85 1.85 0 001.964.142l5.63-2.96a.824.824 0 01.766 0l5.63 2.96a1.857 1.857 0 001.964-.142c.579-.421.863-1.12.742-1.824l-1.076-6.269a.824.824 0 01.238-.729l4.555-4.44zm-5.818 5.345l1.075 6.27a.808.808 0 01-.328.805.811.811 0 01-.866.063l-5.631-2.961a1.873 1.873 0 00-1.736 0l-5.63 2.96a.812.812 0 01-.867-.062.81.81 0 01-.327-.806l1.075-6.269a1.865 1.865 0 00-.536-1.65L1.29 11.09a.807.807 0 01-.208-.845.808.808 0 01.664-.56l6.295-.915a1.862 1.862 0 001.404-1.02l2.815-5.705a.808.808 0 01.74-.458c.32 0 .596.171.738.458l2.815 5.705c.272.55.796.932 1.404 1.02l6.295.915a.808.808 0 01.665.56.808.808 0 01-.209.844l-4.554 4.44a1.864 1.864 0 00-.536 1.651z" fill="#fff"/></g><defs><clipPath id="clip0"><path fill="#fff" d="M0 0h26v26H0z"/></clipPath></defs></svg>