<svg width="26" height="26" fill="none" xmlns="http://www.w3.org/2000/svg"><g clip-path="url(#clip0)" fill="#fff"><path d="M22.192 3.808A12.915 12.915 0 0013 0a12.915 12.915 0 00-9.192 3.808A12.915 12.915 0 000 13.001c0 3.472 1.352 6.737 3.808 9.192A12.915 12.915 0 0013 26c3.472 0 6.737-1.352 9.192-3.807A12.915 12.915 0 0026 13c0-3.472-1.352-6.737-3.808-9.192zM13 24.478c-6.328 0-11.477-5.15-11.477-11.478C1.523 6.673 6.672 1.524 13 1.524S24.477 6.672 24.477 13c0 6.328-5.149 11.476-11.477 11.476z"/><path d="M19.211 8.83a.762.762 0 00-1.077 0l-6.727 6.726-3.54-3.541a.762.762 0 00-1.078 1.077l4.08 4.08a.76.76 0 001.077 0l7.265-7.266a.762.762 0 000-1.077z"/></g><defs><clipPath id="clip0"><path fill="#fff" d="M0 0h26v26H0z"/></clipPath></defs></svg>