<svg width="27" height="27" fill="none" xmlns="http://www.w3.org/2000/svg"><g clip-path="url(#clip0)" fill="#fff"><path d="M26.408 6.768v-.029c-.028-.056-.056-.084-.084-.112l-.028-.028c-.028 0-.028-.028-.056-.028s-.056-.028-.085-.028h-.028L9.265.95a.395.395 0 00-.393.056L.609 6.571l-.028.028c-.028.028-.084.056-.084.112 0 .028-.028.028-.028.057-.028.028-.028.084-.028.14v13.518a.373.373 0 00.28.421L16.77 25.85c.056 0 .084.028.14.028.056 0 .113 0 .169-.028h.056l9.078-5.003a.448.448 0 00.224-.393V6.88c0-.056-.028-.084-.028-.112zM9.181 1.878l15.682 5.17-3.457 1.884L6.033 4.013l3.148-2.135zm7.279 22.904L1.312 20.089V7.583l15.148 4.693v12.506zm.393-13.35L1.903 6.797 5.05 4.66l15.232 4.89-3.429 1.883zm8.684 8.713L17.36 24.64V12.22l8.178-4.497v12.422z"/><path d="M23.626 11.32a.461.461 0 00-.618-.197l-3.064 1.602a.461.461 0 00-.196.619.454.454 0 00.393.252c.085 0 .14-.028.225-.056l3.063-1.602a.461.461 0 00.197-.618z"/></g><defs><clipPath id="clip0"><path fill="#fff" transform="translate(.436 .4)" d="M0 0h26v26H0z"/></clipPath></defs></svg>