<svg width="27" height="27" fill="none" xmlns="http://www.w3.org/2000/svg"><g clip-path="url(#clip0)" fill="#fff"><path d="M20.749 19.088a1.219 1.219 0 100 2.437 1.219 1.219 0 000-2.437zm0 1.625a.406.406 0 110-.813.406.406 0 010 .813zm-14.625.812a1.219 1.219 0 100-2.438 1.219 1.219 0 000 2.438zm0-1.625a.407.407 0 110 .813.407.407 0 010-.813z"/><path d="M25.57 14.417L22.32 8.73a.408.408 0 00-.352-.205h-4.47V5.681a.406.406 0 00-.405-.406H13.18a5.27 5.27 0 00-7.613 0H1.655a.406.406 0 00-.406.406v14.625a.406.406 0 00.406.407h2.066a2.44 2.44 0 001.058 1.625h-3.53a.406.406 0 100 .812h22.699a.406.406 0 000-.812h-1.854a2.44 2.44 0 001.058-1.625h2.066a.406.406 0 00.406-.407V14.62c0-.07-.019-.14-.053-.202zm-3.142-3.86l2.09 3.656H19.53v-3.657h2.898zM5.98 6.026a.408.408 0 00.155-.171 4.467 4.467 0 11-.155.172zm-3.919.06h2.864a5.281 5.281 0 108.897 0h2.864V16.65H2.061V6.088zM3.721 19.9H2.06v-2.437h14.625V19.9h-8.16a2.437 2.437 0 00-4.805 0zm2.403 2.031a1.625 1.625 0 110-3.249 1.625 1.625 0 010 3.25zm1.345.407a2.44 2.44 0 001.058-1.625h9.819a2.442 2.442 0 001.058 1.625H7.469zm13.28-.407a1.625 1.625 0 110-3.249 1.625 1.625 0 010 3.25zm4.062-4.875H24a.406.406 0 110-.812h.812v.812zm0-1.625H24a1.219 1.219 0 100 2.438h.812V19.9h-1.66a2.437 2.437 0 00-4.805 0H17.5V9.338h4.233l.232.406h-2.84a.406.406 0 00-.406.406v4.469a.406.406 0 00.406.406h5.687v.406zm.762 6.907h-.406a.406.406 0 000 .812h.406a.407.407 0 000-.812z"/><path d="M6.693 10.475l1.625 1.219a.406.406 0 00.549-.058l2.844-3.25a.406.406 0 00-.612-.535l-2.595 2.967-1.324-.993a.406.406 0 10-.487.65z"/></g><defs><clipPath id="clip0"><path fill="#fff" transform="translate(.436 .4)" d="M0 0h26v26H0z"/></clipPath></defs></svg>