<svg width="27" height="27" fill="none" xmlns="http://www.w3.org/2000/svg"><path d="M23.758 22.186h-.013v-1.334c0-.168-.15-.291-.319-.291H10.133a.29.29 0 00-.301.291v1.334H9.8a1.703 1.703 0 00-1.697 1.718v.462a.292.292 0 00.287.308h16.777a.306.306 0 00.303-.308v-.462a1.719 1.719 0 00-1.713-1.718zM10.44 21.17h12.696v1.016H10.44V21.17zm14.422 2.895H8.714v-.161A1.094 1.094 0 019.8 22.795h13.958a1.108 1.108 0 011.104 1.109v.16zM9.69 14.428a.305.305 0 00.432 0l1.01-1.01a.304.304 0 000-.43l-.373-.373.92-.92 1.374 1.374-.09.09a.305.305 0 000 .431l.55.551-.167.168a.304.304 0 000 .43l.67.672a.955.955 0 001.351 0l4.042-4.042a.956.956 0 000-1.351l-.67-.67a.305.305 0 00-.431 0l-.168.167-.551-.551a.305.305 0 00-.431 0l-.09.09-4.303-4.302.09-.09a.305.305 0 000-.431l-.551-.552.168-.167a.305.305 0 000-.431l-.67-.671a.956.956 0 00-1.352 0L6.41 6.452a.956.956 0 000 1.35l.67.672a.305.305 0 00.431 0l.168-.168.551.551a.305.305 0 00.431 0l.09-.09 1.374 1.373-.92.92-.372-.372a.306.306 0 00-.431 0l-1.01 1.01a.305.305 0 000 .43l.131.131-5.494 4.888a1.872 1.872 0 001.243 3.272h.057a1.855 1.855 0 001.344-.628l4.888-5.494.13.13zm8.833-4.434l.455.455a.346.346 0 010 .489l-4.042 4.042a.346.346 0 01-.489 0l-.455-.456 4.53-4.53zm-1.15-.384l.336.336-3.765 3.764-.335-.335 3.764-3.765zM7.295 7.827l-.456-.455a.346.346 0 010-.49l4.042-4.041a.345.345 0 01.49 0l.454.455-4.53 4.531zm1.15.383l-.336-.335 3.764-3.765.336.336L8.444 8.21zm.736.125l3.153-3.152 4.302 4.302-3.152 3.153L9.18 8.335zm1.374 2.236l.693.693-.92.92-.693-.693.92-.92zm-1.939.763l1.869 1.869-.579.578-1.868-1.868.578-.579zm-4.4 8.052a1.264 1.264 0 11-1.783-1.784l5.52-4.911 1.175 1.174-4.911 5.52z" fill="#fff"/><path d="M12.416 6.236a.305.305 0 00-.431.43l.287.288a.303.303 0 00.431 0 .304.304 0 000-.43l-.287-.288zm2.764 3.5a.305.305 0 00.216-.52L13.349 7.17a.305.305 0 00-.43.431l2.046 2.047a.305.305 0 00.215.09z" fill="#fff"/></svg>