<svg width="13" height="14" fill="none" xmlns="http://www.w3.org/2000/svg"><g clip-path="url(#clip0)" fill="#21A101"><path d="M7.384 9.135a.618.618 0 00-.174-.126 2.093 2.093 0 00-.439-.155v1.163c.244-.028.523-.116.651-.343a.531.531 0 00.048-.363.365.365 0 00-.086-.176zm.037.541l.002-.002-.002.002zM5.628 7.277a.49.49 0 00-.05.43.362.362 0 00.14.155c.066.044.137.079.21.108.06.024.13.048.204.07V6.989c-.187.04-.392.125-.504.289zm1.8 2.389l-.006.009.006-.01zm.005-.012s.001 0 0 0z"/><path d="M7.18 3.329C8.17 2.498 8.83.626 8.425.544c-.54-.108-1.714.369-2.28.453-.805.097-1.681-.872-2.173-.332-.4.44.287 2.037 1.36 2.733-3.204 1.575-7.708 9.48.15 10.055 10.872.793 5.428-8.59 1.7-10.124zm.935 6.235a1.143 1.143 0 01-.441.776c-.258.2-.582.293-.903.319v.34c0 .091-.04.18-.108.24a.322.322 0 01-.345.05.323.323 0 01-.186-.29v-.372a2.13 2.13 0 01-.164-.038 1.57 1.57 0 01-.782-.481 1.41 1.41 0 01-.281-.514c-.011-.036-.022-.072-.026-.108a.32.32 0 01.622-.133c.012.037.02.074.034.11a.815.815 0 00.19.285.94.94 0 00.407.222V8.705c-.294-.076-.597-.174-.839-.362a.976.976 0 01-.283-.34 1.064 1.064 0 01-.099-.458 1.09 1.09 0 01.358-.824c.236-.217.549-.337.863-.382v-.353c0-.091.04-.18.108-.24a.322.322 0 01.345-.051.323.323 0 01.186.29v.353c.042.005.084.012.125.02.308.055.61.182.835.404a1.22 1.22 0 01.331.599.32.32 0 01-.615.162c-.013-.035-.02-.072-.034-.107a.61.61 0 00-.203-.26 1.037 1.037 0 00-.439-.17v1.21c.185.044.37.092.546.162.268.105.521.267.667.522a1.935 1.935 0 010 .001 1.14 1.14 0 01.13.683zm-.697.118l-.005.01.005-.01z"/></g><defs><clipPath id="clip0"><path fill="#fff" transform="translate(0 .5)" d="M0 0h13v13H0z"/></clipPath></defs></svg>