<svg width="13" height="14" fill="none" xmlns="http://www.w3.org/2000/svg"><g clip-path="url(#clip0)"><path d="M4.4 13.5C2.955 8.738 6.01 7 6.01 7c-.214 2.54 1.23 4.52 1.23 4.52.531-.16 1.545-.91 1.545-.91 0 .91-.535 2.889-.535 2.889s1.872-1.448 2.462-3.853C11.3 7.242 9.59 4.828 9.59 4.828a6.448 6.448 0 01-1.6 4.654.922.922 0 00.14-.216c.202-.405.528-1.458.337-3.898C8.198 1.944 5.096.5 5.096.5c.267 2.086-.535 2.567-2.414 6.527C.804 10.987 4.4 13.5 4.4 13.5z" fill="#F9451E"/></g><defs><clipPath id="clip0"><path fill="#fff" transform="translate(0 .5)" d="M0 0h13v13H0z"/></clipPath></defs></svg>