<svg width="20" height="20" fill="none" xmlns="http://www.w3.org/2000/svg"><g clip-path="url(#clip0)" fill="#FF600E"><path d="M7.234 18.195A3.026 3.026 0 0010 20a3.026 3.026 0 002.765-1.805h-5.53zM10 1.91a6.79 6.79 0 012.32.407v-.089C12.32.999 11.32 0 10.092 0h-.184A2.23 2.23 0 007.68 2.228v.088A6.809 6.809 0 0110 1.911zm7.323 15.113H2.677a.597.597 0 01-.589-.458.57.57 0 01.313-.648c.06-.038.503-.348.946-1.285.815-1.722.986-4.148.986-5.88A5.673 5.673 0 0110 3.086a5.673 5.673 0 015.667 5.666c0 1.732.17 4.158.986 5.88.443.937.887 1.247.946 1.285a.57.57 0 01.313.648.597.597 0 01-.589.458zm.282-1.101z"/></g><defs><clipPath id="clip0"><path fill="#fff" d="M0 0h20v20H0z"/></clipPath></defs></svg>