<svg width="36" height="36" fill="none" xmlns="http://www.w3.org/2000/svg"><g clip-path="url(#clip0)"><path d="M20.255 18.616h-.036c-.05.053-.127.078-.228.078l-5.303 4.966-.15 7.071-1.618 1.62c-.05.05-.149.073-.302.073-.199 0-.344-.06-.43-.188a1.566 1.566 0 01-.206-.412l-.98-3.912a.349.349 0 00-.188-.264.602.602 0 00-.263-.074.723.723 0 00-.603.283 5.73 5.73 0 01-.414.466c-.425.354-.951.527-1.581.527-.575 0-.865-.274-.865-.827 0-.275.044-.55.133-.827.088-.275.22-.513.395-.715l.64-.714c0-.026.012-.05.036-.076.027-.025.04-.051.04-.078.074-.075.112-.15.112-.226 0-.098-.052-.194-.152-.281a.782.782 0 00-.3-.17l-4.023-.98c-.277-.098-.416-.311-.416-.638v-.038c0-.025.015-.085.038-.188l1.542-1.542c.05-.025.12-.06.206-.113a.479.479 0 01.171-.076h6.545a.665.665 0 00.17-.055c.086-.038.144-.08.17-.134l4.852-5.19c.05-.05.076-.14.076-.265 0-.25-.102-.425-.3-.527L.282 9.737C.157 9.71.09 9.642.076 9.53a2.53 2.53 0 01-.02-.281v-.183c0-.077.025-.138.075-.188l1.317-1.279c.025-.05.081-.1.17-.15a.465.465 0 01.206-.075h23.397l5.716-6.055c.402-.427.91-.753 1.527-.978A5.131 5.131 0 0134.252 0c.374 0 .723.084 1.033.245.314.163.534.47.66.92v.602c0 .478-.077 1.004-.226 1.581-.15.577-.413 1.029-.79 1.354l-6.168 5.907c-.077.05-.118.134-.132.245-.012.112-.02.195-.02.243v22.345c0 .05-.015.187-.038.412a4.768 4.768 0 00-.036.415.34.34 0 01-.057.169.31.31 0 01-.132.133l-1.204 1.242c-.177.127-.314.188-.415.188-.25 0-.424-.135-.524-.414l-5.416-16.476a.67.67 0 00-.187-.338.487.487 0 00-.345-.157z" fill="#3E80FE"/></g><defs><clipPath id="clip0"><path fill="#fff" d="M0 0h36v36H0z"/></clipPath></defs></svg>