<svg width="36" height="36" fill="none" xmlns="http://www.w3.org/2000/svg"><g clip-path="url(#clip0)" fill="#3E80FE"><path d="M13.125 26.418v6.957A1.127 1.127 0 0014.25 34.5c.351 0 .69-.165.906-.459l4.07-5.538-6.1-2.085zM35.527.208a1.125 1.125 0 00-1.173-.08L.604 17.751a1.126 1.126 0 00.156 2.063l9.383 3.207L30.124 5.937 14.662 24.565l15.725 5.375a1.13 1.13 0 00.948-.104 1.13 1.13 0 00.528-.795l4.125-27.75a1.127 1.127 0 00-.46-1.083z"/></g><defs><clipPath id="clip0"><path fill="#fff" d="M0 0h36v36H0z"/></clipPath></defs></svg>