<svg width="36" height="36" fill="none" xmlns="http://www.w3.org/2000/svg"><g clip-path="url(#clip0)" fill="#3E80FE"><path d="M35.262.004C28.234-.122 20.22 3.552 15.147 9.25a19.034 19.034 0 00-13.044 5.555.751.751 0 00.42 1.276l5.78.828-.713.8a.75.75 0 00.03 1.03l9.64 9.64a.748.748 0 001.03.03l.8-.715.828 5.781c.04.282.263.49.531.58.07.022.141.032.215.032.213 0 .43-.093.58-.241 3.428-3.428 5.415-8.148 5.507-12.996 5.704-5.084 9.408-13.095 9.244-20.114a.754.754 0 00-.733-.732zM28.35 12.952a3.738 3.738 0 01-2.652 1.097 3.738 3.738 0 01-2.652-1.097 3.757 3.757 0 010-5.304 3.754 3.754 0 015.304 0 3.754 3.754 0 010 5.304zM4.086 25.357C2.481 26.962.278 34.213.032 35.034a.752.752 0 00.934.934c.821-.246 8.072-2.45 9.677-4.055a4.642 4.642 0 000-6.556 4.643 4.643 0 00-6.557 0z"/></g><defs><clipPath id="clip0"><path fill="#fff" d="M0 0h36v36H0z"/></clipPath></defs></svg>