<svg width="44" height="44" fill="none" xmlns="http://www.w3.org/2000/svg"><g clip-path="url(#clip0)" fill="#fff"><path d="M41.25 36.666H2.75A2.753 2.753 0 010 33.916V10.083a2.753 2.753 0 012.75-2.75h5.5a.917.917 0 010 1.833h-5.5a.918.918 0 00-.917.917v23.833c0 .505.411.917.917.917h38.5a.918.918 0 00.917-.917V10.083a.918.918 0 00-.917-.917h-5.5a.917.917 0 010-1.833h5.5a2.753 2.753 0 012.75 2.75v23.833a2.753 2.753 0 01-2.75 2.75zM30.25 44h-16.5a.917.917 0 010-1.833h16.5a.917.917 0 010 1.833z"/><path d="M19.25 44a.917.917 0 01-.917-.917V35.75a.917.917 0 011.834 0v7.333a.918.918 0 01-.917.917zm5.5 0a.917.917 0 01-.917-.917V35.75a.917.917 0 011.834 0v7.333a.918.918 0 01-.917.917zm-2.756-22a.907.907 0 01-.384-.087l-10.078-4.682a.914.914 0 01-.532-.83V5.599c0-.314.16-.605.424-.774a.919.919 0 01.878-.057L22.38 9.451c.324.15.531.474.531.83v10.802a.918.918 0 01-.917.917zm-9.16-6.184l8.244 3.832v-8.782l-8.245-3.832v8.782z"/><path d="M22.005 22a.914.914 0 01-.916-.916V10.28c0-.356.207-.68.531-.83l10.078-4.683a.923.923 0 01.878.057c.264.17.424.462.424.775v10.804c0 .356-.207.68-.532.83L22.39 21.917a.934.934 0 01-.385.084zm.917-11.133v8.781l8.245-3.832V7.035l-8.245 3.832zm9.161 5.534h.019-.019z"/><path d="M32.083 6.516a.905.905 0 01-.385-.086l-9.69-4.501-9.706 4.5a.917.917 0 11-.77-1.661L21.62.087a.916.916 0 01.771 0L32.47 4.77a.917.917 0 01-.387 1.747z"/><path d="M27.5 12.834a.917.917 0 01-.917-.917V8.324l-9.45-4.509a.916.916 0 11.79-1.653l9.91 4.726a.925.925 0 01.584.849v4.18a.918.918 0 01-.917.917z"/></g><defs><clipPath id="clip0"><path fill="#fff" d="M0 0h44v44H0z"/></clipPath></defs></svg>