<svg width="44" height="44" fill="none" xmlns="http://www.w3.org/2000/svg"><g clip-path="url(#clip0)" fill="#fff"><path d="M32.083 44c-6.57 0-11.916-5.346-11.916-11.916 0-6.571 5.346-11.917 11.916-11.917S44 25.513 44 32.084C44 38.654 38.654 44 32.083 44zm0-22C26.523 22 22 26.525 22 32.084c0 5.558 4.523 10.083 10.083 10.083 5.56 0 10.084-4.525 10.084-10.083C42.167 26.525 37.644 22 32.083 22z"/><path d="M30.25 36.667a.927.927 0 01-.65-.268l-3.666-3.667a.917.917 0 011.296-1.296l2.974 2.974 5.771-6.596a.914.914 0 011.295-.087c.381.334.42.912.086 1.293l-6.417 7.333a.924.924 0 01-.66.314h-.03zm-12.833-.001H4.583a2.753 2.753 0 01-2.75-2.75V13.75c0-.506.411-.917.917-.917h31.167c.506 0 .916.41.916.917v3.776a.917.917 0 01-1.833 0v-2.86H3.667v19.25c0 .505.41.917.916.917h12.834a.917.917 0 010 1.833z"/><path d="M22.917 20.166H13.75a.917.917 0 010-1.833h9.167a.917.917 0 010 1.833zm12.833-5.499H.917A.917.917 0 010 13.75V6.417C0 5.91.41 5.5.917 5.5H35.75c.506 0 .917.41.917.917v7.333a.918.918 0 01-.917.917zM1.833 12.833h33v-5.5h-33v5.5z"/><path d="M35.75 7.333a.92.92 0 01-.65-.267l-5.23-5.233H6.796l-5.23 5.233A.917.917 0 01.269 5.77l5.5-5.5A.91.91 0 016.417 0H30.25a.92.92 0 01.649.268l5.5 5.5a.917.917 0 01-.65 1.565z"/></g><defs><clipPath id="clip0"><path fill="#fff" d="M0 0h44v44H0z"/></clipPath></defs></svg>