<svg width="44" height="44" fill="none" xmlns="http://www.w3.org/2000/svg"><g clip-path="url(#clip0)" fill="#fff"><path d="M38.042 40.334h-5.959a.917.917 0 010-1.834h5.959a2.295 2.295 0 002.291-2.291 2.295 2.295 0 00-2.291-2.292h-2.75a4.13 4.13 0 01-4.125-4.125 4.13 4.13 0 014.125-4.125h5.958a.917.917 0 010 1.833h-5.958A2.295 2.295 0 0033 29.792a2.295 2.295 0 002.292 2.292h2.75a4.13 4.13 0 014.125 4.125 4.13 4.13 0 01-4.125 4.125z"/><path d="M36.689 44a.917.917 0 01-.917-.917v-3.287a.917.917 0 011.833 0v3.287a.916.916 0 01-.916.917zm0-16.5a.917.917 0 01-.917-.917v-3.666a.917.917 0 011.833 0v3.666a.916.916 0 01-.916.917zm-.939-7.333a.917.917 0 01-.917-.917v-8.142l-16.078 8.045a.916.916 0 11-.82-1.639l17.406-8.708a.918.918 0 011.326.82v9.624a.918.918 0 01-.917.917z"/><path d="M18.322 36.666a.926.926 0 01-.427-.106L.49 27.393a.916.916 0 01-.49-.81V9.625a.918.918 0 011.327-.82l17.406 8.709c.31.155.506.473.506.82V35.75a.916.916 0 01-.917.916zM1.833 26.03l15.573 8.202V18.9L1.833 11.108v14.921z"/><path d="M35.75 10.542a.91.91 0 01-.409-.097L18.322 1.942 1.327 10.445a.917.917 0 01-.821-1.639L17.912.097a.92.92 0 01.82 0l17.427 8.709a.918.918 0 01.41 1.23.914.914 0 01-.819.506z"/><path d="M9.246 21.521a.917.917 0 01-.917-.916v-6.817a.92.92 0 01.506-.82l17.406-8.707a.917.917 0 11.82 1.64l-16.899 8.456v6.25a.914.914 0 01-.916.914zm9.076 15.146a.917.917 0 01-.4-1.742l10.095-4.875a.917.917 0 01.796 1.65l-10.095 4.875a.895.895 0 01-.396.092z"/></g><defs><clipPath id="clip0"><path fill="#fff" d="M0 0h44v44H0z"/></clipPath></defs></svg>