<svg width="38" height="39" viewBox="0 0 38 39" fill="none" xmlns="http://www.w3.org/2000/svg">
<g clip-path="url(#clip0)">
<path d="M15.7344 7.02295C15.7344 7.43264 16.0669 7.76514 16.4766 7.76514C16.8863 7.76514 17.2188 7.43264 17.2188 7.02295C17.2188 6.61326 16.8863 6.28076 16.4766 6.28076C16.0669 6.28076 15.7344 6.61326 15.7344 7.02295Z" fill="#236EFF"/>
<path d="M29.8359 22.0151C25.3343 22.0151 21.6719 25.6775 21.6719 30.1792C21.6719 34.6809 25.3343 38.3433 29.8359 38.3433C34.3376 38.3433 38 34.6809 38 30.1792C38 25.6775 34.3376 22.0151 29.8359 22.0151ZM29.8359 36.8589C26.1528 36.8589 23.1562 33.8624 23.1562 30.1792C23.1562 26.496 26.1528 23.4995 29.8359 23.4995C33.5191 23.4995 36.5156 26.496 36.5156 30.1792C36.5156 33.8624 33.5191 36.8589 29.8359 36.8589Z" fill="#236EFF"/>
<path d="M29.91 29.3843C29.5008 29.3843 29.1678 29.0513 29.1678 28.6421C29.1678 28.2328 29.5008 27.8999 29.91 27.8999C30.1729 27.8999 30.4505 28.0341 30.7127 28.2878C31.0073 28.5728 31.4771 28.5652 31.7622 28.2706C32.0472 27.9761 32.0395 27.5062 31.745 27.2211C31.3683 26.8566 30.9914 26.6504 30.6522 26.5379V25.6733C30.6522 25.2635 30.3198 24.9312 29.91 24.9312C29.5002 24.9312 29.1678 25.2635 29.1678 25.6733V26.5432C28.304 26.8496 27.6834 27.6745 27.6834 28.6421C27.6834 29.8698 28.6823 30.8687 29.91 30.8687C30.3192 30.8687 30.6522 31.2016 30.6522 31.6108C30.6522 32.0201 30.3192 32.353 29.91 32.353C29.5929 32.353 29.2506 32.1536 28.9463 31.7916C28.6825 31.4778 28.2143 31.4374 27.9006 31.7011C27.5868 31.9649 27.5464 32.433 27.8101 32.7468C28.2068 33.2188 28.6734 33.5477 29.1678 33.7135V34.5796C29.1678 34.9894 29.5002 35.3218 29.91 35.3218C30.3198 35.3218 30.6522 34.9894 30.6522 34.5796V33.7097C31.516 33.4034 32.1366 32.5784 32.1366 31.6108C32.1366 30.3831 31.1377 29.3843 29.91 29.3843Z" fill="#236EFF"/>
<path d="M23.0684 10.3419C23.1975 10.1006 23.1834 9.80779 23.0316 9.58001L17.0941 0.673758C16.9565 0.467281 16.7248 0.343262 16.4766 0.343262C16.2284 0.343262 15.9967 0.467281 15.8591 0.673758L9.92156 9.58001C9.76971 9.80771 9.75561 10.1006 9.88475 10.3419C10.0139 10.5832 10.2654 10.7339 10.5391 10.7339H12.7656V19.0464H7.125C6.71516 19.0464 6.38281 19.3787 6.38281 19.7886V23.4995H0.742188C0.332352 23.4995 0 23.8319 0 24.2417V37.6011C0 38.0109 0.332352 38.3433 0.742188 38.3433C1.82296 38.3433 18.3386 38.3433 19.4453 38.3433C19.8551 38.3433 20.1875 38.0109 20.1875 37.6011V10.7339H22.4141C22.6878 10.7339 22.9392 10.5832 23.0684 10.3419ZM1.48438 24.9839H6.38281V36.8589H1.48438V24.9839ZM7.86719 20.5308H12.7656V36.8589H7.86719V20.5308ZM19.4453 9.24951C19.0355 9.24951 18.7031 9.58186 18.7031 9.9917V36.8589H14.25V9.9917C14.25 9.58186 13.9176 9.24951 13.5078 9.24951H11.9259L16.4766 2.42339L21.0272 9.24951H19.4453Z" fill="#236EFF"/>
<path d="M16.4766 9.24951C16.0667 9.24951 15.7344 9.58186 15.7344 9.9917V14.4448C15.7344 14.8547 16.0667 15.187 16.4766 15.187C16.8864 15.187 17.2188 14.8547 17.2188 14.4448V9.9917C17.2188 9.58186 16.8864 9.24951 16.4766 9.24951Z" fill="#236EFF"/>
</g>
<defs>
<clipPath id="clip0">
<rect width="38" height="38" fill="white" transform="translate(0 0.343262)"/>
</clipPath>
</defs>
</svg>
