<svg width="42" height="42" viewBox="0 0 42 42" fill="none" xmlns="http://www.w3.org/2000/svg">
<g clip-path="url(#clip0)">
<path d="M21.1659 8.34277H21.166C23.457 8.34053 25.3137 6.48386 25.3159 4.19282V4.19277C25.3159 1.90076 23.4579 0.0427734 21.1659 0.0427734C18.8739 0.0427734 17.0159 1.90076 17.0159 4.19277C17.0159 6.48478 18.8739 8.34277 21.1659 8.34277ZM21.1659 6.87611C19.684 6.87611 18.4826 5.67473 18.4826 4.19277C18.4826 2.71082 19.684 1.50944 21.1659 1.50944C22.6479 1.50944 23.8492 2.71082 23.8492 4.19277C23.8492 5.67473 22.6479 6.87611 21.1659 6.87611Z" fill="#236EFF" stroke="#236EFF" stroke-width="0.1"/>
<path d="M23.8995 8.92607H23.8994H23.7382H23.7264L23.7159 8.93131L23.5717 9.00306L23.5717 9.00307C22.0567 9.7574 20.2755 9.7574 18.7605 9.00307L18.7605 9.00306L18.6163 8.93131L18.6058 8.92607H18.594L18.4328 8.92607L18.4327 8.92607C16.5192 8.92833 14.9684 10.4791 14.9661 12.3927V12.3927V16.4927C14.9661 17.6526 15.9063 18.5927 17.0661 18.5927H25.2661C26.4259 18.5927 27.3661 17.6526 27.3661 16.4927V12.3927V12.3927C27.3639 10.4791 25.8131 8.92833 23.8995 8.92607ZM25.8994 16.4927C25.8994 16.8425 25.6159 17.1261 25.2661 17.1261H17.0661C16.7164 17.1261 16.4328 16.8425 16.4328 16.4927V12.3928C16.4328 12.3927 16.4328 12.3927 16.4328 12.3927C16.433 11.3477 17.2374 10.4797 18.278 10.399C20.1105 11.2453 22.2219 11.2453 24.0542 10.399C25.0947 10.4797 25.8993 11.3477 25.8994 12.3928V16.4927Z" fill="#236EFF" stroke="#236EFF" stroke-width="0.1"/>
<path d="M35.5161 22.5926H35.516C33.224 22.5926 31.366 24.4506 31.366 26.7426C31.366 29.0346 33.224 30.8926 35.516 30.8926C37.808 30.8926 39.666 29.0346 39.666 26.7426V26.7425C39.6638 24.4515 37.8071 22.5948 35.5161 22.5926ZM35.516 29.4259C34.0341 29.4259 32.8327 28.2245 32.8327 26.7426C32.8327 25.2606 34.0341 24.0592 35.516 24.0592C36.998 24.0592 38.1993 25.2606 38.1993 26.7426C38.1993 28.2245 36.998 29.4259 35.516 29.4259Z" fill="#236EFF" stroke="#236EFF" stroke-width="0.1"/>
<path d="M38.2495 31.4759H38.2494H38.0882H38.0769L38.0667 31.4807L37.9226 31.549L37.9226 31.549L37.9217 31.5495C36.4067 32.3037 34.6255 32.3037 33.1105 31.5495L33.1105 31.5494L33.1096 31.549L32.9654 31.4807L32.9553 31.4759H32.944L32.7828 31.4759L32.7827 31.4759C30.8691 31.4781 29.3183 33.0289 29.3161 34.9425V34.9425V39.0425C29.3161 40.2024 30.2563 41.1426 31.4161 41.1426H39.6161C40.7759 41.1426 41.7161 40.2024 41.7161 39.0425V34.9425V34.9425C41.7138 33.0289 40.163 31.4781 38.2495 31.4759ZM40.2494 39.0425C40.2494 39.3923 39.9658 39.6759 39.6161 39.6759H31.4161C31.0663 39.6759 30.7828 39.3923 30.7828 39.0425V34.9426C30.7828 34.9426 30.7828 34.9425 30.7828 34.9425C30.7829 33.8975 31.5874 33.0295 32.628 32.9488C34.4604 33.7951 36.5717 33.7951 38.4042 32.9488C39.4448 33.0295 40.2493 33.8975 40.2494 34.9426V39.0425Z" fill="#236EFF" stroke="#236EFF" stroke-width="0.1"/>
<path d="M6.81599 22.5926H6.81594C4.52393 22.5926 2.66594 24.4506 2.66594 26.7426C2.66594 29.0346 4.52393 30.8926 6.81594 30.8926C9.10795 30.8926 10.9659 29.0346 10.9659 26.7426V26.7425C10.9637 24.4515 9.10702 22.5948 6.81599 22.5926ZM6.81594 29.4259C5.33399 29.4259 4.13261 28.2245 4.13261 26.7426C4.13261 25.2606 5.33399 24.0592 6.81594 24.0592C8.2979 24.0592 9.49928 25.2606 9.49928 26.7426C9.49928 28.2245 8.2979 29.4259 6.81594 29.4259Z" fill="#236EFF" stroke="#236EFF" stroke-width="0.1"/>
<path d="M9.54941 31.4759H9.54935H9.38808H9.37683L9.36667 31.4807L9.22249 31.549L9.22248 31.549L9.22162 31.5495C7.70661 32.3037 5.92543 32.3037 4.41042 31.5495L4.41042 31.5494L4.40955 31.549L4.26536 31.4807L4.2552 31.4759H4.24395L4.08268 31.4759L4.08262 31.4759C2.16906 31.4781 0.618269 33.0289 0.616016 34.9425V34.9425V39.0425C0.616016 40.2024 1.5562 41.1426 2.71602 41.1426H10.916C12.0758 41.1426 13.016 40.2024 13.016 39.0425V34.9425V34.9425C13.0138 33.0289 11.463 31.4781 9.54941 31.4759ZM11.5493 39.0425C11.5493 39.3923 11.2658 39.6759 10.916 39.6759H2.71602C2.36626 39.6759 2.08268 39.3923 2.08268 39.0425V34.9426C2.08268 34.9426 2.08268 34.9425 2.08268 34.9425C2.08285 33.8975 2.88734 33.0295 3.9279 32.9488C5.76036 33.7951 7.87167 33.7951 9.70413 32.9488C10.7447 33.0295 11.5492 33.8975 11.5493 34.9426V39.0425Z" fill="#236EFF" stroke="#236EFF" stroke-width="0.1"/>
<path d="M27.9918 34.776L27.9918 34.776C28.1496 35.149 27.975 35.5793 27.6021 35.737C24.0952 37.2228 20.1833 37.4489 16.5304 36.3793L17.0319 37.3379L17.0319 37.3379C17.2194 37.6972 17.0802 38.1403 16.721 38.3279C16.3617 38.5154 15.9186 38.3762 15.731 38.017C15.731 38.017 15.731 38.017 15.731 38.017L14.3659 35.4048C14.3559 35.3897 14.3544 35.3748 14.3538 35.3678L14.3536 35.3645L14.3534 35.3641L14.3535 35.364L14.3535 35.3638C14.324 35.2722 14.3006 35.1788 14.2836 35.0842L14.2823 35.0768L14.2828 35.0768C14.2798 34.973 14.2988 34.8698 14.3386 34.7739L14.3388 34.7733L14.3388 34.7733C14.3799 34.6779 14.4413 34.5926 14.5189 34.5234L14.5226 34.5202L14.5227 34.5204C14.5452 34.5039 14.5688 34.489 14.5932 34.4756C14.649 34.4332 14.7106 34.3991 14.7761 34.3743L14.7798 34.3715C14.7826 34.3694 14.7879 34.3654 14.7946 34.3621C14.7997 34.3595 14.8064 34.3569 14.8144 34.3557L17.5434 33.5554L17.5434 33.5554C17.9323 33.4416 18.3396 33.6645 18.4535 34.0533C18.5673 34.4422 18.3444 34.8495 17.9555 34.9634M27.9918 34.776L17.9415 34.9154M27.9918 34.776L27.9914 34.7752L27.9911 34.7745L27.9912 34.7745L27.9907 34.7735C27.832 34.4009 27.4013 34.2276 27.0288 34.3862M27.9918 34.776L27.0288 34.3862M17.9555 34.9634L17.9415 34.9154M17.9555 34.9634L17.9556 34.9634L17.9415 34.9154M17.9555 34.9634L17.4896 35.1003M17.9415 34.9154L17.3948 35.076C17.4264 35.0842 17.458 35.0923 17.4896 35.1003M17.4896 35.1003C20.6611 35.9014 24.0089 35.6518 27.0288 34.3862M17.4896 35.1003L17.3957 35.1279C20.6019 35.9568 23.9924 35.713 27.0483 34.4323M27.0288 34.3862C27.0289 34.3862 27.0289 34.3862 27.0289 34.3862L27.0483 34.4323M27.0288 34.3862C27.0288 34.3862 27.0287 34.3863 27.0287 34.3863L27.0483 34.4323M27.0288 34.3862L27.0483 34.4323M16.4637 36.3597L16.4313 36.2978C16.4536 36.3045 16.4759 36.3111 16.4982 36.3177L16.4637 36.3597ZM14.7747 34.3754C14.7746 34.3755 14.7746 34.3755 14.7747 34.3754L14.7747 34.3754Z" fill="#236EFF" stroke="#236EFF" stroke-width="0.1"/>
<path d="M27.5838 5.49676C27.2366 5.34882 26.8353 5.51034 26.6873 5.85756C26.5394 6.20478 26.7009 6.60615 27.0481 6.7541C31.9869 8.85309 35.4275 13.4277 36.077 18.7504L38.4495 18.0598L37.5284 18.9809C37.5264 18.9595 37.5242 18.938 37.5221 18.9166M27.5838 5.49676C33.097 7.83932 36.8895 13.0043 37.4764 18.9623L37.5221 18.9166M27.5838 5.49676L27.6034 5.45074C27.6034 5.45075 27.6034 5.45075 27.6034 5.45075C33.1208 7.79513 36.9201 12.9577 37.5221 18.9166M27.5838 5.49676L37.5221 18.9166M37.5221 18.9166L38.4142 18.0245L38.4142 18.0245C38.7005 17.7382 39.1647 17.7382 39.4511 18.0245C39.7378 18.3105 39.7384 18.7747 39.4525 19.0614L39.4525 19.0614L37.4025 21.1114L37.4019 21.112L37.4013 21.1126L37.4012 21.1127C37.1145 21.3988 36.6502 21.3981 36.3642 21.1114L37.5221 18.9166ZM36.0195 18.6928L35.3511 18.0245L35.3505 18.0239C35.0592 17.7425 34.595 17.7505 34.3136 18.0418L34.3495 18.0766L34.3136 18.0419C34.0391 18.326 34.0391 18.7766 34.3136 19.0608L34.3135 19.0608L34.3142 19.0614L36.3641 21.1114L36.0195 18.6928Z" fill="#236EFF" stroke="#236EFF" stroke-width="0.1"/>
<path d="M6.13266 20.5931C6.13266 20.9705 5.8267 21.2764 5.44933 21.2764C5.07196 21.2764 4.76599 20.9705 4.76599 20.5931M6.13266 20.5931L13.3572 6.11928C13.3388 6.12918 13.3204 6.13911 13.3021 6.14907M6.13266 20.5931C6.12926 15.3022 8.91132 10.4027 13.451 7.69389L6.13266 20.5931ZM4.76599 20.5931C4.76216 14.5713 8.06359 9.03514 13.359 6.1751L13.3021 6.14907M4.76599 20.5931H4.71599C4.71599 20.5931 4.71599 20.5931 4.71599 20.5931M4.76599 20.5931L13.4119 7.7757M13.3021 6.14907C8.00988 9.02302 4.71216 14.5655 4.71599 20.5931M13.3021 6.14907L11.9783 5.54374L11.9766 5.54295L11.9766 5.54292C11.6346 5.37049 11.4829 4.96386 11.6283 4.60957C11.7821 4.23492 12.2106 4.0559 12.5852 4.20972L12.587 4.21046L12.587 4.21049L15.3204 5.45894L15.3258 5.46142L15.3256 5.46173C15.3531 5.47848 15.3793 5.49729 15.404 5.51793M4.71599 20.5931L12.9892 8.65898C12.8145 9.02345 12.9676 9.46058 13.3315 9.63637C13.4305 9.68472 13.5391 9.70987 13.6494 9.70977H13.6494C13.931 9.70941 14.1875 9.54779 14.3094 9.29397L14.3094 9.29393L15.6761 6.44238L15.681 6.43213V6.42315L15.6832 6.41736C15.7018 6.36843 15.7149 6.31759 15.7223 6.26575C15.7342 6.22769 15.7431 6.18874 15.7488 6.14915L15.7498 6.14929L15.7493 6.13938C15.7469 6.09328 15.7402 6.04745 15.7292 6.0025C15.7266 5.96227 15.7206 5.92233 15.7111 5.88306C15.7098 5.87491 15.707 5.86827 15.7043 5.86343C15.7034 5.86175 15.7024 5.86019 15.7015 5.85878C15.7015 5.85843 15.7015 5.85807 15.7015 5.8577V5.84465L15.6951 5.83326C15.6758 5.79882 15.6536 5.766 15.6288 5.73528M4.71599 20.5931C4.716 20.9981 5.04435 21.3264 5.44933 21.3264C5.85431 21.3264 6.18266 20.9981 6.18266 20.5931V20.5931C6.17929 15.345 8.92562 10.4833 13.4119 7.7757M15.404 5.51793C15.4023 5.51703 15.4006 5.51614 15.3989 5.51526L15.3761 5.55977L15.4085 5.52168C15.407 5.52042 15.4055 5.51917 15.404 5.51793ZM15.404 5.51793C15.4539 5.54396 15.5004 5.57591 15.5425 5.61323L15.5479 5.61798L15.5475 5.61831C15.5783 5.65459 15.6056 5.69374 15.6288 5.73528M15.6288 5.73528C15.6279 5.7341 15.6269 5.73293 15.626 5.73176L15.5873 5.7634L15.631 5.73923C15.6303 5.73791 15.6296 5.7366 15.6288 5.73528ZM13.4119 7.7757L12.9892 8.65894L13.4119 7.7757Z" fill="#236EFF" stroke="#236EFF" stroke-width="0.1"/>
</g>
<defs>
<clipPath id="clip0">
<rect width="41" height="41" fill="white" transform="translate(0.666016 0.0927734)"/>
</clipPath>
</defs>
</svg>
