<svg width="39" height="40" viewBox="0 0 39 40" fill="none" xmlns="http://www.w3.org/2000/svg">
<g clip-path="url(#clip0)">
<path d="M19.0256 0.792632L19.0257 0.792614C19.1858 0.740778 19.3508 0.745034 19.4998 0.79435C19.6478 0.744541 19.8133 0.740352 19.9734 0.792632L19.0256 0.792632ZM19.0256 0.792632L3.68693 5.77754M19.0256 0.792632L3.68693 5.77754M4.68117 17.8141L4.68114 17.8141C4.66976 18.1385 4.57464 21.9983 6.38113 26.4125C8.1863 30.8236 11.8903 35.789 19.479 38.3353H19.5209C27.123 35.7831 30.823 30.6995 32.6229 26.2337C34.424 21.7647 34.322 17.9145 34.3193 17.8415L34.3192 17.8397H34.3193L34.3184 7.05228L19.5044 2.23786L19.5041 2.23775C19.5026 2.23727 19.5012 2.23676 19.4997 2.23624L4.68117 17.8141ZM4.68117 17.8141V17.8123V7.0519L19.4942 2.23804C19.4943 2.23801 19.4944 2.23798 19.4945 2.23795L4.68117 17.8141ZM3.68693 5.77754C3.37373 5.87905 3.16173 6.1705 3.16173 6.5002L3.16264 17.7845L3.68693 5.77754ZM35.3125 5.77754L19.9735 0.792656L19.1329 39.769L19.1169 39.8163C19.117 39.8164 19.117 39.8164 19.1171 39.8164C19.1943 39.8425 19.2756 39.8552 19.3562 39.8552H19.6443C19.7249 39.8552 19.8061 39.8425 19.8833 39.8164C28.0785 37.1062 32.0696 31.6389 34.0101 26.8324C35.942 22.047 35.8416 17.9164 35.8377 17.8113V6.5002C35.8377 6.17104 35.6257 5.87914 35.3125 5.77754Z" fill="#236EFF" stroke="#236EFF" stroke-width="0.1"/>
<path d="M31.3727 8.47055L31.3727 8.47052L19.8616 4.59694L19.8616 4.59694L19.8614 4.59687C19.7557 4.56181 19.647 4.55321 19.5468 4.56112C19.4465 4.55376 19.3392 4.56179 19.2326 4.59683L19.2326 4.59682L19.2322 4.59694L7.72245 8.47045L7.72237 8.47047C7.41399 8.57482 7.20525 8.8643 7.20525 9.19073L7.20616 18.0051H7.20614L7.20619 18.0066C7.20828 18.0736 7.35372 21.2641 8.93317 24.9944C10.513 28.7256 13.5288 32.9996 19.2725 35.2246L19.2726 35.2246C19.3609 35.2586 19.4544 35.2756 19.5469 35.2756C19.6395 35.2756 19.7329 35.2586 19.8212 35.2246L19.8213 35.2246C25.5652 32.9996 28.5814 28.7256 30.1616 24.9913C31.7414 21.2578 31.8873 18.061 31.8898 17.9815H31.8898V17.9799V9.19073V9.19068C31.8895 8.8644 31.6812 8.57491 31.3727 8.47055ZM19.5469 33.6998C14.4136 31.6131 11.7094 27.7104 10.2873 24.3136C8.87167 20.932 8.72814 18.0548 8.72469 17.9792V9.73669L19.5469 6.09443L30.3704 9.7367L30.3709 17.9537C30.3673 18.0355 30.2246 20.9217 28.8071 24.3102C27.3847 27.7103 24.6802 31.6131 19.5469 33.6998Z" fill="#236EFF" stroke="#236EFF" stroke-width="0.1"/>
<path d="M18.4557 24.9164L26.634 15.1211L18.4557 24.9164ZM18.4557 24.9164L13.1957 19.3928L13.1956 19.3927C12.9043 19.0877 12.4249 19.0782 12.1217 19.3658L12.1217 19.3659C11.8176 19.6554 11.8057 20.1366 12.0948 20.4399L17.9423 26.5809L17.9424 26.5809C18.0864 26.7315 18.2851 26.817 18.493 26.817L18.4557 24.9164ZM18.5194 26.816C18.7356 26.8088 18.9379 26.7093 19.0763 26.544L19.0763 26.5439L27.8007 16.0944L27.8007 16.0944C28.0693 15.7724 28.0263 15.2935 27.7043 15.0247C27.3812 14.7545 26.9017 14.7999 26.634 15.121L18.5194 26.816Z" fill="#236EFF" stroke="#236EFF" stroke-width="0.1"/>
</g>
<defs>
<clipPath id="clip0">
<rect width="39" height="39" fill="white" transform="translate(0 0.805176)"/>
</clipPath>
</defs>
</svg>
