<svg width="38" height="39" viewBox="0 0 38 39" fill="none" xmlns="http://www.w3.org/2000/svg">
<g clip-path="url(#clip0)">
<mask id="path-1-inside-1" fill="white">
<path fill-rule="evenodd" clip-rule="evenodd" d="M28.9641 5.47461L25.7985 2.30794H5.87067L2.70511 5.47461H28.9641ZM0.273349 5.66802L4.984 0.957359C5.13125 0.808526 5.33234 0.724609 5.54292 0.724609H26.1263C26.3368 0.724609 26.5379 0.808526 26.6868 0.955776L31.4368 5.70578C31.6041 5.87317 31.6808 6.09735 31.6667 6.31673V12.5996C31.6667 13.0366 31.312 13.3913 30.875 13.3913H30.0835V17.4448C30.0835 17.8818 29.7288 18.2364 29.2918 18.2364C28.8548 18.2364 28.5002 17.8818 28.5002 17.4448V13.3914H3.16682V30.0164C3.16682 30.4518 3.52307 30.8081 3.95848 30.8081H16.6252C17.0622 30.8081 17.4168 31.1628 17.4168 31.5998C17.4168 32.0368 17.0622 32.3914 16.6252 32.3914H3.95848C2.64907 32.3914 1.58348 31.3258 1.58348 30.0164V13.3913H0.791667C0.354667 13.3913 0 13.0366 0 12.5996V6.26628C0 6.02744 0.105935 5.81321 0.273349 5.66802ZM1.58333 11.8079H30.0833V7.05794H1.58333V11.8079ZM19 27.6413C19 32.0065 22.5514 35.5579 26.9167 35.5579C28.8144 35.5579 30.5583 34.8868 31.9235 33.7693L36.6479 38.4937C36.8031 38.6473 37.0057 38.7249 37.2084 38.7249C37.4111 38.7249 37.6137 38.6473 37.7673 38.4937C38.0761 38.185 38.0761 37.6831 37.7673 37.3743L33.0431 32.6501C34.1615 31.2846 34.8333 29.5399 34.8333 27.6413C34.8333 23.276 31.2819 19.7246 26.9167 19.7246C22.5514 19.7246 19 23.276 19 27.6413ZM20.5833 27.6413C20.5833 24.1484 23.4238 21.3079 26.9167 21.3079C30.4095 21.3079 33.25 24.1484 33.25 27.6413C33.25 31.1341 30.4095 33.9746 26.9167 33.9746C23.4238 33.9746 20.5833 31.1341 20.5833 27.6413ZM11.8751 18.1414H19.7918C20.2288 18.1414 20.5835 17.7868 20.5835 17.3498C20.5835 16.9128 20.2288 16.5581 19.7918 16.5581H11.8751C11.4382 16.5581 11.0835 16.9128 11.0835 17.3498C11.0835 17.7868 11.4382 18.1414 11.8751 18.1414Z"/>
</mask>
<path fill-rule="evenodd" clip-rule="evenodd" d="M28.9641 5.47461L25.7985 2.30794H5.87067L2.70511 5.47461H28.9641ZM0.273349 5.66802L4.984 0.957359C5.13125 0.808526 5.33234 0.724609 5.54292 0.724609H26.1263C26.3368 0.724609 26.5379 0.808526 26.6868 0.955776L31.4368 5.70578C31.6041 5.87317 31.6808 6.09735 31.6667 6.31673V12.5996C31.6667 13.0366 31.312 13.3913 30.875 13.3913H30.0835V17.4448C30.0835 17.8818 29.7288 18.2364 29.2918 18.2364C28.8548 18.2364 28.5002 17.8818 28.5002 17.4448V13.3914H3.16682V30.0164C3.16682 30.4518 3.52307 30.8081 3.95848 30.8081H16.6252C17.0622 30.8081 17.4168 31.1628 17.4168 31.5998C17.4168 32.0368 17.0622 32.3914 16.6252 32.3914H3.95848C2.64907 32.3914 1.58348 31.3258 1.58348 30.0164V13.3913H0.791667C0.354667 13.3913 0 13.0366 0 12.5996V6.26628C0 6.02744 0.105935 5.81321 0.273349 5.66802ZM1.58333 11.8079H30.0833V7.05794H1.58333V11.8079ZM19 27.6413C19 32.0065 22.5514 35.5579 26.9167 35.5579C28.8144 35.5579 30.5583 34.8868 31.9235 33.7693L36.6479 38.4937C36.8031 38.6473 37.0057 38.7249 37.2084 38.7249C37.4111 38.7249 37.6137 38.6473 37.7673 38.4937C38.0761 38.185 38.0761 37.6831 37.7673 37.3743L33.0431 32.6501C34.1615 31.2846 34.8333 29.5399 34.8333 27.6413C34.8333 23.276 31.2819 19.7246 26.9167 19.7246C22.5514 19.7246 19 23.276 19 27.6413ZM20.5833 27.6413C20.5833 24.1484 23.4238 21.3079 26.9167 21.3079C30.4095 21.3079 33.25 24.1484 33.25 27.6413C33.25 31.1341 30.4095 33.9746 26.9167 33.9746C23.4238 33.9746 20.5833 31.1341 20.5833 27.6413ZM11.8751 18.1414H19.7918C20.2288 18.1414 20.5835 17.7868 20.5835 17.3498C20.5835 16.9128 20.2288 16.5581 19.7918 16.5581H11.8751C11.4382 16.5581 11.0835 16.9128 11.0835 17.3498C11.0835 17.7868 11.4382 18.1414 11.8751 18.1414Z" fill="#236EFF"/>
<path d="M28.9641 5.47461V5.57461H29.2054L29.0348 5.40391L28.9641 5.47461ZM25.7985 2.30794L25.8692 2.23724L25.8399 2.20794H25.7985V2.30794ZM5.87067 2.30794V2.20794H5.82924L5.79995 2.23724L5.87067 2.30794ZM2.70511 5.47461L2.63439 5.40391L2.46375 5.57461H2.70511V5.47461ZM0.273349 5.66802L0.339033 5.74375L0.344059 5.73873L0.273349 5.66802ZM4.984 0.957359L5.05472 1.02807L5.05509 1.02769L4.984 0.957359ZM26.6868 0.955776L26.7575 0.885064L26.7571 0.884688L26.6868 0.955776ZM31.4368 5.70578L31.366 5.77649L31.4368 5.70578ZM31.6667 6.31673L31.5667 6.3103V6.31673H31.6667ZM30.0835 13.3913V13.2913H29.9835V13.3913H30.0835ZM28.5002 13.3914H28.6002V13.2914H28.5002V13.3914ZM3.16682 13.3914V13.2914H3.06682V13.3914H3.16682ZM1.58348 13.3913H1.68348V13.2913H1.58348V13.3913ZM30.0833 11.8079V11.9079H30.1833V11.8079H30.0833ZM1.58333 11.8079H1.48333V11.9079H1.58333V11.8079ZM30.0833 7.05794H30.1833V6.95794H30.0833V7.05794ZM1.58333 7.05794V6.95794H1.48333V7.05794H1.58333ZM31.9235 33.7693L31.9942 33.6986L31.9302 33.6346L31.8601 33.6919L31.9235 33.7693ZM36.6479 38.4937L36.5772 38.5644L36.5775 38.5648L36.6479 38.4937ZM37.7673 37.3743L37.838 37.3036L37.7673 37.3743ZM33.0431 32.6501L32.9657 32.5867L32.9083 32.6567L32.9724 32.7208L33.0431 32.6501ZM29.0348 5.40391L25.8692 2.23724L25.7278 2.37864L28.8933 5.54531L29.0348 5.40391ZM25.7985 2.20794H5.87067V2.40794H25.7985V2.20794ZM5.79995 2.23724L2.63439 5.40391L2.77584 5.54531L5.94139 2.37864L5.79995 2.23724ZM28.9641 5.37461H2.70511V5.57461H28.9641V5.37461ZM0.344059 5.73873L5.05471 1.02807L4.91329 0.886649L0.202638 5.5973L0.344059 5.73873ZM5.05509 1.02769C5.1835 0.897903 5.35896 0.824609 5.54292 0.824609V0.624609C5.30571 0.624609 5.07901 0.719149 4.91292 0.887028L5.05509 1.02769ZM5.54292 0.824609H26.1263V0.624609H5.54292V0.824609ZM26.1263 0.824609C26.3102 0.824609 26.4861 0.897908 26.6164 1.02686L26.7571 0.884688C26.5898 0.719145 26.3635 0.624609 26.1263 0.624609V0.824609ZM26.616 1.02649L31.366 5.77649L31.5075 5.63507L26.7575 0.885065L26.616 1.02649ZM31.366 5.77649C31.5122 5.92265 31.5792 6.11833 31.5669 6.31031L31.7665 6.32315C31.7823 6.07636 31.6961 5.82369 31.5075 5.63507L31.366 5.77649ZM31.7667 12.5996V6.31673H31.5667V12.5996H31.7667ZM30.875 13.4913C31.3672 13.4913 31.7667 13.0918 31.7667 12.5996H31.5667C31.5667 12.9814 31.2568 13.2913 30.875 13.2913V13.4913ZM30.0835 13.4913H30.875V13.2913H30.0835V13.4913ZM30.1835 17.4448V13.3913H29.9835V17.4448H30.1835ZM29.2918 18.3364C29.784 18.3364 30.1835 17.937 30.1835 17.4448H29.9835C29.9835 17.8265 29.6736 18.1364 29.2918 18.1364V18.3364ZM28.4002 17.4448C28.4002 17.937 28.7996 18.3364 29.2918 18.3364V18.1364C28.91 18.1364 28.6002 17.8265 28.6002 17.4448H28.4002ZM28.4002 13.3914V17.4448H28.6002V13.3914H28.4002ZM3.16682 13.4914H28.5002V13.2914H3.16682V13.4914ZM3.26682 30.0164V13.3914H3.06682V30.0164H3.26682ZM3.95848 30.7081C3.5783 30.7081 3.26682 30.3966 3.26682 30.0164H3.06682C3.06682 30.5071 3.46784 30.9081 3.95848 30.9081V30.7081ZM16.6252 30.7081H3.95848V30.9081H16.6252V30.7081ZM17.5168 31.5998C17.5168 31.1075 17.1174 30.7081 16.6252 30.7081V30.9081C17.0069 30.9081 17.3168 31.218 17.3168 31.5998H17.5168ZM16.6252 32.4914C17.1174 32.4914 17.5168 32.092 17.5168 31.5998H17.3168C17.3168 31.9815 17.0069 32.2914 16.6252 32.2914V32.4914ZM3.95848 32.4914H16.6252V32.2914H3.95848V32.4914ZM1.48348 30.0164C1.48348 31.3811 2.59384 32.4914 3.95848 32.4914V32.2914C2.7043 32.2914 1.68348 31.2706 1.68348 30.0164H1.48348ZM1.48348 13.3913V30.0164H1.68348V13.3913H1.48348ZM0.791667 13.4913H1.58348V13.2913H0.791667V13.4913ZM-0.1 12.5996C-0.1 13.0918 0.299438 13.4913 0.791667 13.4913V13.2913C0.409895 13.2913 0.1 12.9814 0.1 12.5996H-0.1ZM-0.1 6.26628V12.5996H0.1V6.26628H-0.1ZM0.20783 5.59247C0.0194722 5.75582 -0.1 5.99721 -0.1 6.26628H0.1C0.1 6.05768 0.192397 5.87059 0.338867 5.74356L0.20783 5.59247ZM30.0833 11.7079H1.58333V11.9079H30.0833V11.7079ZM29.9833 7.05794V11.8079H30.1833V7.05794H29.9833ZM1.58333 7.15794H30.0833V6.95794H1.58333V7.15794ZM1.68333 11.8079V7.05794H1.48333V11.8079H1.68333ZM26.9167 35.458C22.6066 35.458 19.1 31.9513 19.1 27.6413H18.9C18.9 32.0618 22.4962 35.6579 26.9167 35.6579V35.458ZM31.8601 33.6919C30.5121 34.7953 28.7904 35.458 26.9167 35.458V35.6579C28.8384 35.6579 30.6045 34.9782 31.9868 33.8467L31.8601 33.6919ZM36.7186 38.423L31.9942 33.6986L31.8528 33.84L36.5772 38.5644L36.7186 38.423ZM37.2084 38.6249C37.0312 38.6249 36.8541 38.5571 36.7182 38.4227L36.5775 38.5648C36.752 38.7375 36.9802 38.8249 37.2084 38.8249V38.6249ZM37.6966 38.423C37.5625 38.5571 37.3856 38.6249 37.2084 38.6249V38.8249C37.4365 38.8249 37.6649 38.7375 37.838 38.5644L37.6966 38.423ZM37.6966 37.445C37.9663 37.7147 37.9663 38.1533 37.6966 38.423L37.838 38.5644C38.1858 38.2166 38.1858 37.6514 37.838 37.3036L37.6966 37.445ZM32.9724 32.7208L37.6966 37.445L37.838 37.3036L33.1138 32.5794L32.9724 32.7208ZM34.7333 27.6413C34.7333 29.5159 34.0701 31.2384 32.9657 32.5867L33.1204 32.7134C34.2529 31.3308 34.9333 29.5639 34.9333 27.6413H34.7333ZM26.9167 19.8246C31.2267 19.8246 34.7333 23.3313 34.7333 27.6413H34.9333C34.9333 23.2208 31.3372 19.6246 26.9167 19.6246V19.8246ZM19.1 27.6413C19.1 23.3313 22.6066 19.8246 26.9167 19.8246V19.6246C22.4962 19.6246 18.9 23.2208 18.9 27.6413H19.1ZM26.9167 21.2079C23.3686 21.2079 20.4833 24.0932 20.4833 27.6413H20.6833C20.6833 24.2037 23.4791 21.4079 26.9167 21.4079V21.2079ZM33.35 27.6413C33.35 24.0932 30.4647 21.2079 26.9167 21.2079V21.4079C30.3543 21.4079 33.15 24.2037 33.15 27.6413H33.35ZM26.9167 34.0746C30.4647 34.0746 33.35 31.1893 33.35 27.6413H33.15C33.15 31.0789 30.3543 33.8746 26.9167 33.8746V34.0746ZM20.4833 27.6413C20.4833 31.1893 23.3686 34.0746 26.9167 34.0746V33.8746C23.4791 33.8746 20.6833 31.0789 20.6833 27.6413H20.4833ZM19.7918 18.0414H11.8751V18.2414H19.7918V18.0414ZM20.4835 17.3498C20.4835 17.7315 20.1736 18.0414 19.7918 18.0414V18.2414C20.284 18.2414 20.6835 17.842 20.6835 17.3498H20.4835ZM19.7918 16.6581C20.1736 16.6581 20.4835 16.968 20.4835 17.3498H20.6835C20.6835 16.8575 20.284 16.4581 19.7918 16.4581V16.6581ZM11.8751 16.6581H19.7918V16.4581H11.8751V16.6581ZM11.1835 17.3498C11.1835 16.968 11.4934 16.6581 11.8751 16.6581V16.4581C11.3829 16.4581 10.9835 16.8575 10.9835 17.3498H11.1835ZM11.8751 18.0414C11.4934 18.0414 11.1835 17.7315 11.1835 17.3498H10.9835C10.9835 17.842 11.3829 18.2414 11.8751 18.2414V18.0414Z" fill="#236EFF" mask="url(#path-1-inside-1)"/>
</g>
<defs>
<clipPath id="clip0">
<rect width="38" height="38" fill="white" transform="translate(0 0.724609)"/>
</clipPath>
</defs>
</svg>
