<svg width="38" height="39" fill="none" xmlns="http://www.w3.org/2000/svg"><g clip-path="url(#clip0)" fill="#236EFF"><path d="M15.734 7.023a.742.742 0 101.485 0 .742.742 0 00-1.485 0zm14.102 14.992c-4.502 0-8.164 3.662-8.164 8.164s3.662 8.164 8.164 8.164S38 34.681 38 30.18s-3.662-8.164-8.164-8.164zm0 14.844a6.687 6.687 0 01-6.68-6.68 6.687 6.687 0 016.68-6.68 6.687 6.687 0 016.68 6.68 6.687 6.687 0 01-6.68 6.68z"/><path d="M29.91 29.384a.743.743 0 010-1.484c.263 0 .54.134.803.388a.742.742 0 001.032-1.067 2.867 2.867 0 00-1.093-.683v-.865a.742.742 0 00-1.484 0v.87a2.23 2.23 0 00-1.485 2.1 2.23 2.23 0 002.227 2.226.743.743 0 010 1.484c-.317 0-.66-.2-.964-.561a.742.742 0 00-1.136.955c.397.472.863.8 1.358.967v.866a.742.742 0 001.484 0v-.87a2.23 2.23 0 001.485-2.1 2.23 2.23 0 00-2.227-2.226zm-6.842-19.042a.742.742 0 00-.036-.762L17.094.674a.742.742 0 00-1.235 0L9.922 9.58a.742.742 0 00.617 1.154h2.227v8.312H7.125a.742.742 0 00-.742.743v3.71H.743a.742.742 0 00-.743.743v13.36c0 .409.332.741.742.741h18.703c.41 0 .742-.332.742-.742V10.734h2.227a.74.74 0 00.654-.392zM1.484 24.984h4.899v11.875H1.484V24.984zm6.383-4.453h4.899v16.328H7.867V20.53zM19.445 9.25a.742.742 0 00-.742.742v26.867H14.25V9.992a.742.742 0 00-.742-.742h-1.582l4.55-6.827 4.551 6.827h-1.582z"/><path d="M16.477 9.25a.742.742 0 00-.743.742v4.453a.742.742 0 001.485 0V9.992a.742.742 0 00-.742-.742z"/></g><defs><clipPath id="clip0"><path fill="#fff" transform="translate(0 .343)" d="M0 0h38v38H0z"/></clipPath></defs></svg>