<svg width="42" height="42" fill="none" xmlns="http://www.w3.org/2000/svg"><g clip-path="url(#clip0)" fill="#236EFF" stroke="#236EFF" stroke-width=".1"><path d="M21.166 8.343h0a4.154 4.154 0 004.15-4.15v0a4.15 4.15 0 10-4.15 4.15zm0-1.467a2.683 2.683 0 110-5.367 2.683 2.683 0 010 5.367zm2.734 2.05h0-.175l-.01.005-.144.072h0a5.397 5.397 0 01-4.811 0h0l-.145-.072-.01-.005h-.172 0a3.47 3.47 0 00-3.467 3.467v4.1c0 1.16.94 2.1 2.1 2.1h8.2a2.1 2.1 0 002.1-2.1v-4.1 0A3.47 3.47 0 0023.9 8.926zm2 7.567c0 .35-.284.633-.634.633h-8.2a.633.633 0 01-.633-.633v-4.1s0 0 0 0a2 2 0 011.845-1.994 6.888 6.888 0 005.776 0 2 2 0 011.845 1.994v4.1zm9.616 6.1h0a4.15 4.15 0 104.15 4.15v0a4.154 4.154 0 00-4.15-4.15zm0 6.833a2.683 2.683 0 110-5.367 2.683 2.683 0 010 5.367z"/><path d="M38.25 31.476h0-.174l-.01.005-.144.068h0-.001a5.398 5.398 0 01-4.811 0h0-.001l-.145-.068-.01-.005h-.171 0a3.47 3.47 0 00-3.467 3.467v4.1c0 1.16.94 2.1 2.1 2.1h8.2a2.1 2.1 0 002.1-2.1v-4.1 0a3.47 3.47 0 00-3.467-3.467zm2 7.566c0 .35-.284.634-.634.634h-8.2a.633.633 0 01-.633-.634v-4.1s0 0 0 0a2 2 0 011.845-1.993 6.888 6.888 0 005.776 0 2 2 0 011.845 1.994v4.1zM6.816 22.593h0a4.15 4.15 0 104.15 4.15v0a4.154 4.154 0 00-4.15-4.15zm0 6.833a2.683 2.683 0 110-5.367 2.683 2.683 0 010 5.367z"/><path d="M9.55 31.476h0-.174l-.01.005-.145.068h0a5.398 5.398 0 01-4.812 0h0l-.145-.068-.01-.005h-.171 0a3.47 3.47 0 00-3.467 3.467v4.1c0 1.16.94 2.1 2.1 2.1h8.2a2.1 2.1 0 002.1-2.1v-4.1 0a3.47 3.47 0 00-3.467-3.467zm2 7.566c0 .35-.284.634-.634.634h-8.2a.633.633 0 01-.633-.634v-4.1s0 0 0 0a2 2 0 011.845-1.993 6.888 6.888 0 005.776 0 2 2 0 011.845 1.994v4.1zm16.442-4.266h0a.733.733 0 01-.39.961 16.498 16.498 0 01-11.072.642l.502.959h0a.734.734 0 01-1.301.679s0 0 0 0l-1.365-2.612a.077.077 0 01-.012-.037v-.004h0a2.156 2.156 0 01-.07-.28l-.002-.007h0a.735.735 0 01.057-.303h0a.712.712 0 01.18-.25l.004-.004h0a.64.64 0 01.07-.044.729.729 0 01.183-.102l.004-.003c.003-.002.008-.006.015-.009a.065.065 0 01.02-.006l2.728-.8h0a.734.734 0 11.413 1.407m10.036-.187l-10.05.14m10.05-.14h0v-.002h0-.001a.733.733 0 00-.962-.388m.963.39l-.963-.39m-9.073.577l-.014-.048m.014.048h0l-.014-.048m.014.048l-.466.137m.452-.185l-.547.161.095.024m0 0c3.171.801 6.519.552 9.539-.714m-9.54.714l-.093.028c3.206.829 6.596.585 9.652-.696m-.02-.046s0 0 0 0l.02.046m-.02-.046s0 0 0 0l.02.046m-.02-.046l.02.046M16.464 36.36l-.033-.062.067.02-.034.042zm-1.69-1.985s0 0 0 0h0zm12.81-28.878a.683.683 0 10-.536 1.257 15.01 15.01 0 019.029 11.996l2.373-.69-.922.92-.006-.063m-9.938-13.42a16.375 16.375 0 019.892 13.465l.046-.045m-9.938-13.42l.02-.046s0 0 0 0a16.425 16.425 0 019.918 13.466m-9.938-13.42l9.938 13.42m0 0l.892-.893h0a.733.733 0 011.038 1.037h0l-2.05 2.05v.001h0a.733.733 0 01-1.038 0l1.158-2.195zm-1.502-.224l-.669-.669h0a.733.733 0 00-1.037.018l.035.035-.035-.035a.733.733 0 000 1.019h0l2.05 2.05-.344-2.418zm-29.887 1.9a.683.683 0 01-1.367 0m1.367 0L13.357 6.12l-.055.03m-7.17 14.444a15.01 15.01 0 017.319-12.9l-7.318 12.9zm-1.366 0a16.375 16.375 0 018.593-14.418l-.057-.026M4.766 20.593h-.05s0 0 0 0m.05 0l8.646-12.817m-.11-1.627a16.425 16.425 0 00-8.586 14.444M13.302 6.15l-1.324-.605-.001-.001h0a.733.733 0 01.608-1.333h.002L15.32 5.46l.006.002h0a.648.648 0 01.078.057M4.716 20.593L12.989 8.66a.733.733 0 00.66 1.05h0a.733.733 0 00.66-.415h0l1.367-2.852.005-.01v-.009l.002-.006a.708.708 0 00.04-.151.748.748 0 00.026-.117h0v-.01a.737.737 0 00-.02-.136.7.7 0 00-.025-.14l-.003-.004v-.015l-.006-.012a.704.704 0 00-.066-.098M4.716 20.593a.733.733 0 001.467 0v0a14.96 14.96 0 017.229-12.817m1.992-2.258a.623.623 0 00-.005-.003l-.023.045.033-.038a.744.744 0 00-.005-.004zm0 0a.69.69 0 01.139.095l.005.005h0c.03.037.058.076.08.117m0 0l-.002-.003-.039.031.044-.024a.078.078 0 00-.002-.004zm-2.216 2.04l-.423.884.423-.883z"/></g><defs><clipPath id="clip0"><path fill="#fff" transform="translate(.666 .093)" d="M0 0h41v41H0z"/></clipPath></defs></svg>