<svg width="39" height="40" fill="none" xmlns="http://www.w3.org/2000/svg"><g clip-path="url(#clip0)" fill="#236EFF" stroke="#236EFF" stroke-width=".1"><path d="M19.026.793h0a.76.76 0 01.474.001.751.751 0 01.473-.001h-.947zm0 0L3.686 5.778M19.027.793L3.686 5.778m.995 12.036h0c-.011.325-.106 4.184 1.7 8.599 1.805 4.41 5.51 9.376 13.098 11.922h.042c7.602-2.552 11.302-7.636 13.102-12.101 1.801-4.47 1.699-8.32 1.696-8.393v-.001h0V7.052L19.503 2.238h0l-.004-.002L4.68 17.814zm0 0V7.052l14.813-4.814s0 0 0 0L4.681 17.814zM3.687 5.778a.76.76 0 00-.525.722v11.285l.525-12.007zm31.625 0L19.974.793l-.841 38.976-.016.047s0 0 0 0a.748.748 0 00.24.04h.287c.08 0 .162-.014.24-.04 8.194-2.71 12.186-8.177 14.126-12.984 1.932-4.785 1.832-8.916 1.828-9.02V6.5a.76.76 0 00-.526-.722z"/><path d="M31.373 8.47h0L19.862 4.598h0a.802.802 0 00-.315-.036.812.812 0 00-.314.036h0L7.722 8.47h0a.76.76 0 00-.518.72l.001 8.815h0v.002c.002.067.148 3.257 1.727 6.987 1.58 3.732 4.596 8.006 10.34 10.23h0a.765.765 0 00.548 0h0c5.744-2.224 8.76-6.498 10.34-10.233 1.58-3.733 1.726-6.93 1.729-7.01h0V9.19v0a.761.761 0 00-.517-.72zM19.547 33.7c-5.133-2.087-7.838-5.99-9.26-9.386-1.415-3.382-1.559-6.26-1.562-6.335V9.737l10.822-3.643L30.37 9.737v8.217c-.003.081-.145 2.968-1.563 6.356-1.422 3.4-4.127 7.303-9.26 9.39z"/><path d="M18.456 24.916l8.178-9.795-8.178 9.795zm0 0l-5.26-5.523h0a.76.76 0 00-1.074-.027h0a.76.76 0 00-.027 1.074l5.847 6.14h0a.758.758 0 00.551.237l-.037-1.9zm.063 1.9a.76.76 0 00.557-.272h0l8.725-10.45h0a.76.76 0 00-1.167-.973l-8.115 11.695z"/></g><defs><clipPath id="clip0"><path fill="#fff" transform="translate(0 .805)" d="M0 0h39v39H0z"/></clipPath></defs></svg>