<svg width="42" height="42" fill="none" xmlns="http://www.w3.org/2000/svg"><g clip-path="url(#clip0)" fill="#236EFF" stroke="#236EFF" stroke-width=".1"><path d="M21.163 8.941h0a4.154 4.154 0 004.15-4.15v0a4.15 4.15 0 10-4.15 4.15zm0-1.466a2.683 2.683 0 110-5.367 2.683 2.683 0 010 5.367zm2.736 2.049h0-.173l-.01.005-.145.072h0a5.398 5.398 0 01-4.811 0h0l-.144-.072-.01-.005h-.175 0a3.47 3.47 0 00-3.466 3.467v4.1c0 1.16.94 2.1 2.1 2.1h8.2a2.1 2.1 0 002.1-2.1v-4.1 0a3.47 3.47 0 00-3.467-3.467zm2 7.567c0 .35-.284.633-.633.633h-8.2a.633.633 0 01-.634-.633v-4.1s0 0 0 0a2 2 0 011.846-1.994 6.889 6.889 0 005.776 0 2 2 0 011.845 1.994v4.1zm9.615 6.101h0a4.15 4.15 0 104.15 4.15v0a4.154 4.154 0 00-4.15-4.15zm0 6.834a2.683 2.683 0 110-5.367 2.683 2.683 0 010 5.367z"/><path d="M38.247 32.075h0-.172l-.011.005-.144.068h0-.001a5.398 5.398 0 01-4.811 0h0-.001l-.144-.068-.01-.005h-.173 0a3.47 3.47 0 00-3.467 3.467v4.1c0 1.16.94 2.1 2.1 2.1h8.2a2.1 2.1 0 002.1-2.1v-4.1 0a3.47 3.47 0 00-3.466-3.467zm2 7.567c0 .35-.284.633-.634.633h-8.2a.633.633 0 01-.633-.633v-4.1s0 0 0 0a2 2 0 011.845-1.994 6.889 6.889 0 005.776 0 2 2 0 011.846 1.994v4.1zM6.815 23.192h0a4.15 4.15 0 104.15 4.15v0a4.154 4.154 0 00-4.15-4.15zm0 6.834a2.683 2.683 0 110-5.367 2.683 2.683 0 010 5.367z"/><path d="M9.547 32.075h0-.172l-.01.005-.144.068h0-.001a5.398 5.398 0 01-4.812 0h0l-.145-.068-.01-.005h-.172 0a3.47 3.47 0 00-3.467 3.467v4.1c0 1.16.94 2.1 2.1 2.1h8.2a2.1 2.1 0 002.1-2.1v-4.1 0a3.47 3.47 0 00-3.467-3.467zm2 7.567c0 .35-.283.633-.633.633h-8.2a.633.633 0 01-.633-.633v-4.1s0 0 0 0a2 2 0 011.845-1.994 6.889 6.889 0 005.776 0 2 2 0 011.845 1.994v4.1zm16.444-4.266h0a.733.733 0 01-.39.961 16.498 16.498 0 01-11.071.642l.501.959h0a.734.734 0 01-1.3.68s0 0 0 0l-1.366-2.613a.077.077 0 01-.012-.037v-.003h0v-.001a2.173 2.173 0 01-.07-.28l-.001-.007h0a.735.735 0 01.056-.303h0a.714.714 0 01.18-.25l.004-.004h0a.64.64 0 01.07-.044.729.729 0 01.184-.102l.003-.002a.048.048 0 01.015-.01.067.067 0 01.02-.006l2.729-.8h0a.734.734 0 01.412 1.407m10.036-.187l-10.05.14m10.05-.14h0v-.001h0v-.001a.733.733 0 00-.963-.388m.963.39l-.963-.39m-9.073.578l-.014-.048m.014.047h0l-.014-.047m.014.047l-.466.137m.452-.184l-.547.16.095.024m0 0c3.172.801 6.52.552 9.54-.714m-9.54.714l-.094.028c3.206.829 6.597.585 9.653-.696m-.02-.046s0 0 0 0l.02.046m-.02-.046s0 0 0 0l.02.046m-.02-.046l.02.046M16.463 36.96l-.032-.062.067.02-.035.042zm-1.689-1.985s0 0 0 0h0zM27.58 6.094a.683.683 0 10-.535 1.257 15.01 15.01 0 019.028 11.997l2.373-.691-.921.921a12.72 12.72 0 00-.006-.064M27.58 6.094a16.375 16.375 0 019.893 13.465l.046-.045M27.58 6.094l.02-.046s0 0 0 0a16.425 16.425 0 019.919 13.466M27.58 6.094l9.939 13.42m0 0l.892-.892h0a.733.733 0 011.038 1.037h0l-2.05 2.05h0-.001 0a.733.733 0 01-1.037 0l1.158-2.195zm-1.503-.224l-.668-.668h-.001a.733.733 0 00-1.037.017l.036.035-.036-.035a.734.734 0 000 1.019h0l2.05 2.05-.344-2.418zM6.132 21.193a.683.683 0 01-1.366 0m1.366 0L13.357 6.72l-.055.03m-7.17 14.444a15.01 15.01 0 017.319-12.899l-7.319 12.9zm-1.366 0a16.375 16.375 0 018.593-14.418l-.057-.026M4.766 21.193h-.05s0 0 0 0m.05 0l8.646-12.817m-.11-1.627a16.425 16.425 0 00-8.586 14.444M13.302 6.75l-1.324-.605-.002-.001h0a.733.733 0 01.609-1.333h.002L15.32 6.06l.005.003h0a.651.651 0 01.079.056M4.716 21.193L12.989 9.26a.733.733 0 00.66 1.05h0a.733.733 0 00.66-.415h0l1.367-2.852.005-.01v-.009l.002-.006a.703.703 0 00.039-.151.748.748 0 00.026-.117h.001v-.01a.737.737 0 00-.02-.136.68.68 0 00-.025-.14l-.003-.004v-.015l-.006-.012a.712.712 0 00-.066-.098M4.716 21.193a.733.733 0 001.466 0v0a14.96 14.96 0 017.23-12.817m1.992-2.258c-.002 0-.004-.002-.005-.003l-.023.045.032-.038-.004-.004zm0 0a.69.69 0 01.138.095l.005.005h0a.74.74 0 01.082.117m0 0c-.002 0-.002-.002-.003-.003l-.04.032.045-.025-.002-.004zm-2.217 2.04l-.423.884.422-.883z"/></g><defs><clipPath id="clip0"><path fill="#fff" transform="translate(.664 .691)" d="M0 0h41v41H0z"/></clipPath></defs></svg>