<svg width="38" height="39" fill="none" xmlns="http://www.w3.org/2000/svg"><g clip-path="url(#clip0)" fill="#236EFF"><path d="M15.734 7.617a.742.742 0 101.485 0 .742.742 0 00-1.485 0zM29.836 22.61c-4.502 0-8.164 3.662-8.164 8.163 0 4.502 3.662 8.165 8.164 8.165S38 35.275 38 30.773c0-4.501-3.662-8.164-8.164-8.164zm0 14.843a6.687 6.687 0 01-6.68-6.68 6.687 6.687 0 016.68-6.68 6.687 6.687 0 016.68 6.68 6.687 6.687 0 01-6.68 6.68z"/><path d="M29.91 29.977a.743.743 0 010-1.485c.264 0 .541.134.803.388a.742.742 0 001.033-1.067 2.866 2.866 0 00-1.093-.683v-.864a.742.742 0 00-1.484 0v.87a2.23 2.23 0 00-1.485 2.098 2.23 2.23 0 002.227 2.227.743.743 0 010 1.484c-.317 0-.66-.2-.964-.561a.742.742 0 00-1.136.955c.397.472.863.8 1.358.967v.866a.742.742 0 001.484 0v-.87a2.23 2.23 0 001.484-2.099 2.229 2.229 0 00-2.226-2.226zm-6.842-19.041a.743.743 0 00-.036-.762l-5.938-8.906a.742.742 0 00-1.235 0l-5.937 8.906a.742.742 0 00.617 1.154h2.227v8.313H7.125a.742.742 0 00-.742.742v3.71H.743a.742.742 0 00-.743.743v13.36c0 .41.332.742.742.742h18.703c.41 0 .742-.333.742-.743V11.328h2.227a.74.74 0 00.654-.392zM1.484 25.578h4.899v11.875H1.484V25.578zm6.383-4.453h4.899v16.328H7.867V21.125zM19.445 9.844a.742.742 0 00-.742.742v26.867H14.25V10.586a.742.742 0 00-.742-.742h-1.582l4.55-6.826 4.551 6.826h-1.582z"/><path d="M16.477 9.844a.742.742 0 00-.743.742v4.453a.742.742 0 001.485 0v-4.453a.742.742 0 00-.742-.742z"/></g><defs><clipPath id="clip0"><path fill="#236EFF" transform="translate(0 .938)" d="M0 0h38v38H0z"/></clipPath></defs></svg>