<svg width="38" height="39" fill="none" xmlns="http://www.w3.org/2000/svg"><g clip-path="url(#clip0)"><mask id="a" fill="#fff"><path fill-rule="evenodd" clip-rule="evenodd" d="M28.964 5.07L25.8 1.904H5.87L2.705 5.07h26.26zm-28.69.194l4.71-4.71A.786.786 0 015.543.32h20.583c.21 0 .412.084.56.231l4.75 4.75a.79.79 0 01.23.611v6.283a.792.792 0 01-.791.792h-.791v4.054a.792.792 0 01-1.584 0v-4.054H3.167v16.625c0 .436.356.792.791.792h12.667a.792.792 0 010 1.583H3.958a2.378 2.378 0 01-2.375-2.375V12.987H.792A.792.792 0 010 12.195V5.862a.79.79 0 01.273-.598zm1.31 6.14h28.5v-4.75h-28.5v4.75zM19 27.237c0 4.365 3.551 7.917 7.917 7.917a7.88 7.88 0 005.006-1.789l4.725 4.724a.795.795 0 001.12 0 .792.792 0 000-1.119l-4.725-4.724a7.88 7.88 0 001.79-5.009c0-4.365-3.551-7.917-7.916-7.917-4.366 0-7.917 3.552-7.917 7.917zm1.583 0a6.34 6.34 0 016.334-6.333 6.34 6.34 0 016.333 6.333 6.34 6.34 0 01-6.333 6.333 6.34 6.34 0 01-6.334-6.333zm-8.708-9.5h7.917a.792.792 0 000-1.583h-7.917a.792.792 0 000 1.583z"/></mask><path fill-rule="evenodd" clip-rule="evenodd" d="M28.964 5.07L25.8 1.904H5.87L2.705 5.07h26.26zm-28.69.194l4.71-4.71A.786.786 0 015.543.32h20.583c.21 0 .412.084.56.231l4.75 4.75a.79.79 0 01.23.611v6.283a.792.792 0 01-.791.792h-.791v4.054a.792.792 0 01-1.584 0v-4.054H3.167v16.625c0 .436.356.792.791.792h12.667a.792.792 0 010 1.583H3.958a2.378 2.378 0 01-2.375-2.375V12.987H.792A.792.792 0 010 12.195V5.862a.79.79 0 01.273-.598zm1.31 6.14h28.5v-4.75h-28.5v4.75zM19 27.237c0 4.365 3.551 7.917 7.917 7.917a7.88 7.88 0 005.006-1.789l4.725 4.724a.795.795 0 001.12 0 .792.792 0 000-1.119l-4.725-4.724a7.88 7.88 0 001.79-5.009c0-4.365-3.551-7.917-7.916-7.917-4.366 0-7.917 3.552-7.917 7.917zm1.583 0a6.34 6.34 0 016.334-6.333 6.34 6.34 0 016.333 6.333 6.34 6.34 0 01-6.333 6.333 6.34 6.34 0 01-6.334-6.333zm-8.708-9.5h7.917a.792.792 0 000-1.583h-7.917a.792.792 0 000 1.583z" fill="#236EFF"/><path d="M28.964 5.07v.1h.241l-.17-.17-.07.07zM25.8 1.904l.07-.071-.03-.03h-.04v.1zm-19.928 0v-.1H5.83l-.029.029.07.07zM2.705 5.07L2.635 5l-.171.17h.241v-.1zm-2.432.194l.066.075.005-.005-.07-.07zM4.984.554l.07.07h.001l-.071-.07zM26.687.55l.07-.07-.07.07zm4.75 4.75l-.071.071.07-.07zm.23.611l-.1-.006v.006h.1zm-1.584 7.075v-.1h-.1v.1h.1zm-1.583 0h.1v-.1h-.1v.1zm-25.333 0v-.1h-.1v.1h.1zm-1.584 0h.1v-.1h-.1v.1zm28.5-1.583v.1h.1v-.1h-.1zm-28.5 0h-.1v.1h.1v-.1zm28.5-4.75h.1v-.1h-.1v.1zm-28.5 0v-.1h-.1v.1h.1zm30.34 26.711l.071-.07-.064-.065-.07.058.064.077zm4.725 4.724l-.07.071.07-.07zm1.12-1.119l.07-.07-.07.07zm-4.725-4.724l-.077-.064-.058.07.064.064.071-.07zM29.035 5l-3.166-3.167-.141.141 3.165 3.167.142-.141zm-3.236-3.196H5.87v.2h19.928v-.2zm-20 .029L2.635 5l.142.141L5.94 1.974l-.14-.141zM28.965 4.97H2.705v.2h26.26v-.2zm-28.62.364l4.71-4.71-.14-.142L.202 5.193l.141.141zm4.71-4.71A.686.686 0 015.543.42v-.2a.886.886 0 00-.63.263l.142.14zM5.543.42h20.583v-.2H5.543v.2zm20.583 0c.184 0 .36.074.49.203l.141-.143a.897.897 0 00-.63-.26v.2zm.49.202l4.75 4.75.142-.141-4.75-4.75-.142.141zm4.75 4.75a.69.69 0 01.2.534l.2.013a.89.89 0 00-.258-.688l-.142.141zm.4 6.823V5.912h-.2v6.283h.2zm-.891.892c.492 0 .892-.4.892-.892h-.2c0 .382-.31.692-.692.692v.2zm-.791 0h.791v-.2h-.791v.2zm.1 3.954v-4.054h-.2v4.054h.2zm-.892.891c.492 0 .891-.4.891-.891h-.2c0 .381-.31.691-.691.691v.2zm-.892-.891c0 .492.4.891.892.891v-.2a.692.692 0 01-.692-.691h-.2zm0-4.054v4.054h.2v-4.054h-.2zm-25.233.1H28.5v-.2H3.167v.2zm.1 16.525V12.987h-.2v16.625h.2zm.691.692a.694.694 0 01-.691-.692h-.2c0 .49.4.892.891.892v-.2zm12.667 0H3.958v.2h12.667v-.2zm.892.892c0-.493-.4-.892-.892-.892v.2c.382 0 .692.31.692.691h.2zm-.892.891c.492 0 .892-.4.892-.892h-.2c0 .382-.31.692-.692.692v.2zm-12.667 0h12.667v-.2H3.958v.2zm-2.475-2.475a2.478 2.478 0 002.475 2.475v-.2a2.278 2.278 0 01-2.275-2.275h-.2zm0-16.625v16.625h.2V12.987h-.2zm-.691.1h.791v-.2H.792v.2zm-.892-.892c0 .492.4.892.892.892v-.2a.692.692 0 01-.692-.692h-.2zm0-6.333v6.333h.2V5.862h-.2zm.308-.674a.89.89 0 00-.308.674h.2a.69.69 0 01.239-.523l-.131-.15zm29.875 6.116h-28.5v.2h28.5v-.2zm-.1-4.65v4.75h.2v-4.75h-.2zm-28.4.1h28.5v-.2h-28.5v.2zm.1 4.65v-4.75h-.2v4.75h.2zm25.234 23.65c-4.31 0-7.817-3.507-7.817-7.817h-.2c0 4.42 3.596 8.017 8.017 8.017v-.2zm4.943-1.766a7.78 7.78 0 01-4.943 1.766v.2a7.98 7.98 0 005.07-1.812l-.127-.154zm4.859 4.73l-4.725-4.724-.141.142 4.724 4.724.142-.141zm.49.203a.696.696 0 01-.49-.203l-.142.142c.175.173.403.26.631.26v-.2zm.488-.202a.689.689 0 01-.489.202v.2a.889.889 0 00.63-.26l-.141-.142zm0-.978c.27.27.27.708 0 .978l.141.141a.892.892 0 000-1.26l-.141.14zm-4.725-4.724l4.725 4.724.141-.142-4.724-4.724-.142.142zm1.761-5.08a7.78 7.78 0 01-1.767 4.945l.154.127a7.98 7.98 0 001.813-5.072h-.2zm-7.816-7.817c4.31 0 7.816 3.507 7.816 7.817h.2c0-4.42-3.596-8.017-8.016-8.017v.2zM19.1 27.237c0-4.31 3.507-7.817 7.817-7.817v-.2c-4.42 0-8.017 3.597-8.017 8.017h.2zm7.817-6.433a6.44 6.44 0 00-6.434 6.433h.2a6.24 6.24 0 016.234-6.233v-.2zm6.433 6.433a6.44 6.44 0 00-6.433-6.433v.2a6.24 6.24 0 016.233 6.233h.2zm-6.433 6.433a6.44 6.44 0 006.433-6.433h-.2a6.24 6.24 0 01-6.233 6.233v.2zm-6.434-6.433a6.44 6.44 0 006.434 6.433v-.2a6.24 6.24 0 01-6.234-6.233h-.2zm-.691-9.6h-7.917v.2h7.917v-.2zm.691-.692c0 .382-.31.692-.691.692v.2c.492 0 .891-.4.891-.892h-.2zm-.691-.691c.382 0 .691.31.691.691h.2a.891.891 0 00-.891-.891v.2zm-7.917 0h7.917v-.2h-7.917v.2zm-.691.691c0-.381.31-.691.691-.691v-.2c-.492 0-.892.4-.892.892h.2zm.691.692a.692.692 0 01-.691-.692h-.2c0 .493.399.892.891.892v-.2z" fill="#236EFF" mask="url(#a)"/></g><defs><clipPath id="clip0"><path fill="#fff" transform="translate(0 .32)" d="M0 0h38v38H0z"/></clipPath></defs></svg>