<svg width="39" height="40" fill="none" xmlns="http://www.w3.org/2000/svg"><g clip-path="url(#clip0)" stroke-width=".1"><path d="M19.026.39h0a.76.76 0 01.474.002.751.751 0 01.474-.002h-.948zm0 0L3.687 5.375M19.026.39L3.687 5.375m.994 12.036h0c-.01.325-.106 4.184 1.7 8.599 1.806 4.41 5.51 9.376 13.098 11.922h.042c7.602-2.552 11.302-7.635 13.102-12.101 1.801-4.47 1.7-8.32 1.697-8.392v-.002h0l-.001-10.788-14.814-4.814h0l-.005-.002L4.681 17.411zm0 0V6.65l14.813-4.814s0 0 0 0L4.682 17.411zM3.687 5.375a.76.76 0 00-.525.722l.001 11.285.524-12.007zm31.626 0L19.973.39l-.84 38.976-.016.047s0 0 0 0a.751.751 0 00.24.04h.288c.08 0 .161-.013.239-.04 8.195-2.71 12.186-8.177 14.126-12.983 1.932-4.786 1.832-8.916 1.828-9.021V6.097a.76.76 0 00-.525-.722z" fill="#236EFF" stroke="#fff"/><path d="M31.371 8.07h0l-11.51-3.874h0-.001a.802.802 0 00-.315-.036.812.812 0 00-.314.035h0L7.72 8.07h0a.76.76 0 00-.517.72v8.815h0v.001c.003.067.148 3.258 1.728 6.988 1.58 3.731 4.595 8.005 10.34 10.23h0a.767.767 0 00.548 0h0c5.744-2.225 8.76-6.499 10.34-10.233 1.58-3.733 1.726-6.93 1.728-7.01h0V8.79v0a.761.761 0 00-.517-.72zM19.546 33.297c-5.134-2.086-7.838-5.989-9.26-9.386-1.416-3.381-1.56-6.258-1.563-6.334V9.335l10.823-3.642 10.823 3.642v8.217c-.003.082-.146 2.968-1.563 6.357-1.423 3.4-4.127 7.303-9.26 9.39z" fill="#fff" stroke="#236EFF"/><path d="M18.458 24.515l8.178-9.796-8.178 9.796zm0 0l-5.26-5.524h0a.76.76 0 00-1.074-.027h0a.76.76 0 00-.027 1.074l5.847 6.141h0c.144.15.343.236.551.236l-.037-1.9zm.063 1.9a.76.76 0 00.557-.273h0l8.725-10.45h0a.76.76 0 10-1.167-.973L18.52 26.414z" fill="#236EFF" stroke="#fff"/></g><defs><clipPath id="clip0"><path fill="#fff" transform="translate(0 .402)" d="M0 0h39v39H0z"/></clipPath></defs></svg>